%TF.GenerationSoftware,KiCad,Pcbnew,9.0.7*%
%TF.CreationDate,2026-03-12T12:58:22+01:00*%
%TF.ProjectId,caraccel_10x10,63617261-6363-4656-9c5f-31307831302e,rev?*%
%TF.SameCoordinates,Original*%
%TF.FileFunction,Soldermask,Top*%
%TF.FilePolarity,Negative*%
%FSLAX46Y46*%
G04 Gerber Fmt 4.6, Leading zero omitted, Abs format (unit mm)*
G04 Created by KiCad (PCBNEW 9.0.7) date 2026-03-12 12:58:22*
%MOMM*%
%LPD*%
G01*
G04 APERTURE LIST*
%ADD10C,1.700000*%
%ADD11R,1.700000X1.700000*%
G04 APERTURE END LIST*
D10*
%TO.C,J2*%
X160060000Y-82500000D03*
X157520000Y-82500000D03*
X154980000Y-82500000D03*
X152440000Y-82500000D03*
X149900000Y-82500000D03*
X147360000Y-82500000D03*
X144820000Y-82500000D03*
X142280000Y-82500000D03*
X139740000Y-82500000D03*
X137200000Y-82500000D03*
X134660000Y-82500000D03*
X132120000Y-82500000D03*
X129580000Y-82500000D03*
X127040000Y-82500000D03*
D11*
X124500000Y-82500000D03*
%TD*%
D10*
%TO.C,J1*%
X160060000Y-105590000D03*
X157520000Y-105590000D03*
X154980000Y-105590000D03*
X152440000Y-105590000D03*
X149900000Y-105590000D03*
X147360000Y-105590000D03*
X144820000Y-105590000D03*
X142280000Y-105590000D03*
X139740000Y-105590000D03*
X137200000Y-105590000D03*
X134660000Y-105590000D03*
X132120000Y-105590000D03*
X129580000Y-105590000D03*
X127040000Y-105590000D03*
D11*
X124500000Y-105590000D03*
%TD*%
%TO.C,MPU1*%
X204000000Y-95960000D03*
D10*
X204000000Y-98500000D03*
X204000000Y-101040000D03*
X204000000Y-103580000D03*
X204000000Y-106120000D03*
X204000000Y-108660000D03*
X204000000Y-111200000D03*
X204000000Y-113740000D03*
X204000000Y-116280000D03*
X204000000Y-118820000D03*
%TD*%
D11*
%TO.C,M8*%
X203000000Y-45960000D03*
D10*
X203000000Y-48500000D03*
X203000000Y-51040000D03*
X203000000Y-53580000D03*
%TD*%
D11*
%TO.C,AUXR1*%
X124460000Y-37000000D03*
D10*
X127000000Y-37000000D03*
X129540000Y-37000000D03*
X132080000Y-37000000D03*
X134620000Y-37000000D03*
X137160000Y-37000000D03*
X139700000Y-37000000D03*
X142240000Y-37000000D03*
X144780000Y-37000000D03*
X147320000Y-37000000D03*
X149860000Y-37000000D03*
X152400000Y-37000000D03*
X154940000Y-37000000D03*
X157480000Y-37000000D03*
X160020000Y-37000000D03*
%TD*%
D11*
%TO.C,AUXL1*%
X124560000Y-113000000D03*
D10*
X127100000Y-113000000D03*
X129640000Y-113000000D03*
X132180000Y-113000000D03*
X134720000Y-113000000D03*
X137260000Y-113000000D03*
X139800000Y-113000000D03*
X142340000Y-113000000D03*
X144880000Y-113000000D03*
X147420000Y-113000000D03*
X149960000Y-113000000D03*
X152500000Y-113000000D03*
X155040000Y-113000000D03*
X157580000Y-113000000D03*
X160120000Y-113000000D03*
%TD*%
D11*
%TO.C,TFT1*%
X179510000Y-121500000D03*
D10*
X176970000Y-121500000D03*
X174430000Y-121500000D03*
X171890000Y-121500000D03*
X169350000Y-121500000D03*
X166810000Y-121500000D03*
X164270000Y-121500000D03*
X161730000Y-121500000D03*
X159190000Y-121500000D03*
X156650000Y-121500000D03*
X154110000Y-121500000D03*
X151570000Y-121500000D03*
X149030000Y-121500000D03*
X146490000Y-121500000D03*
%TD*%
M02*
