%TF.GenerationSoftware,KiCad,Pcbnew,9.0.7*%
%TF.CreationDate,2026-03-26T17:40:31+01:00*%
%TF.ProjectId,board_adaptor,626f6172-645f-4616-9461-70746f722e6b,rev?*%
%TF.SameCoordinates,Original*%
%TF.FileFunction,Drillmap*%
%TF.FilePolarity,Positive*%
%FSLAX45Y45*%
G04 Gerber Fmt 4.5, Leading zero omitted, Abs format (unit mm)*
G04 Created by KiCad (PCBNEW 9.0.7) date 2026-03-26 17:40:31*
%MOMM*%
%LPD*%
G01*
G04 APERTURE LIST*
%ADD10C,0.200000*%
%ADD11C,0.100000*%
G04 APERTURE END LIST*
D10*
X10000000Y-5050000D02*
X15000000Y-5050000D01*
X15000000Y-10050000D01*
X10000000Y-10050000D01*
X10000000Y-5050000D01*
D11*
X10150000Y-5850000D02*
X10250000Y-5950000D01*
X10250000Y-5850000D02*
X10150000Y-5950000D01*
X10150000Y-6104000D02*
X10250000Y-6204000D01*
X10250000Y-6104000D02*
X10150000Y-6204000D01*
X10150000Y-6358000D02*
X10250000Y-6458000D01*
X10250000Y-6358000D02*
X10150000Y-6458000D01*
X10150000Y-6612000D02*
X10250000Y-6712000D01*
X10250000Y-6612000D02*
X10150000Y-6712000D01*
X10150000Y-6866000D02*
X10250000Y-6966000D01*
X10250000Y-6866000D02*
X10150000Y-6966000D01*
X10150000Y-7120000D02*
X10250000Y-7220000D01*
X10250000Y-7120000D02*
X10150000Y-7220000D01*
X10150000Y-7374000D02*
X10250000Y-7474000D01*
X10250000Y-7374000D02*
X10150000Y-7474000D01*
X10150000Y-7628000D02*
X10250000Y-7728000D01*
X10250000Y-7628000D02*
X10150000Y-7728000D01*
X10150000Y-7882000D02*
X10250000Y-7982000D01*
X10250000Y-7882000D02*
X10150000Y-7982000D01*
X10150000Y-8136000D02*
X10250000Y-8236000D01*
X10250000Y-8136000D02*
X10150000Y-8236000D01*
X10150000Y-8390000D02*
X10250000Y-8490000D01*
X10250000Y-8390000D02*
X10150000Y-8490000D01*
X10150000Y-8644000D02*
X10250000Y-8744000D01*
X10250000Y-8644000D02*
X10150000Y-8744000D01*
X10150000Y-8898000D02*
X10250000Y-8998000D01*
X10250000Y-8898000D02*
X10150000Y-8998000D01*
X10150000Y-9152000D02*
X10250000Y-9252000D01*
X10250000Y-9152000D02*
X10150000Y-9252000D01*
X10150000Y-9406000D02*
X10250000Y-9506000D01*
X10250000Y-9406000D02*
X10150000Y-9506000D01*
X10550000Y-5850000D02*
X10650000Y-5950000D01*
X10650000Y-5850000D02*
X10550000Y-5950000D01*
X10550000Y-6104000D02*
X10650000Y-6204000D01*
X10650000Y-6104000D02*
X10550000Y-6204000D01*
X10550000Y-6358000D02*
X10650000Y-6458000D01*
X10650000Y-6358000D02*
X10550000Y-6458000D01*
X10550000Y-6612000D02*
X10650000Y-6712000D01*
X10650000Y-6612000D02*
X10550000Y-6712000D01*
X10550000Y-6866000D02*
X10650000Y-6966000D01*
X10650000Y-6866000D02*
X10550000Y-6966000D01*
X10550000Y-7120000D02*
X10650000Y-7220000D01*
X10650000Y-7120000D02*
X10550000Y-7220000D01*
X10550000Y-7374000D02*
X10650000Y-7474000D01*
X10650000Y-7374000D02*
X10550000Y-7474000D01*
X10550000Y-7628000D02*
X10650000Y-7728000D01*
X10650000Y-7628000D02*
X10550000Y-7728000D01*
X10550000Y-7882000D02*
X10650000Y-7982000D01*
X10650000Y-7882000D02*
X10550000Y-7982000D01*
X10550000Y-8136000D02*
X10650000Y-8236000D01*
X10650000Y-8136000D02*
X10550000Y-8236000D01*
X10550000Y-8390000D02*
X10650000Y-8490000D01*
X10650000Y-8390000D02*
X10550000Y-8490000D01*
X10550000Y-8644000D02*
X10650000Y-8744000D01*
X10650000Y-8644000D02*
X10550000Y-8744000D01*
X10550000Y-8898000D02*
X10650000Y-8998000D01*
X10650000Y-8898000D02*
X10550000Y-8998000D01*
X10550000Y-9152000D02*
X10650000Y-9252000D01*
X10650000Y-9152000D02*
X10550000Y-9252000D01*
X10550000Y-9406000D02*
X10650000Y-9506000D01*
X10650000Y-9406000D02*
X10550000Y-9506000D01*
X10950000Y-5842000D02*
X11050000Y-5942000D01*
X11050000Y-5842000D02*
X10950000Y-5942000D01*
X10950000Y-6096000D02*
X11050000Y-6196000D01*
X11050000Y-6096000D02*
X10950000Y-6196000D01*
X10950000Y-6350000D02*
X11050000Y-6450000D01*
X11050000Y-6350000D02*
X10950000Y-6450000D01*
X10950000Y-6604000D02*
X11050000Y-6704000D01*
X11050000Y-6604000D02*
X10950000Y-6704000D01*
X10950000Y-6858000D02*
X11050000Y-6958000D01*
X11050000Y-6858000D02*
X10950000Y-6958000D01*
X10950000Y-7112000D02*
X11050000Y-7212000D01*
X11050000Y-7112000D02*
X10950000Y-7212000D01*
X10950000Y-7366000D02*
X11050000Y-7466000D01*
X11050000Y-7366000D02*
X10950000Y-7466000D01*
X10950000Y-7620000D02*
X11050000Y-7720000D01*
X11050000Y-7620000D02*
X10950000Y-7720000D01*
X10950000Y-7874000D02*
X11050000Y-7974000D01*
X11050000Y-7874000D02*
X10950000Y-7974000D01*
X10950000Y-8128000D02*
X11050000Y-8228000D01*
X11050000Y-8128000D02*
X10950000Y-8228000D01*
X10950000Y-8382000D02*
X11050000Y-8482000D01*
X11050000Y-8382000D02*
X10950000Y-8482000D01*
X10950000Y-8636000D02*
X11050000Y-8736000D01*
X11050000Y-8636000D02*
X10950000Y-8736000D01*
X10950000Y-8890000D02*
X11050000Y-8990000D01*
X11050000Y-8890000D02*
X10950000Y-8990000D01*
X10950000Y-9144000D02*
X11050000Y-9244000D01*
X11050000Y-9144000D02*
X10950000Y-9244000D01*
X10950000Y-9398000D02*
X11050000Y-9498000D01*
X11050000Y-9398000D02*
X10950000Y-9498000D01*
X11350000Y-5850000D02*
X11450000Y-5950000D01*
X11450000Y-5850000D02*
X11350000Y-5950000D01*
X11350000Y-6104000D02*
X11450000Y-6204000D01*
X11450000Y-6104000D02*
X11350000Y-6204000D01*
X11350000Y-6358000D02*
X11450000Y-6458000D01*
X11450000Y-6358000D02*
X11350000Y-6458000D01*
X11350000Y-6612000D02*
X11450000Y-6712000D01*
X11450000Y-6612000D02*
X11350000Y-6712000D01*
X11350000Y-6866000D02*
X11450000Y-6966000D01*
X11450000Y-6866000D02*
X11350000Y-6966000D01*
X11350000Y-7120000D02*
X11450000Y-7220000D01*
X11450000Y-7120000D02*
X11350000Y-7220000D01*
X11350000Y-7374000D02*
X11450000Y-7474000D01*
X11450000Y-7374000D02*
X11350000Y-7474000D01*
X11350000Y-7628000D02*
X11450000Y-7728000D01*
X11450000Y-7628000D02*
X11350000Y-7728000D01*
X11350000Y-7882000D02*
X11450000Y-7982000D01*
X11450000Y-7882000D02*
X11350000Y-7982000D01*
X11350000Y-8136000D02*
X11450000Y-8236000D01*
X11450000Y-8136000D02*
X11350000Y-8236000D01*
X11350000Y-8390000D02*
X11450000Y-8490000D01*
X11450000Y-8390000D02*
X11350000Y-8490000D01*
X11350000Y-8644000D02*
X11450000Y-8744000D01*
X11450000Y-8644000D02*
X11350000Y-8744000D01*
X11350000Y-8898000D02*
X11450000Y-8998000D01*
X11450000Y-8898000D02*
X11350000Y-8998000D01*
X11350000Y-9152000D02*
X11450000Y-9252000D01*
X11450000Y-9152000D02*
X11350000Y-9252000D01*
X11350000Y-9406000D02*
X11450000Y-9506000D01*
X11450000Y-9406000D02*
X11350000Y-9506000D01*
X11750000Y-5850000D02*
X11850000Y-5950000D01*
X11850000Y-5850000D02*
X11750000Y-5950000D01*
X11750000Y-6104000D02*
X11850000Y-6204000D01*
X11850000Y-6104000D02*
X11750000Y-6204000D01*
X11750000Y-6358000D02*
X11850000Y-6458000D01*
X11850000Y-6358000D02*
X11750000Y-6458000D01*
X11750000Y-6612000D02*
X11850000Y-6712000D01*
X11850000Y-6612000D02*
X11750000Y-6712000D01*
X11750000Y-6866000D02*
X11850000Y-6966000D01*
X11850000Y-6866000D02*
X11750000Y-6966000D01*
X11750000Y-7120000D02*
X11850000Y-7220000D01*
X11850000Y-7120000D02*
X11750000Y-7220000D01*
X11750000Y-7374000D02*
X11850000Y-7474000D01*
X11850000Y-7374000D02*
X11750000Y-7474000D01*
X11750000Y-7628000D02*
X11850000Y-7728000D01*
X11850000Y-7628000D02*
X11750000Y-7728000D01*
X11750000Y-7882000D02*
X11850000Y-7982000D01*
X11850000Y-7882000D02*
X11750000Y-7982000D01*
X11750000Y-8136000D02*
X11850000Y-8236000D01*
X11850000Y-8136000D02*
X11750000Y-8236000D01*
X11750000Y-8390000D02*
X11850000Y-8490000D01*
X11850000Y-8390000D02*
X11750000Y-8490000D01*
X11750000Y-8644000D02*
X11850000Y-8744000D01*
X11850000Y-8644000D02*
X11750000Y-8744000D01*
X11750000Y-8898000D02*
X11850000Y-8998000D01*
X11850000Y-8898000D02*
X11750000Y-8998000D01*
X11750000Y-9152000D02*
X11850000Y-9252000D01*
X11850000Y-9152000D02*
X11750000Y-9252000D01*
X11750000Y-9406000D02*
X11850000Y-9506000D01*
X11850000Y-9406000D02*
X11750000Y-9506000D01*
X12150000Y-5850000D02*
X12250000Y-5950000D01*
X12250000Y-5850000D02*
X12150000Y-5950000D01*
X12150000Y-6104000D02*
X12250000Y-6204000D01*
X12250000Y-6104000D02*
X12150000Y-6204000D01*
X12150000Y-6358000D02*
X12250000Y-6458000D01*
X12250000Y-6358000D02*
X12150000Y-6458000D01*
X12150000Y-6612000D02*
X12250000Y-6712000D01*
X12250000Y-6612000D02*
X12150000Y-6712000D01*
X12150000Y-6866000D02*
X12250000Y-6966000D01*
X12250000Y-6866000D02*
X12150000Y-6966000D01*
X12150000Y-7120000D02*
X12250000Y-7220000D01*
X12250000Y-7120000D02*
X12150000Y-7220000D01*
X12150000Y-7374000D02*
X12250000Y-7474000D01*
X12250000Y-7374000D02*
X12150000Y-7474000D01*
X12150000Y-7628000D02*
X12250000Y-7728000D01*
X12250000Y-7628000D02*
X12150000Y-7728000D01*
X12150000Y-7882000D02*
X12250000Y-7982000D01*
X12250000Y-7882000D02*
X12150000Y-7982000D01*
X12150000Y-8136000D02*
X12250000Y-8236000D01*
X12250000Y-8136000D02*
X12150000Y-8236000D01*
X12150000Y-8390000D02*
X12250000Y-8490000D01*
X12250000Y-8390000D02*
X12150000Y-8490000D01*
X12150000Y-8644000D02*
X12250000Y-8744000D01*
X12250000Y-8644000D02*
X12150000Y-8744000D01*
X12150000Y-8898000D02*
X12250000Y-8998000D01*
X12250000Y-8898000D02*
X12150000Y-8998000D01*
X12150000Y-9152000D02*
X12250000Y-9252000D01*
X12250000Y-9152000D02*
X12150000Y-9252000D01*
X12150000Y-9406000D02*
X12250000Y-9506000D01*
X12250000Y-9406000D02*
X12150000Y-9506000D01*
X12550000Y-5850000D02*
X12650000Y-5950000D01*
X12650000Y-5850000D02*
X12550000Y-5950000D01*
X12550000Y-6104000D02*
X12650000Y-6204000D01*
X12650000Y-6104000D02*
X12550000Y-6204000D01*
X12550000Y-6358000D02*
X12650000Y-6458000D01*
X12650000Y-6358000D02*
X12550000Y-6458000D01*
X12550000Y-6612000D02*
X12650000Y-6712000D01*
X12650000Y-6612000D02*
X12550000Y-6712000D01*
X12550000Y-6866000D02*
X12650000Y-6966000D01*
X12650000Y-6866000D02*
X12550000Y-6966000D01*
X12550000Y-7120000D02*
X12650000Y-7220000D01*
X12650000Y-7120000D02*
X12550000Y-7220000D01*
X12550000Y-7374000D02*
X12650000Y-7474000D01*
X12650000Y-7374000D02*
X12550000Y-7474000D01*
X12550000Y-7628000D02*
X12650000Y-7728000D01*
X12650000Y-7628000D02*
X12550000Y-7728000D01*
X12550000Y-7882000D02*
X12650000Y-7982000D01*
X12650000Y-7882000D02*
X12550000Y-7982000D01*
X12550000Y-8136000D02*
X12650000Y-8236000D01*
X12650000Y-8136000D02*
X12550000Y-8236000D01*
X12550000Y-8390000D02*
X12650000Y-8490000D01*
X12650000Y-8390000D02*
X12550000Y-8490000D01*
X12550000Y-8644000D02*
X12650000Y-8744000D01*
X12650000Y-8644000D02*
X12550000Y-8744000D01*
X12550000Y-8898000D02*
X12650000Y-8998000D01*
X12650000Y-8898000D02*
X12550000Y-8998000D01*
X12550000Y-9152000D02*
X12650000Y-9252000D01*
X12650000Y-9152000D02*
X12550000Y-9252000D01*
X12550000Y-9406000D02*
X12650000Y-9506000D01*
X12650000Y-9406000D02*
X12550000Y-9506000D01*
X12950000Y-5850000D02*
X13050000Y-5950000D01*
X13050000Y-5850000D02*
X12950000Y-5950000D01*
X12950000Y-6104000D02*
X13050000Y-6204000D01*
X13050000Y-6104000D02*
X12950000Y-6204000D01*
X12950000Y-6358000D02*
X13050000Y-6458000D01*
X13050000Y-6358000D02*
X12950000Y-6458000D01*
X12950000Y-6612000D02*
X13050000Y-6712000D01*
X13050000Y-6612000D02*
X12950000Y-6712000D01*
X12950000Y-6866000D02*
X13050000Y-6966000D01*
X13050000Y-6866000D02*
X12950000Y-6966000D01*
X12950000Y-7120000D02*
X13050000Y-7220000D01*
X13050000Y-7120000D02*
X12950000Y-7220000D01*
X12950000Y-7374000D02*
X13050000Y-7474000D01*
X13050000Y-7374000D02*
X12950000Y-7474000D01*
X12950000Y-7628000D02*
X13050000Y-7728000D01*
X13050000Y-7628000D02*
X12950000Y-7728000D01*
X12950000Y-7882000D02*
X13050000Y-7982000D01*
X13050000Y-7882000D02*
X12950000Y-7982000D01*
X12950000Y-8136000D02*
X13050000Y-8236000D01*
X13050000Y-8136000D02*
X12950000Y-8236000D01*
X12950000Y-8390000D02*
X13050000Y-8490000D01*
X13050000Y-8390000D02*
X12950000Y-8490000D01*
X12950000Y-8644000D02*
X13050000Y-8744000D01*
X13050000Y-8644000D02*
X12950000Y-8744000D01*
X12950000Y-8898000D02*
X13050000Y-8998000D01*
X13050000Y-8898000D02*
X12950000Y-8998000D01*
X12950000Y-9152000D02*
X13050000Y-9252000D01*
X13050000Y-9152000D02*
X12950000Y-9252000D01*
X12950000Y-9406000D02*
X13050000Y-9506000D01*
X13050000Y-9406000D02*
X12950000Y-9506000D01*
X13350000Y-5850000D02*
X13450000Y-5950000D01*
X13450000Y-5850000D02*
X13350000Y-5950000D01*
X13350000Y-6104000D02*
X13450000Y-6204000D01*
X13450000Y-6104000D02*
X13350000Y-6204000D01*
X13350000Y-6358000D02*
X13450000Y-6458000D01*
X13450000Y-6358000D02*
X13350000Y-6458000D01*
X13350000Y-6612000D02*
X13450000Y-6712000D01*
X13450000Y-6612000D02*
X13350000Y-6712000D01*
X13350000Y-6866000D02*
X13450000Y-6966000D01*
X13450000Y-6866000D02*
X13350000Y-6966000D01*
X13350000Y-7120000D02*
X13450000Y-7220000D01*
X13450000Y-7120000D02*
X13350000Y-7220000D01*
X13350000Y-7374000D02*
X13450000Y-7474000D01*
X13450000Y-7374000D02*
X13350000Y-7474000D01*
X13350000Y-7628000D02*
X13450000Y-7728000D01*
X13450000Y-7628000D02*
X13350000Y-7728000D01*
X13350000Y-7882000D02*
X13450000Y-7982000D01*
X13450000Y-7882000D02*
X13350000Y-7982000D01*
X13350000Y-8136000D02*
X13450000Y-8236000D01*
X13450000Y-8136000D02*
X13350000Y-8236000D01*
X13350000Y-8390000D02*
X13450000Y-8490000D01*
X13450000Y-8390000D02*
X13350000Y-8490000D01*
X13350000Y-8644000D02*
X13450000Y-8744000D01*
X13450000Y-8644000D02*
X13350000Y-8744000D01*
X13350000Y-8898000D02*
X13450000Y-8998000D01*
X13450000Y-8898000D02*
X13350000Y-8998000D01*
X13350000Y-9152000D02*
X13450000Y-9252000D01*
X13450000Y-9152000D02*
X13350000Y-9252000D01*
X13350000Y-9406000D02*
X13450000Y-9506000D01*
X13450000Y-9406000D02*
X13350000Y-9506000D01*
X13750000Y-5844000D02*
X13850000Y-5944000D01*
X13850000Y-5844000D02*
X13750000Y-5944000D01*
X13750000Y-6098000D02*
X13850000Y-6198000D01*
X13850000Y-6098000D02*
X13750000Y-6198000D01*
X13750000Y-6352000D02*
X13850000Y-6452000D01*
X13850000Y-6352000D02*
X13750000Y-6452000D01*
X13750000Y-6606000D02*
X13850000Y-6706000D01*
X13850000Y-6606000D02*
X13750000Y-6706000D01*
X13750000Y-6860000D02*
X13850000Y-6960000D01*
X13850000Y-6860000D02*
X13750000Y-6960000D01*
X13750000Y-7114000D02*
X13850000Y-7214000D01*
X13850000Y-7114000D02*
X13750000Y-7214000D01*
X13750000Y-7368000D02*
X13850000Y-7468000D01*
X13850000Y-7368000D02*
X13750000Y-7468000D01*
X13750000Y-7622000D02*
X13850000Y-7722000D01*
X13850000Y-7622000D02*
X13750000Y-7722000D01*
X13750000Y-7876000D02*
X13850000Y-7976000D01*
X13850000Y-7876000D02*
X13750000Y-7976000D01*
X13750000Y-8130000D02*
X13850000Y-8230000D01*
X13850000Y-8130000D02*
X13750000Y-8230000D01*
X13750000Y-8384000D02*
X13850000Y-8484000D01*
X13850000Y-8384000D02*
X13750000Y-8484000D01*
X13750000Y-8638000D02*
X13850000Y-8738000D01*
X13850000Y-8638000D02*
X13750000Y-8738000D01*
X13750000Y-8892000D02*
X13850000Y-8992000D01*
X13850000Y-8892000D02*
X13750000Y-8992000D01*
X13750000Y-9146000D02*
X13850000Y-9246000D01*
X13850000Y-9146000D02*
X13750000Y-9246000D01*
X13750000Y-9400000D02*
X13850000Y-9500000D01*
X13850000Y-9400000D02*
X13750000Y-9500000D01*
X14150000Y-5850000D02*
X14250000Y-5950000D01*
X14250000Y-5850000D02*
X14150000Y-5950000D01*
X14150000Y-6104000D02*
X14250000Y-6204000D01*
X14250000Y-6104000D02*
X14150000Y-6204000D01*
X14150000Y-6358000D02*
X14250000Y-6458000D01*
X14250000Y-6358000D02*
X14150000Y-6458000D01*
X14150000Y-6612000D02*
X14250000Y-6712000D01*
X14250000Y-6612000D02*
X14150000Y-6712000D01*
X14150000Y-6866000D02*
X14250000Y-6966000D01*
X14250000Y-6866000D02*
X14150000Y-6966000D01*
X14150000Y-7120000D02*
X14250000Y-7220000D01*
X14250000Y-7120000D02*
X14150000Y-7220000D01*
X14150000Y-7374000D02*
X14250000Y-7474000D01*
X14250000Y-7374000D02*
X14150000Y-7474000D01*
X14150000Y-7628000D02*
X14250000Y-7728000D01*
X14250000Y-7628000D02*
X14150000Y-7728000D01*
X14150000Y-7882000D02*
X14250000Y-7982000D01*
X14250000Y-7882000D02*
X14150000Y-7982000D01*
X14150000Y-8136000D02*
X14250000Y-8236000D01*
X14250000Y-8136000D02*
X14150000Y-8236000D01*
X14150000Y-8390000D02*
X14250000Y-8490000D01*
X14250000Y-8390000D02*
X14150000Y-8490000D01*
X14150000Y-8644000D02*
X14250000Y-8744000D01*
X14250000Y-8644000D02*
X14150000Y-8744000D01*
X14150000Y-8898000D02*
X14250000Y-8998000D01*
X14250000Y-8898000D02*
X14150000Y-8998000D01*
X14150000Y-9152000D02*
X14250000Y-9252000D01*
X14250000Y-9152000D02*
X14150000Y-9252000D01*
X14150000Y-9406000D02*
X14250000Y-9506000D01*
X14250000Y-9406000D02*
X14150000Y-9506000D01*
X14550000Y-5850000D02*
X14650000Y-5950000D01*
X14650000Y-5850000D02*
X14550000Y-5950000D01*
X14550000Y-6104000D02*
X14650000Y-6204000D01*
X14650000Y-6104000D02*
X14550000Y-6204000D01*
X14550000Y-6358000D02*
X14650000Y-6458000D01*
X14650000Y-6358000D02*
X14550000Y-6458000D01*
X14550000Y-6612000D02*
X14650000Y-6712000D01*
X14650000Y-6612000D02*
X14550000Y-6712000D01*
X14550000Y-6866000D02*
X14650000Y-6966000D01*
X14650000Y-6866000D02*
X14550000Y-6966000D01*
X14550000Y-7120000D02*
X14650000Y-7220000D01*
X14650000Y-7120000D02*
X14550000Y-7220000D01*
X14550000Y-7374000D02*
X14650000Y-7474000D01*
X14650000Y-7374000D02*
X14550000Y-7474000D01*
X14550000Y-7628000D02*
X14650000Y-7728000D01*
X14650000Y-7628000D02*
X14550000Y-7728000D01*
X14550000Y-7882000D02*
X14650000Y-7982000D01*
X14650000Y-7882000D02*
X14550000Y-7982000D01*
X14550000Y-8136000D02*
X14650000Y-8236000D01*
X14650000Y-8136000D02*
X14550000Y-8236000D01*
X14550000Y-8390000D02*
X14650000Y-8490000D01*
X14650000Y-8390000D02*
X14550000Y-8490000D01*
X14550000Y-8644000D02*
X14650000Y-8744000D01*
X14650000Y-8644000D02*
X14550000Y-8744000D01*
X14550000Y-8898000D02*
X14650000Y-8998000D01*
X14650000Y-8898000D02*
X14550000Y-8998000D01*
X14550000Y-9152000D02*
X14650000Y-9252000D01*
X14650000Y-9152000D02*
X14550000Y-9252000D01*
X14550000Y-9406000D02*
X14650000Y-9506000D01*
X14650000Y-9406000D02*
X14550000Y-9506000D01*
D10*
X10250777Y-10371484D02*
X10250777Y-10171484D01*
X10250777Y-10171484D02*
X10298396Y-10171484D01*
X10298396Y-10171484D02*
X10326967Y-10181008D01*
X10326967Y-10181008D02*
X10346015Y-10200055D01*
X10346015Y-10200055D02*
X10355539Y-10219103D01*
X10355539Y-10219103D02*
X10365063Y-10257198D01*
X10365063Y-10257198D02*
X10365063Y-10285770D01*
X10365063Y-10285770D02*
X10355539Y-10323865D01*
X10355539Y-10323865D02*
X10346015Y-10342912D01*
X10346015Y-10342912D02*
X10326967Y-10361960D01*
X10326967Y-10361960D02*
X10298396Y-10371484D01*
X10298396Y-10371484D02*
X10250777Y-10371484D01*
X10450777Y-10371484D02*
X10450777Y-10238150D01*
X10450777Y-10276246D02*
X10460301Y-10257198D01*
X10460301Y-10257198D02*
X10469824Y-10247674D01*
X10469824Y-10247674D02*
X10488872Y-10238150D01*
X10488872Y-10238150D02*
X10507920Y-10238150D01*
X10574586Y-10371484D02*
X10574586Y-10238150D01*
X10574586Y-10171484D02*
X10565063Y-10181008D01*
X10565063Y-10181008D02*
X10574586Y-10190531D01*
X10574586Y-10190531D02*
X10584110Y-10181008D01*
X10584110Y-10181008D02*
X10574586Y-10171484D01*
X10574586Y-10171484D02*
X10574586Y-10190531D01*
X10698396Y-10371484D02*
X10679348Y-10361960D01*
X10679348Y-10361960D02*
X10669824Y-10342912D01*
X10669824Y-10342912D02*
X10669824Y-10171484D01*
X10803158Y-10371484D02*
X10784110Y-10361960D01*
X10784110Y-10361960D02*
X10774586Y-10342912D01*
X10774586Y-10342912D02*
X10774586Y-10171484D01*
X11031729Y-10371484D02*
X11031729Y-10171484D01*
X11031729Y-10171484D02*
X11098396Y-10314341D01*
X11098396Y-10314341D02*
X11165063Y-10171484D01*
X11165063Y-10171484D02*
X11165063Y-10371484D01*
X11346015Y-10371484D02*
X11346015Y-10266722D01*
X11346015Y-10266722D02*
X11336491Y-10247674D01*
X11336491Y-10247674D02*
X11317443Y-10238150D01*
X11317443Y-10238150D02*
X11279348Y-10238150D01*
X11279348Y-10238150D02*
X11260301Y-10247674D01*
X11346015Y-10361960D02*
X11326967Y-10371484D01*
X11326967Y-10371484D02*
X11279348Y-10371484D01*
X11279348Y-10371484D02*
X11260301Y-10361960D01*
X11260301Y-10361960D02*
X11250777Y-10342912D01*
X11250777Y-10342912D02*
X11250777Y-10323865D01*
X11250777Y-10323865D02*
X11260301Y-10304817D01*
X11260301Y-10304817D02*
X11279348Y-10295293D01*
X11279348Y-10295293D02*
X11326967Y-10295293D01*
X11326967Y-10295293D02*
X11346015Y-10285770D01*
X11441253Y-10238150D02*
X11441253Y-10438150D01*
X11441253Y-10247674D02*
X11460301Y-10238150D01*
X11460301Y-10238150D02*
X11498396Y-10238150D01*
X11498396Y-10238150D02*
X11517443Y-10247674D01*
X11517443Y-10247674D02*
X11526967Y-10257198D01*
X11526967Y-10257198D02*
X11536491Y-10276246D01*
X11536491Y-10276246D02*
X11536491Y-10333389D01*
X11536491Y-10333389D02*
X11526967Y-10352436D01*
X11526967Y-10352436D02*
X11517443Y-10361960D01*
X11517443Y-10361960D02*
X11498396Y-10371484D01*
X11498396Y-10371484D02*
X11460301Y-10371484D01*
X11460301Y-10371484D02*
X11441253Y-10361960D01*
X11622205Y-10352436D02*
X11631729Y-10361960D01*
X11631729Y-10361960D02*
X11622205Y-10371484D01*
X11622205Y-10371484D02*
X11612682Y-10361960D01*
X11612682Y-10361960D02*
X11622205Y-10352436D01*
X11622205Y-10352436D02*
X11622205Y-10371484D01*
X11622205Y-10247674D02*
X11631729Y-10257198D01*
X11631729Y-10257198D02*
X11622205Y-10266722D01*
X11622205Y-10266722D02*
X11612682Y-10257198D01*
X11612682Y-10257198D02*
X11622205Y-10247674D01*
X11622205Y-10247674D02*
X11622205Y-10266722D01*
D11*
X9890000Y-10650000D02*
X9990000Y-10750000D01*
X9990000Y-10650000D02*
X9890000Y-10750000D01*
D10*
X10355539Y-10791484D02*
X10241253Y-10791484D01*
X10298396Y-10791484D02*
X10298396Y-10591484D01*
X10298396Y-10591484D02*
X10279348Y-10620055D01*
X10279348Y-10620055D02*
X10260301Y-10639103D01*
X10260301Y-10639103D02*
X10241253Y-10648627D01*
X10441253Y-10772436D02*
X10450777Y-10781960D01*
X10450777Y-10781960D02*
X10441253Y-10791484D01*
X10441253Y-10791484D02*
X10431729Y-10781960D01*
X10431729Y-10781960D02*
X10441253Y-10772436D01*
X10441253Y-10772436D02*
X10441253Y-10791484D01*
X10574586Y-10591484D02*
X10593634Y-10591484D01*
X10593634Y-10591484D02*
X10612682Y-10601008D01*
X10612682Y-10601008D02*
X10622205Y-10610531D01*
X10622205Y-10610531D02*
X10631729Y-10629579D01*
X10631729Y-10629579D02*
X10641253Y-10667674D01*
X10641253Y-10667674D02*
X10641253Y-10715293D01*
X10641253Y-10715293D02*
X10631729Y-10753389D01*
X10631729Y-10753389D02*
X10622205Y-10772436D01*
X10622205Y-10772436D02*
X10612682Y-10781960D01*
X10612682Y-10781960D02*
X10593634Y-10791484D01*
X10593634Y-10791484D02*
X10574586Y-10791484D01*
X10574586Y-10791484D02*
X10555539Y-10781960D01*
X10555539Y-10781960D02*
X10546015Y-10772436D01*
X10546015Y-10772436D02*
X10536491Y-10753389D01*
X10536491Y-10753389D02*
X10526967Y-10715293D01*
X10526967Y-10715293D02*
X10526967Y-10667674D01*
X10526967Y-10667674D02*
X10536491Y-10629579D01*
X10536491Y-10629579D02*
X10546015Y-10610531D01*
X10546015Y-10610531D02*
X10555539Y-10601008D01*
X10555539Y-10601008D02*
X10574586Y-10591484D01*
X10765063Y-10591484D02*
X10784110Y-10591484D01*
X10784110Y-10591484D02*
X10803158Y-10601008D01*
X10803158Y-10601008D02*
X10812682Y-10610531D01*
X10812682Y-10610531D02*
X10822205Y-10629579D01*
X10822205Y-10629579D02*
X10831729Y-10667674D01*
X10831729Y-10667674D02*
X10831729Y-10715293D01*
X10831729Y-10715293D02*
X10822205Y-10753389D01*
X10822205Y-10753389D02*
X10812682Y-10772436D01*
X10812682Y-10772436D02*
X10803158Y-10781960D01*
X10803158Y-10781960D02*
X10784110Y-10791484D01*
X10784110Y-10791484D02*
X10765063Y-10791484D01*
X10765063Y-10791484D02*
X10746015Y-10781960D01*
X10746015Y-10781960D02*
X10736491Y-10772436D01*
X10736491Y-10772436D02*
X10726967Y-10753389D01*
X10726967Y-10753389D02*
X10717444Y-10715293D01*
X10717444Y-10715293D02*
X10717444Y-10667674D01*
X10717444Y-10667674D02*
X10726967Y-10629579D01*
X10726967Y-10629579D02*
X10736491Y-10610531D01*
X10736491Y-10610531D02*
X10746015Y-10601008D01*
X10746015Y-10601008D02*
X10765063Y-10591484D01*
X10955539Y-10591484D02*
X10974586Y-10591484D01*
X10974586Y-10591484D02*
X10993634Y-10601008D01*
X10993634Y-10601008D02*
X11003158Y-10610531D01*
X11003158Y-10610531D02*
X11012682Y-10629579D01*
X11012682Y-10629579D02*
X11022205Y-10667674D01*
X11022205Y-10667674D02*
X11022205Y-10715293D01*
X11022205Y-10715293D02*
X11012682Y-10753389D01*
X11012682Y-10753389D02*
X11003158Y-10772436D01*
X11003158Y-10772436D02*
X10993634Y-10781960D01*
X10993634Y-10781960D02*
X10974586Y-10791484D01*
X10974586Y-10791484D02*
X10955539Y-10791484D01*
X10955539Y-10791484D02*
X10936491Y-10781960D01*
X10936491Y-10781960D02*
X10926967Y-10772436D01*
X10926967Y-10772436D02*
X10917444Y-10753389D01*
X10917444Y-10753389D02*
X10907920Y-10715293D01*
X10907920Y-10715293D02*
X10907920Y-10667674D01*
X10907920Y-10667674D02*
X10917444Y-10629579D01*
X10917444Y-10629579D02*
X10926967Y-10610531D01*
X10926967Y-10610531D02*
X10936491Y-10601008D01*
X10936491Y-10601008D02*
X10955539Y-10591484D01*
X11107920Y-10791484D02*
X11107920Y-10658150D01*
X11107920Y-10677198D02*
X11117444Y-10667674D01*
X11117444Y-10667674D02*
X11136491Y-10658150D01*
X11136491Y-10658150D02*
X11165063Y-10658150D01*
X11165063Y-10658150D02*
X11184110Y-10667674D01*
X11184110Y-10667674D02*
X11193634Y-10686722D01*
X11193634Y-10686722D02*
X11193634Y-10791484D01*
X11193634Y-10686722D02*
X11203158Y-10667674D01*
X11203158Y-10667674D02*
X11222205Y-10658150D01*
X11222205Y-10658150D02*
X11250777Y-10658150D01*
X11250777Y-10658150D02*
X11269824Y-10667674D01*
X11269824Y-10667674D02*
X11279348Y-10686722D01*
X11279348Y-10686722D02*
X11279348Y-10791484D01*
X11374586Y-10791484D02*
X11374586Y-10658150D01*
X11374586Y-10677198D02*
X11384110Y-10667674D01*
X11384110Y-10667674D02*
X11403158Y-10658150D01*
X11403158Y-10658150D02*
X11431729Y-10658150D01*
X11431729Y-10658150D02*
X11450777Y-10667674D01*
X11450777Y-10667674D02*
X11460301Y-10686722D01*
X11460301Y-10686722D02*
X11460301Y-10791484D01*
X11460301Y-10686722D02*
X11469824Y-10667674D01*
X11469824Y-10667674D02*
X11488872Y-10658150D01*
X11488872Y-10658150D02*
X11517443Y-10658150D01*
X11517443Y-10658150D02*
X11536491Y-10667674D01*
X11536491Y-10667674D02*
X11546015Y-10686722D01*
X11546015Y-10686722D02*
X11546015Y-10791484D01*
X11936491Y-10581960D02*
X11765063Y-10839103D01*
X12193634Y-10591484D02*
X12212682Y-10591484D01*
X12212682Y-10591484D02*
X12231729Y-10601008D01*
X12231729Y-10601008D02*
X12241253Y-10610531D01*
X12241253Y-10610531D02*
X12250777Y-10629579D01*
X12250777Y-10629579D02*
X12260301Y-10667674D01*
X12260301Y-10667674D02*
X12260301Y-10715293D01*
X12260301Y-10715293D02*
X12250777Y-10753389D01*
X12250777Y-10753389D02*
X12241253Y-10772436D01*
X12241253Y-10772436D02*
X12231729Y-10781960D01*
X12231729Y-10781960D02*
X12212682Y-10791484D01*
X12212682Y-10791484D02*
X12193634Y-10791484D01*
X12193634Y-10791484D02*
X12174586Y-10781960D01*
X12174586Y-10781960D02*
X12165063Y-10772436D01*
X12165063Y-10772436D02*
X12155539Y-10753389D01*
X12155539Y-10753389D02*
X12146015Y-10715293D01*
X12146015Y-10715293D02*
X12146015Y-10667674D01*
X12146015Y-10667674D02*
X12155539Y-10629579D01*
X12155539Y-10629579D02*
X12165063Y-10610531D01*
X12165063Y-10610531D02*
X12174586Y-10601008D01*
X12174586Y-10601008D02*
X12193634Y-10591484D01*
X12346015Y-10772436D02*
X12355539Y-10781960D01*
X12355539Y-10781960D02*
X12346015Y-10791484D01*
X12346015Y-10791484D02*
X12336491Y-10781960D01*
X12336491Y-10781960D02*
X12346015Y-10772436D01*
X12346015Y-10772436D02*
X12346015Y-10791484D01*
X12479348Y-10591484D02*
X12498396Y-10591484D01*
X12498396Y-10591484D02*
X12517444Y-10601008D01*
X12517444Y-10601008D02*
X12526967Y-10610531D01*
X12526967Y-10610531D02*
X12536491Y-10629579D01*
X12536491Y-10629579D02*
X12546015Y-10667674D01*
X12546015Y-10667674D02*
X12546015Y-10715293D01*
X12546015Y-10715293D02*
X12536491Y-10753389D01*
X12536491Y-10753389D02*
X12526967Y-10772436D01*
X12526967Y-10772436D02*
X12517444Y-10781960D01*
X12517444Y-10781960D02*
X12498396Y-10791484D01*
X12498396Y-10791484D02*
X12479348Y-10791484D01*
X12479348Y-10791484D02*
X12460301Y-10781960D01*
X12460301Y-10781960D02*
X12450777Y-10772436D01*
X12450777Y-10772436D02*
X12441253Y-10753389D01*
X12441253Y-10753389D02*
X12431729Y-10715293D01*
X12431729Y-10715293D02*
X12431729Y-10667674D01*
X12431729Y-10667674D02*
X12441253Y-10629579D01*
X12441253Y-10629579D02*
X12450777Y-10610531D01*
X12450777Y-10610531D02*
X12460301Y-10601008D01*
X12460301Y-10601008D02*
X12479348Y-10591484D01*
X12612682Y-10591484D02*
X12736491Y-10591484D01*
X12736491Y-10591484D02*
X12669825Y-10667674D01*
X12669825Y-10667674D02*
X12698396Y-10667674D01*
X12698396Y-10667674D02*
X12717444Y-10677198D01*
X12717444Y-10677198D02*
X12726967Y-10686722D01*
X12726967Y-10686722D02*
X12736491Y-10705770D01*
X12736491Y-10705770D02*
X12736491Y-10753389D01*
X12736491Y-10753389D02*
X12726967Y-10772436D01*
X12726967Y-10772436D02*
X12717444Y-10781960D01*
X12717444Y-10781960D02*
X12698396Y-10791484D01*
X12698396Y-10791484D02*
X12641253Y-10791484D01*
X12641253Y-10791484D02*
X12622206Y-10781960D01*
X12622206Y-10781960D02*
X12612682Y-10772436D01*
X12831729Y-10791484D02*
X12869825Y-10791484D01*
X12869825Y-10791484D02*
X12888872Y-10781960D01*
X12888872Y-10781960D02*
X12898396Y-10772436D01*
X12898396Y-10772436D02*
X12917444Y-10743865D01*
X12917444Y-10743865D02*
X12926967Y-10705770D01*
X12926967Y-10705770D02*
X12926967Y-10629579D01*
X12926967Y-10629579D02*
X12917444Y-10610531D01*
X12917444Y-10610531D02*
X12907920Y-10601008D01*
X12907920Y-10601008D02*
X12888872Y-10591484D01*
X12888872Y-10591484D02*
X12850777Y-10591484D01*
X12850777Y-10591484D02*
X12831729Y-10601008D01*
X12831729Y-10601008D02*
X12822206Y-10610531D01*
X12822206Y-10610531D02*
X12812682Y-10629579D01*
X12812682Y-10629579D02*
X12812682Y-10677198D01*
X12812682Y-10677198D02*
X12822206Y-10696246D01*
X12822206Y-10696246D02*
X12831729Y-10705770D01*
X12831729Y-10705770D02*
X12850777Y-10715293D01*
X12850777Y-10715293D02*
X12888872Y-10715293D01*
X12888872Y-10715293D02*
X12907920Y-10705770D01*
X12907920Y-10705770D02*
X12917444Y-10696246D01*
X12917444Y-10696246D02*
X12926967Y-10677198D01*
X13098396Y-10658150D02*
X13098396Y-10791484D01*
X13050777Y-10581960D02*
X13003158Y-10724817D01*
X13003158Y-10724817D02*
X13126967Y-10724817D01*
X13193634Y-10591484D02*
X13193634Y-10629579D01*
X13269825Y-10591484D02*
X13269825Y-10629579D01*
X13565063Y-10867674D02*
X13555539Y-10858150D01*
X13555539Y-10858150D02*
X13536491Y-10829579D01*
X13536491Y-10829579D02*
X13526968Y-10810531D01*
X13526968Y-10810531D02*
X13517444Y-10781960D01*
X13517444Y-10781960D02*
X13507920Y-10734341D01*
X13507920Y-10734341D02*
X13507920Y-10696246D01*
X13507920Y-10696246D02*
X13517444Y-10648627D01*
X13517444Y-10648627D02*
X13526968Y-10620055D01*
X13526968Y-10620055D02*
X13536491Y-10601008D01*
X13536491Y-10601008D02*
X13555539Y-10572436D01*
X13555539Y-10572436D02*
X13565063Y-10562912D01*
X13746015Y-10791484D02*
X13631729Y-10791484D01*
X13688872Y-10791484D02*
X13688872Y-10591484D01*
X13688872Y-10591484D02*
X13669825Y-10620055D01*
X13669825Y-10620055D02*
X13650777Y-10639103D01*
X13650777Y-10639103D02*
X13631729Y-10648627D01*
X13860301Y-10677198D02*
X13841253Y-10667674D01*
X13841253Y-10667674D02*
X13831729Y-10658150D01*
X13831729Y-10658150D02*
X13822206Y-10639103D01*
X13822206Y-10639103D02*
X13822206Y-10629579D01*
X13822206Y-10629579D02*
X13831729Y-10610531D01*
X13831729Y-10610531D02*
X13841253Y-10601008D01*
X13841253Y-10601008D02*
X13860301Y-10591484D01*
X13860301Y-10591484D02*
X13898396Y-10591484D01*
X13898396Y-10591484D02*
X13917444Y-10601008D01*
X13917444Y-10601008D02*
X13926968Y-10610531D01*
X13926968Y-10610531D02*
X13936491Y-10629579D01*
X13936491Y-10629579D02*
X13936491Y-10639103D01*
X13936491Y-10639103D02*
X13926968Y-10658150D01*
X13926968Y-10658150D02*
X13917444Y-10667674D01*
X13917444Y-10667674D02*
X13898396Y-10677198D01*
X13898396Y-10677198D02*
X13860301Y-10677198D01*
X13860301Y-10677198D02*
X13841253Y-10686722D01*
X13841253Y-10686722D02*
X13831729Y-10696246D01*
X13831729Y-10696246D02*
X13822206Y-10715293D01*
X13822206Y-10715293D02*
X13822206Y-10753389D01*
X13822206Y-10753389D02*
X13831729Y-10772436D01*
X13831729Y-10772436D02*
X13841253Y-10781960D01*
X13841253Y-10781960D02*
X13860301Y-10791484D01*
X13860301Y-10791484D02*
X13898396Y-10791484D01*
X13898396Y-10791484D02*
X13917444Y-10781960D01*
X13917444Y-10781960D02*
X13926968Y-10772436D01*
X13926968Y-10772436D02*
X13936491Y-10753389D01*
X13936491Y-10753389D02*
X13936491Y-10715293D01*
X13936491Y-10715293D02*
X13926968Y-10696246D01*
X13926968Y-10696246D02*
X13917444Y-10686722D01*
X13917444Y-10686722D02*
X13898396Y-10677198D01*
X14060301Y-10591484D02*
X14079349Y-10591484D01*
X14079349Y-10591484D02*
X14098396Y-10601008D01*
X14098396Y-10601008D02*
X14107920Y-10610531D01*
X14107920Y-10610531D02*
X14117444Y-10629579D01*
X14117444Y-10629579D02*
X14126968Y-10667674D01*
X14126968Y-10667674D02*
X14126968Y-10715293D01*
X14126968Y-10715293D02*
X14117444Y-10753389D01*
X14117444Y-10753389D02*
X14107920Y-10772436D01*
X14107920Y-10772436D02*
X14098396Y-10781960D01*
X14098396Y-10781960D02*
X14079349Y-10791484D01*
X14079349Y-10791484D02*
X14060301Y-10791484D01*
X14060301Y-10791484D02*
X14041253Y-10781960D01*
X14041253Y-10781960D02*
X14031729Y-10772436D01*
X14031729Y-10772436D02*
X14022206Y-10753389D01*
X14022206Y-10753389D02*
X14012682Y-10715293D01*
X14012682Y-10715293D02*
X14012682Y-10667674D01*
X14012682Y-10667674D02*
X14022206Y-10629579D01*
X14022206Y-10629579D02*
X14031729Y-10610531D01*
X14031729Y-10610531D02*
X14041253Y-10601008D01*
X14041253Y-10601008D02*
X14060301Y-10591484D01*
X14365063Y-10791484D02*
X14365063Y-10591484D01*
X14450777Y-10791484D02*
X14450777Y-10686722D01*
X14450777Y-10686722D02*
X14441253Y-10667674D01*
X14441253Y-10667674D02*
X14422206Y-10658150D01*
X14422206Y-10658150D02*
X14393634Y-10658150D01*
X14393634Y-10658150D02*
X14374587Y-10667674D01*
X14374587Y-10667674D02*
X14365063Y-10677198D01*
X14574587Y-10791484D02*
X14555539Y-10781960D01*
X14555539Y-10781960D02*
X14546015Y-10772436D01*
X14546015Y-10772436D02*
X14536491Y-10753389D01*
X14536491Y-10753389D02*
X14536491Y-10696246D01*
X14536491Y-10696246D02*
X14546015Y-10677198D01*
X14546015Y-10677198D02*
X14555539Y-10667674D01*
X14555539Y-10667674D02*
X14574587Y-10658150D01*
X14574587Y-10658150D02*
X14603158Y-10658150D01*
X14603158Y-10658150D02*
X14622206Y-10667674D01*
X14622206Y-10667674D02*
X14631730Y-10677198D01*
X14631730Y-10677198D02*
X14641253Y-10696246D01*
X14641253Y-10696246D02*
X14641253Y-10753389D01*
X14641253Y-10753389D02*
X14631730Y-10772436D01*
X14631730Y-10772436D02*
X14622206Y-10781960D01*
X14622206Y-10781960D02*
X14603158Y-10791484D01*
X14603158Y-10791484D02*
X14574587Y-10791484D01*
X14755539Y-10791484D02*
X14736491Y-10781960D01*
X14736491Y-10781960D02*
X14726968Y-10762912D01*
X14726968Y-10762912D02*
X14726968Y-10591484D01*
X14907920Y-10781960D02*
X14888872Y-10791484D01*
X14888872Y-10791484D02*
X14850777Y-10791484D01*
X14850777Y-10791484D02*
X14831730Y-10781960D01*
X14831730Y-10781960D02*
X14822206Y-10762912D01*
X14822206Y-10762912D02*
X14822206Y-10686722D01*
X14822206Y-10686722D02*
X14831730Y-10667674D01*
X14831730Y-10667674D02*
X14850777Y-10658150D01*
X14850777Y-10658150D02*
X14888872Y-10658150D01*
X14888872Y-10658150D02*
X14907920Y-10667674D01*
X14907920Y-10667674D02*
X14917444Y-10686722D01*
X14917444Y-10686722D02*
X14917444Y-10705770D01*
X14917444Y-10705770D02*
X14822206Y-10724817D01*
X14993634Y-10781960D02*
X15012682Y-10791484D01*
X15012682Y-10791484D02*
X15050777Y-10791484D01*
X15050777Y-10791484D02*
X15069825Y-10781960D01*
X15069825Y-10781960D02*
X15079349Y-10762912D01*
X15079349Y-10762912D02*
X15079349Y-10753389D01*
X15079349Y-10753389D02*
X15069825Y-10734341D01*
X15069825Y-10734341D02*
X15050777Y-10724817D01*
X15050777Y-10724817D02*
X15022206Y-10724817D01*
X15022206Y-10724817D02*
X15003158Y-10715293D01*
X15003158Y-10715293D02*
X14993634Y-10696246D01*
X14993634Y-10696246D02*
X14993634Y-10686722D01*
X14993634Y-10686722D02*
X15003158Y-10667674D01*
X15003158Y-10667674D02*
X15022206Y-10658150D01*
X15022206Y-10658150D02*
X15050777Y-10658150D01*
X15050777Y-10658150D02*
X15069825Y-10667674D01*
X15146015Y-10867674D02*
X15155539Y-10858150D01*
X15155539Y-10858150D02*
X15174587Y-10829579D01*
X15174587Y-10829579D02*
X15184111Y-10810531D01*
X15184111Y-10810531D02*
X15193634Y-10781960D01*
X15193634Y-10781960D02*
X15203158Y-10734341D01*
X15203158Y-10734341D02*
X15203158Y-10696246D01*
X15203158Y-10696246D02*
X15193634Y-10648627D01*
X15193634Y-10648627D02*
X15184111Y-10620055D01*
X15184111Y-10620055D02*
X15174587Y-10601008D01*
X15174587Y-10601008D02*
X15155539Y-10572436D01*
X15155539Y-10572436D02*
X15146015Y-10562912D01*
M02*
