%TF.GenerationSoftware,KiCad,Pcbnew,9.0.7*%
%TF.CreationDate,2026-03-26T17:40:31+01:00*%
%TF.ProjectId,board_adaptor,626f6172-645f-4616-9461-70746f722e6b,rev?*%
%TF.SameCoordinates,Original*%
%TF.FileFunction,Drillmap*%
%TF.FilePolarity,Positive*%
%FSLAX45Y45*%
G04 Gerber Fmt 4.5, Leading zero omitted, Abs format (unit mm)*
G04 Created by KiCad (PCBNEW 9.0.7) date 2026-03-26 17:40:31*
%MOMM*%
%LPD*%
G01*
G04 APERTURE LIST*
%ADD10C,0.200000*%
G04 APERTURE END LIST*
D10*
X10000000Y-5050000D02*
X15000000Y-5050000D01*
X15000000Y-10050000D01*
X10000000Y-10050000D01*
X10000000Y-5050000D01*
X10250777Y-10371484D02*
X10250777Y-10171484D01*
X10250777Y-10171484D02*
X10298396Y-10171484D01*
X10298396Y-10171484D02*
X10326967Y-10181008D01*
X10326967Y-10181008D02*
X10346015Y-10200055D01*
X10346015Y-10200055D02*
X10355539Y-10219103D01*
X10355539Y-10219103D02*
X10365063Y-10257198D01*
X10365063Y-10257198D02*
X10365063Y-10285770D01*
X10365063Y-10285770D02*
X10355539Y-10323865D01*
X10355539Y-10323865D02*
X10346015Y-10342912D01*
X10346015Y-10342912D02*
X10326967Y-10361960D01*
X10326967Y-10361960D02*
X10298396Y-10371484D01*
X10298396Y-10371484D02*
X10250777Y-10371484D01*
X10450777Y-10371484D02*
X10450777Y-10238150D01*
X10450777Y-10276246D02*
X10460301Y-10257198D01*
X10460301Y-10257198D02*
X10469824Y-10247674D01*
X10469824Y-10247674D02*
X10488872Y-10238150D01*
X10488872Y-10238150D02*
X10507920Y-10238150D01*
X10574586Y-10371484D02*
X10574586Y-10238150D01*
X10574586Y-10171484D02*
X10565063Y-10181008D01*
X10565063Y-10181008D02*
X10574586Y-10190531D01*
X10574586Y-10190531D02*
X10584110Y-10181008D01*
X10584110Y-10181008D02*
X10574586Y-10171484D01*
X10574586Y-10171484D02*
X10574586Y-10190531D01*
X10698396Y-10371484D02*
X10679348Y-10361960D01*
X10679348Y-10361960D02*
X10669824Y-10342912D01*
X10669824Y-10342912D02*
X10669824Y-10171484D01*
X10803158Y-10371484D02*
X10784110Y-10361960D01*
X10784110Y-10361960D02*
X10774586Y-10342912D01*
X10774586Y-10342912D02*
X10774586Y-10171484D01*
X11031729Y-10371484D02*
X11031729Y-10171484D01*
X11031729Y-10171484D02*
X11098396Y-10314341D01*
X11098396Y-10314341D02*
X11165063Y-10171484D01*
X11165063Y-10171484D02*
X11165063Y-10371484D01*
X11346015Y-10371484D02*
X11346015Y-10266722D01*
X11346015Y-10266722D02*
X11336491Y-10247674D01*
X11336491Y-10247674D02*
X11317443Y-10238150D01*
X11317443Y-10238150D02*
X11279348Y-10238150D01*
X11279348Y-10238150D02*
X11260301Y-10247674D01*
X11346015Y-10361960D02*
X11326967Y-10371484D01*
X11326967Y-10371484D02*
X11279348Y-10371484D01*
X11279348Y-10371484D02*
X11260301Y-10361960D01*
X11260301Y-10361960D02*
X11250777Y-10342912D01*
X11250777Y-10342912D02*
X11250777Y-10323865D01*
X11250777Y-10323865D02*
X11260301Y-10304817D01*
X11260301Y-10304817D02*
X11279348Y-10295293D01*
X11279348Y-10295293D02*
X11326967Y-10295293D01*
X11326967Y-10295293D02*
X11346015Y-10285770D01*
X11441253Y-10238150D02*
X11441253Y-10438150D01*
X11441253Y-10247674D02*
X11460301Y-10238150D01*
X11460301Y-10238150D02*
X11498396Y-10238150D01*
X11498396Y-10238150D02*
X11517443Y-10247674D01*
X11517443Y-10247674D02*
X11526967Y-10257198D01*
X11526967Y-10257198D02*
X11536491Y-10276246D01*
X11536491Y-10276246D02*
X11536491Y-10333389D01*
X11536491Y-10333389D02*
X11526967Y-10352436D01*
X11526967Y-10352436D02*
X11517443Y-10361960D01*
X11517443Y-10361960D02*
X11498396Y-10371484D01*
X11498396Y-10371484D02*
X11460301Y-10371484D01*
X11460301Y-10371484D02*
X11441253Y-10361960D01*
X11622205Y-10352436D02*
X11631729Y-10361960D01*
X11631729Y-10361960D02*
X11622205Y-10371484D01*
X11622205Y-10371484D02*
X11612682Y-10361960D01*
X11612682Y-10361960D02*
X11622205Y-10352436D01*
X11622205Y-10352436D02*
X11622205Y-10371484D01*
X11622205Y-10247674D02*
X11631729Y-10257198D01*
X11631729Y-10257198D02*
X11622205Y-10266722D01*
X11622205Y-10266722D02*
X11612682Y-10257198D01*
X11612682Y-10257198D02*
X11622205Y-10247674D01*
X11622205Y-10247674D02*
X11622205Y-10266722D01*
M02*
