%TF.GenerationSoftware,KiCad,Pcbnew,9.0.7*%
%TF.CreationDate,2026-03-26T17:40:56+01:00*%
%TF.ProjectId,board_adaptor,626f6172-645f-4616-9461-70746f722e6b,rev?*%
%TF.SameCoordinates,Original*%
%TF.FileFunction,Legend,Top*%
%TF.FilePolarity,Positive*%
%FSLAX46Y46*%
G04 Gerber Fmt 4.6, Leading zero omitted, Abs format (unit mm)*
G04 Created by KiCad (PCBNEW 9.0.7) date 2026-03-26 17:40:56*
%MOMM*%
%LPD*%
G01*
G04 APERTURE LIST*
%ADD10C,0.100000*%
%ADD11C,0.150000*%
%ADD12C,0.120000*%
G04 APERTURE END LIST*
D10*
X149086704Y-75243734D02*
X149086704Y-74767544D01*
X149372419Y-75338972D02*
X148372419Y-75005639D01*
X148372419Y-75005639D02*
X149372419Y-74672306D01*
X149372419Y-73910401D02*
X148372419Y-73910401D01*
X149324800Y-73910401D02*
X149372419Y-74005639D01*
X149372419Y-74005639D02*
X149372419Y-74196115D01*
X149372419Y-74196115D02*
X149324800Y-74291353D01*
X149324800Y-74291353D02*
X149277180Y-74338972D01*
X149277180Y-74338972D02*
X149181942Y-74386591D01*
X149181942Y-74386591D02*
X148896228Y-74386591D01*
X148896228Y-74386591D02*
X148800990Y-74338972D01*
X148800990Y-74338972D02*
X148753371Y-74291353D01*
X148753371Y-74291353D02*
X148705752Y-74196115D01*
X148705752Y-74196115D02*
X148705752Y-74005639D01*
X148705752Y-74005639D02*
X148753371Y-73910401D01*
X149372419Y-73005639D02*
X148848609Y-73005639D01*
X148848609Y-73005639D02*
X148753371Y-73053258D01*
X148753371Y-73053258D02*
X148705752Y-73148496D01*
X148705752Y-73148496D02*
X148705752Y-73338972D01*
X148705752Y-73338972D02*
X148753371Y-73434210D01*
X149324800Y-73005639D02*
X149372419Y-73100877D01*
X149372419Y-73100877D02*
X149372419Y-73338972D01*
X149372419Y-73338972D02*
X149324800Y-73434210D01*
X149324800Y-73434210D02*
X149229561Y-73481829D01*
X149229561Y-73481829D02*
X149134323Y-73481829D01*
X149134323Y-73481829D02*
X149039085Y-73434210D01*
X149039085Y-73434210D02*
X148991466Y-73338972D01*
X148991466Y-73338972D02*
X148991466Y-73100877D01*
X148991466Y-73100877D02*
X148943847Y-73005639D01*
X148705752Y-72529448D02*
X149705752Y-72529448D01*
X148753371Y-72529448D02*
X148705752Y-72434210D01*
X148705752Y-72434210D02*
X148705752Y-72243734D01*
X148705752Y-72243734D02*
X148753371Y-72148496D01*
X148753371Y-72148496D02*
X148800990Y-72100877D01*
X148800990Y-72100877D02*
X148896228Y-72053258D01*
X148896228Y-72053258D02*
X149181942Y-72053258D01*
X149181942Y-72053258D02*
X149277180Y-72100877D01*
X149277180Y-72100877D02*
X149324800Y-72148496D01*
X149324800Y-72148496D02*
X149372419Y-72243734D01*
X149372419Y-72243734D02*
X149372419Y-72434210D01*
X149372419Y-72434210D02*
X149324800Y-72529448D01*
X148705752Y-71767543D02*
X148705752Y-71386591D01*
X148372419Y-71624686D02*
X149229561Y-71624686D01*
X149229561Y-71624686D02*
X149324800Y-71577067D01*
X149324800Y-71577067D02*
X149372419Y-71481829D01*
X149372419Y-71481829D02*
X149372419Y-71386591D01*
X149372419Y-70910400D02*
X149324800Y-71005638D01*
X149324800Y-71005638D02*
X149277180Y-71053257D01*
X149277180Y-71053257D02*
X149181942Y-71100876D01*
X149181942Y-71100876D02*
X148896228Y-71100876D01*
X148896228Y-71100876D02*
X148800990Y-71053257D01*
X148800990Y-71053257D02*
X148753371Y-71005638D01*
X148753371Y-71005638D02*
X148705752Y-70910400D01*
X148705752Y-70910400D02*
X148705752Y-70767543D01*
X148705752Y-70767543D02*
X148753371Y-70672305D01*
X148753371Y-70672305D02*
X148800990Y-70624686D01*
X148800990Y-70624686D02*
X148896228Y-70577067D01*
X148896228Y-70577067D02*
X149181942Y-70577067D01*
X149181942Y-70577067D02*
X149277180Y-70624686D01*
X149277180Y-70624686D02*
X149324800Y-70672305D01*
X149324800Y-70672305D02*
X149372419Y-70767543D01*
X149372419Y-70767543D02*
X149372419Y-70910400D01*
X149372419Y-70148495D02*
X148705752Y-70148495D01*
X148896228Y-70148495D02*
X148800990Y-70100876D01*
X148800990Y-70100876D02*
X148753371Y-70053257D01*
X148753371Y-70053257D02*
X148705752Y-69958019D01*
X148705752Y-69958019D02*
X148705752Y-69862781D01*
X149372419Y-68767542D02*
X148372419Y-68767542D01*
X148753371Y-68767542D02*
X148705752Y-68672304D01*
X148705752Y-68672304D02*
X148705752Y-68481828D01*
X148705752Y-68481828D02*
X148753371Y-68386590D01*
X148753371Y-68386590D02*
X148800990Y-68338971D01*
X148800990Y-68338971D02*
X148896228Y-68291352D01*
X148896228Y-68291352D02*
X149181942Y-68291352D01*
X149181942Y-68291352D02*
X149277180Y-68338971D01*
X149277180Y-68338971D02*
X149324800Y-68386590D01*
X149324800Y-68386590D02*
X149372419Y-68481828D01*
X149372419Y-68481828D02*
X149372419Y-68672304D01*
X149372419Y-68672304D02*
X149324800Y-68767542D01*
X149372419Y-67719923D02*
X149324800Y-67815161D01*
X149324800Y-67815161D02*
X149277180Y-67862780D01*
X149277180Y-67862780D02*
X149181942Y-67910399D01*
X149181942Y-67910399D02*
X148896228Y-67910399D01*
X148896228Y-67910399D02*
X148800990Y-67862780D01*
X148800990Y-67862780D02*
X148753371Y-67815161D01*
X148753371Y-67815161D02*
X148705752Y-67719923D01*
X148705752Y-67719923D02*
X148705752Y-67577066D01*
X148705752Y-67577066D02*
X148753371Y-67481828D01*
X148753371Y-67481828D02*
X148800990Y-67434209D01*
X148800990Y-67434209D02*
X148896228Y-67386590D01*
X148896228Y-67386590D02*
X149181942Y-67386590D01*
X149181942Y-67386590D02*
X149277180Y-67434209D01*
X149277180Y-67434209D02*
X149324800Y-67481828D01*
X149324800Y-67481828D02*
X149372419Y-67577066D01*
X149372419Y-67577066D02*
X149372419Y-67719923D01*
X149372419Y-66529447D02*
X148848609Y-66529447D01*
X148848609Y-66529447D02*
X148753371Y-66577066D01*
X148753371Y-66577066D02*
X148705752Y-66672304D01*
X148705752Y-66672304D02*
X148705752Y-66862780D01*
X148705752Y-66862780D02*
X148753371Y-66958018D01*
X149324800Y-66529447D02*
X149372419Y-66624685D01*
X149372419Y-66624685D02*
X149372419Y-66862780D01*
X149372419Y-66862780D02*
X149324800Y-66958018D01*
X149324800Y-66958018D02*
X149229561Y-67005637D01*
X149229561Y-67005637D02*
X149134323Y-67005637D01*
X149134323Y-67005637D02*
X149039085Y-66958018D01*
X149039085Y-66958018D02*
X148991466Y-66862780D01*
X148991466Y-66862780D02*
X148991466Y-66624685D01*
X148991466Y-66624685D02*
X148943847Y-66529447D01*
X149372419Y-66053256D02*
X148705752Y-66053256D01*
X148896228Y-66053256D02*
X148800990Y-66005637D01*
X148800990Y-66005637D02*
X148753371Y-65958018D01*
X148753371Y-65958018D02*
X148705752Y-65862780D01*
X148705752Y-65862780D02*
X148705752Y-65767542D01*
X149372419Y-65005637D02*
X148372419Y-65005637D01*
X149324800Y-65005637D02*
X149372419Y-65100875D01*
X149372419Y-65100875D02*
X149372419Y-65291351D01*
X149372419Y-65291351D02*
X149324800Y-65386589D01*
X149324800Y-65386589D02*
X149277180Y-65434208D01*
X149277180Y-65434208D02*
X149181942Y-65481827D01*
X149181942Y-65481827D02*
X148896228Y-65481827D01*
X148896228Y-65481827D02*
X148800990Y-65434208D01*
X148800990Y-65434208D02*
X148753371Y-65386589D01*
X148753371Y-65386589D02*
X148705752Y-65291351D01*
X148705752Y-65291351D02*
X148705752Y-65100875D01*
X148705752Y-65100875D02*
X148753371Y-65005637D01*
D11*
X143309524Y-56169104D02*
X143785714Y-56169104D01*
X143214286Y-56454819D02*
X143547619Y-55454819D01*
X143547619Y-55454819D02*
X143880952Y-56454819D01*
X144214286Y-55454819D02*
X144214286Y-56264342D01*
X144214286Y-56264342D02*
X144261905Y-56359580D01*
X144261905Y-56359580D02*
X144309524Y-56407200D01*
X144309524Y-56407200D02*
X144404762Y-56454819D01*
X144404762Y-56454819D02*
X144595238Y-56454819D01*
X144595238Y-56454819D02*
X144690476Y-56407200D01*
X144690476Y-56407200D02*
X144738095Y-56359580D01*
X144738095Y-56359580D02*
X144785714Y-56264342D01*
X144785714Y-56264342D02*
X144785714Y-55454819D01*
X145166667Y-55454819D02*
X145833333Y-56454819D01*
X145833333Y-55454819D02*
X145166667Y-56454819D01*
X146738095Y-56454819D02*
X146166667Y-56454819D01*
X146452381Y-56454819D02*
X146452381Y-55454819D01*
X146452381Y-55454819D02*
X146357143Y-55597676D01*
X146357143Y-55597676D02*
X146261905Y-55692914D01*
X146261905Y-55692914D02*
X146166667Y-55740533D01*
X147119048Y-55550057D02*
X147166667Y-55502438D01*
X147166667Y-55502438D02*
X147261905Y-55454819D01*
X147261905Y-55454819D02*
X147500000Y-55454819D01*
X147500000Y-55454819D02*
X147595238Y-55502438D01*
X147595238Y-55502438D02*
X147642857Y-55550057D01*
X147642857Y-55550057D02*
X147690476Y-55645295D01*
X147690476Y-55645295D02*
X147690476Y-55740533D01*
X147690476Y-55740533D02*
X147642857Y-55883390D01*
X147642857Y-55883390D02*
X147071429Y-56454819D01*
X147071429Y-56454819D02*
X147690476Y-56454819D01*
X100785714Y-56169104D02*
X101261904Y-56169104D01*
X100690476Y-56454819D02*
X101023809Y-55454819D01*
X101023809Y-55454819D02*
X101357142Y-56454819D01*
X101690476Y-55454819D02*
X101690476Y-56264342D01*
X101690476Y-56264342D02*
X101738095Y-56359580D01*
X101738095Y-56359580D02*
X101785714Y-56407200D01*
X101785714Y-56407200D02*
X101880952Y-56454819D01*
X101880952Y-56454819D02*
X102071428Y-56454819D01*
X102071428Y-56454819D02*
X102166666Y-56407200D01*
X102166666Y-56407200D02*
X102214285Y-56359580D01*
X102214285Y-56359580D02*
X102261904Y-56264342D01*
X102261904Y-56264342D02*
X102261904Y-55454819D01*
X102642857Y-55454819D02*
X103309523Y-56454819D01*
X103309523Y-55454819D02*
X102642857Y-56454819D01*
X103833333Y-55883390D02*
X103738095Y-55835771D01*
X103738095Y-55835771D02*
X103690476Y-55788152D01*
X103690476Y-55788152D02*
X103642857Y-55692914D01*
X103642857Y-55692914D02*
X103642857Y-55645295D01*
X103642857Y-55645295D02*
X103690476Y-55550057D01*
X103690476Y-55550057D02*
X103738095Y-55502438D01*
X103738095Y-55502438D02*
X103833333Y-55454819D01*
X103833333Y-55454819D02*
X104023809Y-55454819D01*
X104023809Y-55454819D02*
X104119047Y-55502438D01*
X104119047Y-55502438D02*
X104166666Y-55550057D01*
X104166666Y-55550057D02*
X104214285Y-55645295D01*
X104214285Y-55645295D02*
X104214285Y-55692914D01*
X104214285Y-55692914D02*
X104166666Y-55788152D01*
X104166666Y-55788152D02*
X104119047Y-55835771D01*
X104119047Y-55835771D02*
X104023809Y-55883390D01*
X104023809Y-55883390D02*
X103833333Y-55883390D01*
X103833333Y-55883390D02*
X103738095Y-55931009D01*
X103738095Y-55931009D02*
X103690476Y-55978628D01*
X103690476Y-55978628D02*
X103642857Y-56073866D01*
X103642857Y-56073866D02*
X103642857Y-56264342D01*
X103642857Y-56264342D02*
X103690476Y-56359580D01*
X103690476Y-56359580D02*
X103738095Y-56407200D01*
X103738095Y-56407200D02*
X103833333Y-56454819D01*
X103833333Y-56454819D02*
X104023809Y-56454819D01*
X104023809Y-56454819D02*
X104119047Y-56407200D01*
X104119047Y-56407200D02*
X104166666Y-56359580D01*
X104166666Y-56359580D02*
X104214285Y-56264342D01*
X104214285Y-56264342D02*
X104214285Y-56073866D01*
X104214285Y-56073866D02*
X104166666Y-55978628D01*
X104166666Y-55978628D02*
X104119047Y-55931009D01*
X104119047Y-55931009D02*
X104023809Y-55883390D01*
D12*
%TO.C,AUX12*%
X147380000Y-60270000D02*
X147380000Y-95940000D01*
X144620000Y-95940000D02*
X147380000Y-95940000D01*
X144620000Y-60270000D02*
X147380000Y-60270000D01*
X144620000Y-60270000D02*
X144620000Y-95940000D01*
X144620000Y-59000000D02*
X144620000Y-57620000D01*
X144620000Y-57620000D02*
X146000000Y-57620000D01*
%TO.C,AUX10*%
X140620000Y-57620000D02*
X142000000Y-57620000D01*
X140620000Y-59000000D02*
X140620000Y-57620000D01*
X140620000Y-60270000D02*
X140620000Y-95940000D01*
X140620000Y-60270000D02*
X143380000Y-60270000D01*
X140620000Y-95940000D02*
X143380000Y-95940000D01*
X143380000Y-60270000D02*
X143380000Y-95940000D01*
%TO.C,AUX9*%
X104620000Y-57620000D02*
X106000000Y-57620000D01*
X104620000Y-59000000D02*
X104620000Y-57620000D01*
X104620000Y-60270000D02*
X104620000Y-95940000D01*
X104620000Y-60270000D02*
X107380000Y-60270000D01*
X104620000Y-95940000D02*
X107380000Y-95940000D01*
X107380000Y-60270000D02*
X107380000Y-95940000D01*
%TO.C,AUX8*%
X100620000Y-57620000D02*
X102000000Y-57620000D01*
X100620000Y-59000000D02*
X100620000Y-57620000D01*
X100620000Y-60270000D02*
X100620000Y-95940000D01*
X100620000Y-60270000D02*
X103380000Y-60270000D01*
X100620000Y-95940000D02*
X103380000Y-95940000D01*
X103380000Y-60270000D02*
X103380000Y-95940000D01*
%TO.C,AUX7*%
X120620000Y-57620000D02*
X122000000Y-57620000D01*
X120620000Y-59000000D02*
X120620000Y-57620000D01*
X120620000Y-60270000D02*
X120620000Y-95940000D01*
X120620000Y-60270000D02*
X123380000Y-60270000D01*
X120620000Y-95940000D02*
X123380000Y-95940000D01*
X123380000Y-60270000D02*
X123380000Y-95940000D01*
%TO.C,AUX1*%
X111380000Y-60190000D02*
X111380000Y-95860000D01*
X108620000Y-95860000D02*
X111380000Y-95860000D01*
X108620000Y-60190000D02*
X111380000Y-60190000D01*
X108620000Y-60190000D02*
X108620000Y-95860000D01*
X108620000Y-58920000D02*
X108620000Y-57540000D01*
X108620000Y-57540000D02*
X110000000Y-57540000D01*
%TO.C,AUX6*%
X136620000Y-57560000D02*
X138000000Y-57560000D01*
X136620000Y-58940000D02*
X136620000Y-57560000D01*
X136620000Y-60210000D02*
X136620000Y-95880000D01*
X136620000Y-60210000D02*
X139380000Y-60210000D01*
X136620000Y-95880000D02*
X139380000Y-95880000D01*
X139380000Y-60210000D02*
X139380000Y-95880000D01*
%TO.C,AUX5*%
X132620000Y-57620000D02*
X134000000Y-57620000D01*
X132620000Y-59000000D02*
X132620000Y-57620000D01*
X132620000Y-60270000D02*
X132620000Y-95940000D01*
X132620000Y-60270000D02*
X135380000Y-60270000D01*
X132620000Y-95940000D02*
X135380000Y-95940000D01*
X135380000Y-60270000D02*
X135380000Y-95940000D01*
%TO.C,AUX4*%
X128620000Y-57620000D02*
X130000000Y-57620000D01*
X128620000Y-59000000D02*
X128620000Y-57620000D01*
X128620000Y-60270000D02*
X128620000Y-95940000D01*
X128620000Y-60270000D02*
X131380000Y-60270000D01*
X128620000Y-95940000D02*
X131380000Y-95940000D01*
X131380000Y-60270000D02*
X131380000Y-95940000D01*
%TO.C,AUX3*%
X119380000Y-60270000D02*
X119380000Y-95940000D01*
X116620000Y-95940000D02*
X119380000Y-95940000D01*
X116620000Y-60270000D02*
X119380000Y-60270000D01*
X116620000Y-60270000D02*
X116620000Y-95940000D01*
X116620000Y-59000000D02*
X116620000Y-57620000D01*
X116620000Y-57620000D02*
X118000000Y-57620000D01*
%TO.C,AUX2*%
X115380000Y-60270000D02*
X115380000Y-95940000D01*
X112620000Y-95940000D02*
X115380000Y-95940000D01*
X112620000Y-60270000D02*
X115380000Y-60270000D01*
X112620000Y-60270000D02*
X112620000Y-95940000D01*
X112620000Y-59000000D02*
X112620000Y-57620000D01*
X112620000Y-57620000D02*
X114000000Y-57620000D01*
%TO.C,AUX11*%
X124620000Y-57620000D02*
X126000000Y-57620000D01*
X124620000Y-59000000D02*
X124620000Y-57620000D01*
X124620000Y-60270000D02*
X124620000Y-95940000D01*
X124620000Y-60270000D02*
X127380000Y-60270000D01*
X124620000Y-95940000D02*
X127380000Y-95940000D01*
X127380000Y-60270000D02*
X127380000Y-95940000D01*
%TD*%
M02*
