%TF.GenerationSoftware,KiCad,Pcbnew,9.0.7*%
%TF.CreationDate,2026-03-26T17:40:55+01:00*%
%TF.ProjectId,board_adaptor,626f6172-645f-4616-9461-70746f722e6b,rev?*%
%TF.SameCoordinates,Original*%
%TF.FileFunction,Copper,L2,Bot*%
%TF.FilePolarity,Positive*%
%FSLAX46Y46*%
G04 Gerber Fmt 4.6, Leading zero omitted, Abs format (unit mm)*
G04 Created by KiCad (PCBNEW 9.0.7) date 2026-03-26 17:40:55*
%MOMM*%
%LPD*%
G01*
G04 APERTURE LIST*
%TA.AperFunction,ComponentPad*%
%ADD10C,1.700000*%
%TD*%
%TA.AperFunction,ComponentPad*%
%ADD11R,1.700000X1.700000*%
%TD*%
%TA.AperFunction,Conductor*%
%ADD12C,0.482600*%
%TD*%
G04 APERTURE END LIST*
D10*
%TO.P,AUX12,15,Pin_15*%
%TO.N,Net-(AUX10-Pin_15)*%
X146000000Y-94560000D03*
%TO.P,AUX12,14,Pin_14*%
%TO.N,Net-(AUX10-Pin_14)*%
X146000000Y-92020000D03*
%TO.P,AUX12,13,Pin_13*%
%TO.N,Net-(AUX10-Pin_13)*%
X146000000Y-89480000D03*
%TO.P,AUX12,12,Pin_12*%
%TO.N,Net-(AUX10-Pin_12)*%
X146000000Y-86940000D03*
%TO.P,AUX12,11,Pin_11*%
%TO.N,Net-(AUX10-Pin_11)*%
X146000000Y-84400000D03*
%TO.P,AUX12,10,Pin_10*%
%TO.N,Net-(AUX10-Pin_10)*%
X146000000Y-81860000D03*
%TO.P,AUX12,9,Pin_9*%
%TO.N,Net-(AUX10-Pin_9)*%
X146000000Y-79320000D03*
%TO.P,AUX12,8,Pin_8*%
%TO.N,Net-(AUX10-Pin_8)*%
X146000000Y-76780000D03*
%TO.P,AUX12,7,Pin_7*%
%TO.N,Net-(AUX10-Pin_7)*%
X146000000Y-74240000D03*
%TO.P,AUX12,6,Pin_6*%
%TO.N,Net-(AUX10-Pin_6)*%
X146000000Y-71700000D03*
%TO.P,AUX12,5,Pin_5*%
%TO.N,Net-(AUX10-Pin_5)*%
X146000000Y-69160000D03*
%TO.P,AUX12,4,Pin_4*%
%TO.N,Net-(AUX10-Pin_4)*%
X146000000Y-66620000D03*
%TO.P,AUX12,3,Pin_3*%
%TO.N,Net-(AUX10-Pin_3)*%
X146000000Y-64080000D03*
%TO.P,AUX12,2,Pin_2*%
%TO.N,Net-(AUX10-Pin_2)*%
X146000000Y-61540000D03*
D11*
%TO.P,AUX12,1,Pin_1*%
%TO.N,Net-(AUX10-Pin_1)*%
X146000000Y-59000000D03*
%TD*%
%TO.P,AUX10,1,Pin_1*%
%TO.N,Net-(AUX10-Pin_1)*%
X142000000Y-59000000D03*
D10*
%TO.P,AUX10,2,Pin_2*%
%TO.N,Net-(AUX10-Pin_2)*%
X142000000Y-61540000D03*
%TO.P,AUX10,3,Pin_3*%
%TO.N,Net-(AUX10-Pin_3)*%
X142000000Y-64080000D03*
%TO.P,AUX10,4,Pin_4*%
%TO.N,Net-(AUX10-Pin_4)*%
X142000000Y-66620000D03*
%TO.P,AUX10,5,Pin_5*%
%TO.N,Net-(AUX10-Pin_5)*%
X142000000Y-69160000D03*
%TO.P,AUX10,6,Pin_6*%
%TO.N,Net-(AUX10-Pin_6)*%
X142000000Y-71700000D03*
%TO.P,AUX10,7,Pin_7*%
%TO.N,Net-(AUX10-Pin_7)*%
X142000000Y-74240000D03*
%TO.P,AUX10,8,Pin_8*%
%TO.N,Net-(AUX10-Pin_8)*%
X142000000Y-76780000D03*
%TO.P,AUX10,9,Pin_9*%
%TO.N,Net-(AUX10-Pin_9)*%
X142000000Y-79320000D03*
%TO.P,AUX10,10,Pin_10*%
%TO.N,Net-(AUX10-Pin_10)*%
X142000000Y-81860000D03*
%TO.P,AUX10,11,Pin_11*%
%TO.N,Net-(AUX10-Pin_11)*%
X142000000Y-84400000D03*
%TO.P,AUX10,12,Pin_12*%
%TO.N,Net-(AUX10-Pin_12)*%
X142000000Y-86940000D03*
%TO.P,AUX10,13,Pin_13*%
%TO.N,Net-(AUX10-Pin_13)*%
X142000000Y-89480000D03*
%TO.P,AUX10,14,Pin_14*%
%TO.N,Net-(AUX10-Pin_14)*%
X142000000Y-92020000D03*
%TO.P,AUX10,15,Pin_15*%
%TO.N,Net-(AUX10-Pin_15)*%
X142000000Y-94560000D03*
%TD*%
D11*
%TO.P,AUX9,1,Pin_1*%
%TO.N,Net-(AUX1-Pin_1)*%
X106000000Y-59000000D03*
D10*
%TO.P,AUX9,2,Pin_2*%
%TO.N,Net-(AUX1-Pin_2)*%
X106000000Y-61540000D03*
%TO.P,AUX9,3,Pin_3*%
%TO.N,Net-(AUX1-Pin_3)*%
X106000000Y-64080000D03*
%TO.P,AUX9,4,Pin_4*%
%TO.N,Net-(AUX1-Pin_4)*%
X106000000Y-66620000D03*
%TO.P,AUX9,5,Pin_5*%
%TO.N,Net-(AUX1-Pin_5)*%
X106000000Y-69160000D03*
%TO.P,AUX9,6,Pin_6*%
%TO.N,Net-(AUX1-Pin_6)*%
X106000000Y-71700000D03*
%TO.P,AUX9,7,Pin_7*%
%TO.N,Net-(AUX1-Pin_7)*%
X106000000Y-74240000D03*
%TO.P,AUX9,8,Pin_8*%
%TO.N,Net-(AUX1-Pin_8)*%
X106000000Y-76780000D03*
%TO.P,AUX9,9,Pin_9*%
%TO.N,Net-(AUX1-Pin_9)*%
X106000000Y-79320000D03*
%TO.P,AUX9,10,Pin_10*%
%TO.N,Net-(AUX1-Pin_10)*%
X106000000Y-81860000D03*
%TO.P,AUX9,11,Pin_11*%
%TO.N,Net-(AUX1-Pin_11)*%
X106000000Y-84400000D03*
%TO.P,AUX9,12,Pin_12*%
%TO.N,Net-(AUX1-Pin_12)*%
X106000000Y-86940000D03*
%TO.P,AUX9,13,Pin_13*%
%TO.N,Net-(AUX1-Pin_13)*%
X106000000Y-89480000D03*
%TO.P,AUX9,14,Pin_14*%
%TO.N,Net-(AUX1-Pin_14)*%
X106000000Y-92020000D03*
%TO.P,AUX9,15,Pin_15*%
%TO.N,Net-(AUX1-Pin_15)*%
X106000000Y-94560000D03*
%TD*%
D11*
%TO.P,AUX8,1,Pin_1*%
%TO.N,Net-(AUX1-Pin_1)*%
X102000000Y-59000000D03*
D10*
%TO.P,AUX8,2,Pin_2*%
%TO.N,Net-(AUX1-Pin_2)*%
X102000000Y-61540000D03*
%TO.P,AUX8,3,Pin_3*%
%TO.N,Net-(AUX1-Pin_3)*%
X102000000Y-64080000D03*
%TO.P,AUX8,4,Pin_4*%
%TO.N,Net-(AUX1-Pin_4)*%
X102000000Y-66620000D03*
%TO.P,AUX8,5,Pin_5*%
%TO.N,Net-(AUX1-Pin_5)*%
X102000000Y-69160000D03*
%TO.P,AUX8,6,Pin_6*%
%TO.N,Net-(AUX1-Pin_6)*%
X102000000Y-71700000D03*
%TO.P,AUX8,7,Pin_7*%
%TO.N,Net-(AUX1-Pin_7)*%
X102000000Y-74240000D03*
%TO.P,AUX8,8,Pin_8*%
%TO.N,Net-(AUX1-Pin_8)*%
X102000000Y-76780000D03*
%TO.P,AUX8,9,Pin_9*%
%TO.N,Net-(AUX1-Pin_9)*%
X102000000Y-79320000D03*
%TO.P,AUX8,10,Pin_10*%
%TO.N,Net-(AUX1-Pin_10)*%
X102000000Y-81860000D03*
%TO.P,AUX8,11,Pin_11*%
%TO.N,Net-(AUX1-Pin_11)*%
X102000000Y-84400000D03*
%TO.P,AUX8,12,Pin_12*%
%TO.N,Net-(AUX1-Pin_12)*%
X102000000Y-86940000D03*
%TO.P,AUX8,13,Pin_13*%
%TO.N,Net-(AUX1-Pin_13)*%
X102000000Y-89480000D03*
%TO.P,AUX8,14,Pin_14*%
%TO.N,Net-(AUX1-Pin_14)*%
X102000000Y-92020000D03*
%TO.P,AUX8,15,Pin_15*%
%TO.N,Net-(AUX1-Pin_15)*%
X102000000Y-94560000D03*
%TD*%
D11*
%TO.P,AUX7,1,Pin_1*%
%TO.N,Net-(AUX1-Pin_1)*%
X122000000Y-59000000D03*
D10*
%TO.P,AUX7,2,Pin_2*%
%TO.N,Net-(AUX1-Pin_2)*%
X122000000Y-61540000D03*
%TO.P,AUX7,3,Pin_3*%
%TO.N,Net-(AUX1-Pin_3)*%
X122000000Y-64080000D03*
%TO.P,AUX7,4,Pin_4*%
%TO.N,Net-(AUX1-Pin_4)*%
X122000000Y-66620000D03*
%TO.P,AUX7,5,Pin_5*%
%TO.N,Net-(AUX1-Pin_5)*%
X122000000Y-69160000D03*
%TO.P,AUX7,6,Pin_6*%
%TO.N,Net-(AUX1-Pin_6)*%
X122000000Y-71700000D03*
%TO.P,AUX7,7,Pin_7*%
%TO.N,Net-(AUX1-Pin_7)*%
X122000000Y-74240000D03*
%TO.P,AUX7,8,Pin_8*%
%TO.N,Net-(AUX1-Pin_8)*%
X122000000Y-76780000D03*
%TO.P,AUX7,9,Pin_9*%
%TO.N,Net-(AUX1-Pin_9)*%
X122000000Y-79320000D03*
%TO.P,AUX7,10,Pin_10*%
%TO.N,Net-(AUX1-Pin_10)*%
X122000000Y-81860000D03*
%TO.P,AUX7,11,Pin_11*%
%TO.N,Net-(AUX1-Pin_11)*%
X122000000Y-84400000D03*
%TO.P,AUX7,12,Pin_12*%
%TO.N,Net-(AUX1-Pin_12)*%
X122000000Y-86940000D03*
%TO.P,AUX7,13,Pin_13*%
%TO.N,Net-(AUX1-Pin_13)*%
X122000000Y-89480000D03*
%TO.P,AUX7,14,Pin_14*%
%TO.N,Net-(AUX1-Pin_14)*%
X122000000Y-92020000D03*
%TO.P,AUX7,15,Pin_15*%
%TO.N,Net-(AUX1-Pin_15)*%
X122000000Y-94560000D03*
%TD*%
%TO.P,AUX1,15,Pin_15*%
%TO.N,Net-(AUX1-Pin_15)*%
X110000000Y-94480000D03*
%TO.P,AUX1,14,Pin_14*%
%TO.N,Net-(AUX1-Pin_14)*%
X110000000Y-91940000D03*
%TO.P,AUX1,13,Pin_13*%
%TO.N,Net-(AUX1-Pin_13)*%
X110000000Y-89400000D03*
%TO.P,AUX1,12,Pin_12*%
%TO.N,Net-(AUX1-Pin_12)*%
X110000000Y-86860000D03*
%TO.P,AUX1,11,Pin_11*%
%TO.N,Net-(AUX1-Pin_11)*%
X110000000Y-84320000D03*
%TO.P,AUX1,10,Pin_10*%
%TO.N,Net-(AUX1-Pin_10)*%
X110000000Y-81780000D03*
%TO.P,AUX1,9,Pin_9*%
%TO.N,Net-(AUX1-Pin_9)*%
X110000000Y-79240000D03*
%TO.P,AUX1,8,Pin_8*%
%TO.N,Net-(AUX1-Pin_8)*%
X110000000Y-76700000D03*
%TO.P,AUX1,7,Pin_7*%
%TO.N,Net-(AUX1-Pin_7)*%
X110000000Y-74160000D03*
%TO.P,AUX1,6,Pin_6*%
%TO.N,Net-(AUX1-Pin_6)*%
X110000000Y-71620000D03*
%TO.P,AUX1,5,Pin_5*%
%TO.N,Net-(AUX1-Pin_5)*%
X110000000Y-69080000D03*
%TO.P,AUX1,4,Pin_4*%
%TO.N,Net-(AUX1-Pin_4)*%
X110000000Y-66540000D03*
%TO.P,AUX1,3,Pin_3*%
%TO.N,Net-(AUX1-Pin_3)*%
X110000000Y-64000000D03*
%TO.P,AUX1,2,Pin_2*%
%TO.N,Net-(AUX1-Pin_2)*%
X110000000Y-61460000D03*
D11*
%TO.P,AUX1,1,Pin_1*%
%TO.N,Net-(AUX1-Pin_1)*%
X110000000Y-58920000D03*
%TD*%
%TO.P,AUX6,1,Pin_1*%
%TO.N,Net-(AUX10-Pin_1)*%
X138000000Y-58940000D03*
D10*
%TO.P,AUX6,2,Pin_2*%
%TO.N,Net-(AUX10-Pin_2)*%
X138000000Y-61480000D03*
%TO.P,AUX6,3,Pin_3*%
%TO.N,Net-(AUX10-Pin_3)*%
X138000000Y-64020000D03*
%TO.P,AUX6,4,Pin_4*%
%TO.N,Net-(AUX10-Pin_4)*%
X138000000Y-66560000D03*
%TO.P,AUX6,5,Pin_5*%
%TO.N,Net-(AUX10-Pin_5)*%
X138000000Y-69100000D03*
%TO.P,AUX6,6,Pin_6*%
%TO.N,Net-(AUX10-Pin_6)*%
X138000000Y-71640000D03*
%TO.P,AUX6,7,Pin_7*%
%TO.N,Net-(AUX10-Pin_7)*%
X138000000Y-74180000D03*
%TO.P,AUX6,8,Pin_8*%
%TO.N,Net-(AUX10-Pin_8)*%
X138000000Y-76720000D03*
%TO.P,AUX6,9,Pin_9*%
%TO.N,Net-(AUX10-Pin_9)*%
X138000000Y-79260000D03*
%TO.P,AUX6,10,Pin_10*%
%TO.N,Net-(AUX10-Pin_10)*%
X138000000Y-81800000D03*
%TO.P,AUX6,11,Pin_11*%
%TO.N,Net-(AUX10-Pin_11)*%
X138000000Y-84340000D03*
%TO.P,AUX6,12,Pin_12*%
%TO.N,Net-(AUX10-Pin_12)*%
X138000000Y-86880000D03*
%TO.P,AUX6,13,Pin_13*%
%TO.N,Net-(AUX10-Pin_13)*%
X138000000Y-89420000D03*
%TO.P,AUX6,14,Pin_14*%
%TO.N,Net-(AUX10-Pin_14)*%
X138000000Y-91960000D03*
%TO.P,AUX6,15,Pin_15*%
%TO.N,Net-(AUX10-Pin_15)*%
X138000000Y-94500000D03*
%TD*%
D11*
%TO.P,AUX5,1,Pin_1*%
%TO.N,Net-(AUX10-Pin_1)*%
X134000000Y-59000000D03*
D10*
%TO.P,AUX5,2,Pin_2*%
%TO.N,Net-(AUX10-Pin_2)*%
X134000000Y-61540000D03*
%TO.P,AUX5,3,Pin_3*%
%TO.N,Net-(AUX10-Pin_3)*%
X134000000Y-64080000D03*
%TO.P,AUX5,4,Pin_4*%
%TO.N,Net-(AUX10-Pin_4)*%
X134000000Y-66620000D03*
%TO.P,AUX5,5,Pin_5*%
%TO.N,Net-(AUX10-Pin_5)*%
X134000000Y-69160000D03*
%TO.P,AUX5,6,Pin_6*%
%TO.N,Net-(AUX10-Pin_6)*%
X134000000Y-71700000D03*
%TO.P,AUX5,7,Pin_7*%
%TO.N,Net-(AUX10-Pin_7)*%
X134000000Y-74240000D03*
%TO.P,AUX5,8,Pin_8*%
%TO.N,Net-(AUX10-Pin_8)*%
X134000000Y-76780000D03*
%TO.P,AUX5,9,Pin_9*%
%TO.N,Net-(AUX10-Pin_9)*%
X134000000Y-79320000D03*
%TO.P,AUX5,10,Pin_10*%
%TO.N,Net-(AUX10-Pin_10)*%
X134000000Y-81860000D03*
%TO.P,AUX5,11,Pin_11*%
%TO.N,Net-(AUX10-Pin_11)*%
X134000000Y-84400000D03*
%TO.P,AUX5,12,Pin_12*%
%TO.N,Net-(AUX10-Pin_12)*%
X134000000Y-86940000D03*
%TO.P,AUX5,13,Pin_13*%
%TO.N,Net-(AUX10-Pin_13)*%
X134000000Y-89480000D03*
%TO.P,AUX5,14,Pin_14*%
%TO.N,Net-(AUX10-Pin_14)*%
X134000000Y-92020000D03*
%TO.P,AUX5,15,Pin_15*%
%TO.N,Net-(AUX10-Pin_15)*%
X134000000Y-94560000D03*
%TD*%
D11*
%TO.P,AUX4,1,Pin_1*%
%TO.N,Net-(AUX10-Pin_1)*%
X130000000Y-59000000D03*
D10*
%TO.P,AUX4,2,Pin_2*%
%TO.N,Net-(AUX10-Pin_2)*%
X130000000Y-61540000D03*
%TO.P,AUX4,3,Pin_3*%
%TO.N,Net-(AUX10-Pin_3)*%
X130000000Y-64080000D03*
%TO.P,AUX4,4,Pin_4*%
%TO.N,Net-(AUX10-Pin_4)*%
X130000000Y-66620000D03*
%TO.P,AUX4,5,Pin_5*%
%TO.N,Net-(AUX10-Pin_5)*%
X130000000Y-69160000D03*
%TO.P,AUX4,6,Pin_6*%
%TO.N,Net-(AUX10-Pin_6)*%
X130000000Y-71700000D03*
%TO.P,AUX4,7,Pin_7*%
%TO.N,Net-(AUX10-Pin_7)*%
X130000000Y-74240000D03*
%TO.P,AUX4,8,Pin_8*%
%TO.N,Net-(AUX10-Pin_8)*%
X130000000Y-76780000D03*
%TO.P,AUX4,9,Pin_9*%
%TO.N,Net-(AUX10-Pin_9)*%
X130000000Y-79320000D03*
%TO.P,AUX4,10,Pin_10*%
%TO.N,Net-(AUX10-Pin_10)*%
X130000000Y-81860000D03*
%TO.P,AUX4,11,Pin_11*%
%TO.N,Net-(AUX10-Pin_11)*%
X130000000Y-84400000D03*
%TO.P,AUX4,12,Pin_12*%
%TO.N,Net-(AUX10-Pin_12)*%
X130000000Y-86940000D03*
%TO.P,AUX4,13,Pin_13*%
%TO.N,Net-(AUX10-Pin_13)*%
X130000000Y-89480000D03*
%TO.P,AUX4,14,Pin_14*%
%TO.N,Net-(AUX10-Pin_14)*%
X130000000Y-92020000D03*
%TO.P,AUX4,15,Pin_15*%
%TO.N,Net-(AUX10-Pin_15)*%
X130000000Y-94560000D03*
%TD*%
%TO.P,AUX3,15,Pin_15*%
%TO.N,Net-(AUX1-Pin_15)*%
X118000000Y-94560000D03*
%TO.P,AUX3,14,Pin_14*%
%TO.N,Net-(AUX1-Pin_14)*%
X118000000Y-92020000D03*
%TO.P,AUX3,13,Pin_13*%
%TO.N,Net-(AUX1-Pin_13)*%
X118000000Y-89480000D03*
%TO.P,AUX3,12,Pin_12*%
%TO.N,Net-(AUX1-Pin_12)*%
X118000000Y-86940000D03*
%TO.P,AUX3,11,Pin_11*%
%TO.N,Net-(AUX1-Pin_11)*%
X118000000Y-84400000D03*
%TO.P,AUX3,10,Pin_10*%
%TO.N,Net-(AUX1-Pin_10)*%
X118000000Y-81860000D03*
%TO.P,AUX3,9,Pin_9*%
%TO.N,Net-(AUX1-Pin_9)*%
X118000000Y-79320000D03*
%TO.P,AUX3,8,Pin_8*%
%TO.N,Net-(AUX1-Pin_8)*%
X118000000Y-76780000D03*
%TO.P,AUX3,7,Pin_7*%
%TO.N,Net-(AUX1-Pin_7)*%
X118000000Y-74240000D03*
%TO.P,AUX3,6,Pin_6*%
%TO.N,Net-(AUX1-Pin_6)*%
X118000000Y-71700000D03*
%TO.P,AUX3,5,Pin_5*%
%TO.N,Net-(AUX1-Pin_5)*%
X118000000Y-69160000D03*
%TO.P,AUX3,4,Pin_4*%
%TO.N,Net-(AUX1-Pin_4)*%
X118000000Y-66620000D03*
%TO.P,AUX3,3,Pin_3*%
%TO.N,Net-(AUX1-Pin_3)*%
X118000000Y-64080000D03*
%TO.P,AUX3,2,Pin_2*%
%TO.N,Net-(AUX1-Pin_2)*%
X118000000Y-61540000D03*
D11*
%TO.P,AUX3,1,Pin_1*%
%TO.N,Net-(AUX1-Pin_1)*%
X118000000Y-59000000D03*
%TD*%
D10*
%TO.P,AUX2,15,Pin_15*%
%TO.N,Net-(AUX1-Pin_15)*%
X114000000Y-94560000D03*
%TO.P,AUX2,14,Pin_14*%
%TO.N,Net-(AUX1-Pin_14)*%
X114000000Y-92020000D03*
%TO.P,AUX2,13,Pin_13*%
%TO.N,Net-(AUX1-Pin_13)*%
X114000000Y-89480000D03*
%TO.P,AUX2,12,Pin_12*%
%TO.N,Net-(AUX1-Pin_12)*%
X114000000Y-86940000D03*
%TO.P,AUX2,11,Pin_11*%
%TO.N,Net-(AUX1-Pin_11)*%
X114000000Y-84400000D03*
%TO.P,AUX2,10,Pin_10*%
%TO.N,Net-(AUX1-Pin_10)*%
X114000000Y-81860000D03*
%TO.P,AUX2,9,Pin_9*%
%TO.N,Net-(AUX1-Pin_9)*%
X114000000Y-79320000D03*
%TO.P,AUX2,8,Pin_8*%
%TO.N,Net-(AUX1-Pin_8)*%
X114000000Y-76780000D03*
%TO.P,AUX2,7,Pin_7*%
%TO.N,Net-(AUX1-Pin_7)*%
X114000000Y-74240000D03*
%TO.P,AUX2,6,Pin_6*%
%TO.N,Net-(AUX1-Pin_6)*%
X114000000Y-71700000D03*
%TO.P,AUX2,5,Pin_5*%
%TO.N,Net-(AUX1-Pin_5)*%
X114000000Y-69160000D03*
%TO.P,AUX2,4,Pin_4*%
%TO.N,Net-(AUX1-Pin_4)*%
X114000000Y-66620000D03*
%TO.P,AUX2,3,Pin_3*%
%TO.N,Net-(AUX1-Pin_3)*%
X114000000Y-64080000D03*
%TO.P,AUX2,2,Pin_2*%
%TO.N,Net-(AUX1-Pin_2)*%
X114000000Y-61540000D03*
D11*
%TO.P,AUX2,1,Pin_1*%
%TO.N,Net-(AUX1-Pin_1)*%
X114000000Y-59000000D03*
%TD*%
%TO.P,AUX11,1,Pin_1*%
%TO.N,Net-(AUX10-Pin_1)*%
X126000000Y-59000000D03*
D10*
%TO.P,AUX11,2,Pin_2*%
%TO.N,Net-(AUX10-Pin_2)*%
X126000000Y-61540000D03*
%TO.P,AUX11,3,Pin_3*%
%TO.N,Net-(AUX10-Pin_3)*%
X126000000Y-64080000D03*
%TO.P,AUX11,4,Pin_4*%
%TO.N,Net-(AUX10-Pin_4)*%
X126000000Y-66620000D03*
%TO.P,AUX11,5,Pin_5*%
%TO.N,Net-(AUX10-Pin_5)*%
X126000000Y-69160000D03*
%TO.P,AUX11,6,Pin_6*%
%TO.N,Net-(AUX10-Pin_6)*%
X126000000Y-71700000D03*
%TO.P,AUX11,7,Pin_7*%
%TO.N,Net-(AUX10-Pin_7)*%
X126000000Y-74240000D03*
%TO.P,AUX11,8,Pin_8*%
%TO.N,Net-(AUX10-Pin_8)*%
X126000000Y-76780000D03*
%TO.P,AUX11,9,Pin_9*%
%TO.N,Net-(AUX10-Pin_9)*%
X126000000Y-79320000D03*
%TO.P,AUX11,10,Pin_10*%
%TO.N,Net-(AUX10-Pin_10)*%
X126000000Y-81860000D03*
%TO.P,AUX11,11,Pin_11*%
%TO.N,Net-(AUX10-Pin_11)*%
X126000000Y-84400000D03*
%TO.P,AUX11,12,Pin_12*%
%TO.N,Net-(AUX10-Pin_12)*%
X126000000Y-86940000D03*
%TO.P,AUX11,13,Pin_13*%
%TO.N,Net-(AUX10-Pin_13)*%
X126000000Y-89480000D03*
%TO.P,AUX11,14,Pin_14*%
%TO.N,Net-(AUX10-Pin_14)*%
X126000000Y-92020000D03*
%TO.P,AUX11,15,Pin_15*%
%TO.N,Net-(AUX10-Pin_15)*%
X126000000Y-94560000D03*
%TD*%
D12*
%TO.N,Net-(AUX10-Pin_1)*%
X146000000Y-59000000D02*
X126000000Y-59000000D01*
%TO.N,Net-(AUX10-Pin_15)*%
X126000000Y-94560000D02*
X146000000Y-94560000D01*
%TO.N,Net-(AUX10-Pin_14)*%
X126000000Y-92020000D02*
X146000000Y-92020000D01*
%TO.N,Net-(AUX10-Pin_13)*%
X126000000Y-89480000D02*
X146000000Y-89480000D01*
%TO.N,Net-(AUX10-Pin_12)*%
X126000000Y-86940000D02*
X146000000Y-86940000D01*
%TO.N,Net-(AUX10-Pin_11)*%
X126000000Y-84400000D02*
X146000000Y-84400000D01*
%TO.N,Net-(AUX10-Pin_10)*%
X126000000Y-81860000D02*
X146000000Y-81860000D01*
%TO.N,Net-(AUX10-Pin_9)*%
X126000000Y-79320000D02*
X146000000Y-79320000D01*
%TO.N,Net-(AUX10-Pin_8)*%
X126000000Y-76780000D02*
X146000000Y-76780000D01*
%TO.N,Net-(AUX10-Pin_7)*%
X126000000Y-74240000D02*
X146000000Y-74240000D01*
%TO.N,Net-(AUX10-Pin_6)*%
X126000000Y-71700000D02*
X146000000Y-71700000D01*
%TO.N,Net-(AUX10-Pin_5)*%
X146000000Y-69160000D02*
X126000000Y-69160000D01*
%TO.N,Net-(AUX10-Pin_4)*%
X126000000Y-66620000D02*
X146000000Y-66620000D01*
%TO.N,Net-(AUX10-Pin_3)*%
X126000000Y-64080000D02*
X146000000Y-64080000D01*
%TO.N,Net-(AUX10-Pin_2)*%
X126000000Y-61540000D02*
X146000000Y-61540000D01*
%TO.N,Net-(AUX1-Pin_15)*%
X102000000Y-94560000D02*
X122000000Y-94560000D01*
%TO.N,Net-(AUX1-Pin_14)*%
X102000000Y-92020000D02*
X122000000Y-92020000D01*
%TO.N,Net-(AUX1-Pin_13)*%
X102000000Y-89480000D02*
X122000000Y-89480000D01*
%TO.N,Net-(AUX1-Pin_12)*%
X102000000Y-86940000D02*
X122000000Y-86940000D01*
%TO.N,Net-(AUX1-Pin_11)*%
X102000000Y-84400000D02*
X122000000Y-84400000D01*
%TO.N,Net-(AUX1-Pin_10)*%
X102000000Y-81860000D02*
X122000000Y-81860000D01*
%TO.N,Net-(AUX1-Pin_9)*%
X102000000Y-79320000D02*
X122000000Y-79320000D01*
%TO.N,Net-(AUX1-Pin_8)*%
X102000000Y-76780000D02*
X122000000Y-76780000D01*
%TO.N,Net-(AUX1-Pin_7)*%
X102000000Y-74240000D02*
X122000000Y-74240000D01*
%TO.N,Net-(AUX1-Pin_6)*%
X102000000Y-71700000D02*
X122000000Y-71700000D01*
%TO.N,Net-(AUX1-Pin_5)*%
X102000000Y-69160000D02*
X122000000Y-69160000D01*
%TO.N,Net-(AUX1-Pin_4)*%
X102000000Y-66620000D02*
X122000000Y-66620000D01*
%TO.N,Net-(AUX1-Pin_3)*%
X102000000Y-64080000D02*
X122000000Y-64080000D01*
%TO.N,Net-(AUX1-Pin_2)*%
X102000000Y-61540000D02*
X122000000Y-61540000D01*
%TO.N,Net-(AUX1-Pin_1)*%
X102000000Y-59000000D02*
X122000000Y-59000000D01*
%TD*%
M02*
