M48
; DRILL file {KiCad 9.0.7} date 2026-03-26T17:40:31+0100
; FORMAT={-:-/ absolute / metric / decimal}
; #@! TF.CreationDate,2026-03-26T17:40:31+01:00
; #@! TF.GenerationSoftware,Kicad,Pcbnew,9.0.7
; #@! TF.FileFunction,Plated,1,2,PTH
FMAT,2
METRIC
; #@! TA.AperFunction,Plated,PTH,ComponentDrill
T1C1.000
%
G90
G05
T1
X102.0Y-59.0
X102.0Y-61.54
X102.0Y-64.08
X102.0Y-66.62
X102.0Y-69.16
X102.0Y-71.7
X102.0Y-74.24
X102.0Y-76.78
X102.0Y-79.32
X102.0Y-81.86
X102.0Y-84.4
X102.0Y-86.94
X102.0Y-89.48
X102.0Y-92.02
X102.0Y-94.56
X106.0Y-59.0
X106.0Y-61.54
X106.0Y-64.08
X106.0Y-66.62
X106.0Y-69.16
X106.0Y-71.7
X106.0Y-74.24
X106.0Y-76.78
X106.0Y-79.32
X106.0Y-81.86
X106.0Y-84.4
X106.0Y-86.94
X106.0Y-89.48
X106.0Y-92.02
X106.0Y-94.56
X110.0Y-58.92
X110.0Y-61.46
X110.0Y-64.0
X110.0Y-66.54
X110.0Y-69.08
X110.0Y-71.62
X110.0Y-74.16
X110.0Y-76.7
X110.0Y-79.24
X110.0Y-81.78
X110.0Y-84.32
X110.0Y-86.86
X110.0Y-89.4
X110.0Y-91.94
X110.0Y-94.48
X114.0Y-59.0
X114.0Y-61.54
X114.0Y-64.08
X114.0Y-66.62
X114.0Y-69.16
X114.0Y-71.7
X114.0Y-74.24
X114.0Y-76.78
X114.0Y-79.32
X114.0Y-81.86
X114.0Y-84.4
X114.0Y-86.94
X114.0Y-89.48
X114.0Y-92.02
X114.0Y-94.56
X118.0Y-59.0
X118.0Y-61.54
X118.0Y-64.08
X118.0Y-66.62
X118.0Y-69.16
X118.0Y-71.7
X118.0Y-74.24
X118.0Y-76.78
X118.0Y-79.32
X118.0Y-81.86
X118.0Y-84.4
X118.0Y-86.94
X118.0Y-89.48
X118.0Y-92.02
X118.0Y-94.56
X122.0Y-59.0
X122.0Y-61.54
X122.0Y-64.08
X122.0Y-66.62
X122.0Y-69.16
X122.0Y-71.7
X122.0Y-74.24
X122.0Y-76.78
X122.0Y-79.32
X122.0Y-81.86
X122.0Y-84.4
X122.0Y-86.94
X122.0Y-89.48
X122.0Y-92.02
X122.0Y-94.56
X126.0Y-59.0
X126.0Y-61.54
X126.0Y-64.08
X126.0Y-66.62
X126.0Y-69.16
X126.0Y-71.7
X126.0Y-74.24
X126.0Y-76.78
X126.0Y-79.32
X126.0Y-81.86
X126.0Y-84.4
X126.0Y-86.94
X126.0Y-89.48
X126.0Y-92.02
X126.0Y-94.56
X130.0Y-59.0
X130.0Y-61.54
X130.0Y-64.08
X130.0Y-66.62
X130.0Y-69.16
X130.0Y-71.7
X130.0Y-74.24
X130.0Y-76.78
X130.0Y-79.32
X130.0Y-81.86
X130.0Y-84.4
X130.0Y-86.94
X130.0Y-89.48
X130.0Y-92.02
X130.0Y-94.56
X134.0Y-59.0
X134.0Y-61.54
X134.0Y-64.08
X134.0Y-66.62
X134.0Y-69.16
X134.0Y-71.7
X134.0Y-74.24
X134.0Y-76.78
X134.0Y-79.32
X134.0Y-81.86
X134.0Y-84.4
X134.0Y-86.94
X134.0Y-89.48
X134.0Y-92.02
X134.0Y-94.56
X138.0Y-58.94
X138.0Y-61.48
X138.0Y-64.02
X138.0Y-66.56
X138.0Y-69.1
X138.0Y-71.64
X138.0Y-74.18
X138.0Y-76.72
X138.0Y-79.26
X138.0Y-81.8
X138.0Y-84.34
X138.0Y-86.88
X138.0Y-89.42
X138.0Y-91.96
X138.0Y-94.5
X142.0Y-59.0
X142.0Y-61.54
X142.0Y-64.08
X142.0Y-66.62
X142.0Y-69.16
X142.0Y-71.7
X142.0Y-74.24
X142.0Y-76.78
X142.0Y-79.32
X142.0Y-81.86
X142.0Y-84.4
X142.0Y-86.94
X142.0Y-89.48
X142.0Y-92.02
X142.0Y-94.56
X146.0Y-59.0
X146.0Y-61.54
X146.0Y-64.08
X146.0Y-66.62
X146.0Y-69.16
X146.0Y-71.7
X146.0Y-74.24
X146.0Y-76.78
X146.0Y-79.32
X146.0Y-81.86
X146.0Y-84.4
X146.0Y-86.94
X146.0Y-89.48
X146.0Y-92.02
X146.0Y-94.56
M30
