%TF.GenerationSoftware,KiCad,Pcbnew,9.0.7*%
%TF.CreationDate,2026-03-26T17:40:56+01:00*%
%TF.ProjectId,board_adaptor,626f6172-645f-4616-9461-70746f722e6b,rev?*%
%TF.SameCoordinates,Original*%
%TF.FileFunction,Soldermask,Bot*%
%TF.FilePolarity,Negative*%
%FSLAX46Y46*%
G04 Gerber Fmt 4.6, Leading zero omitted, Abs format (unit mm)*
G04 Created by KiCad (PCBNEW 9.0.7) date 2026-03-26 17:40:56*
%MOMM*%
%LPD*%
G01*
G04 APERTURE LIST*
%ADD10C,1.700000*%
%ADD11R,1.700000X1.700000*%
G04 APERTURE END LIST*
D10*
%TO.C,AUX12*%
X146000000Y-94560000D03*
X146000000Y-92020000D03*
X146000000Y-89480000D03*
X146000000Y-86940000D03*
X146000000Y-84400000D03*
X146000000Y-81860000D03*
X146000000Y-79320000D03*
X146000000Y-76780000D03*
X146000000Y-74240000D03*
X146000000Y-71700000D03*
X146000000Y-69160000D03*
X146000000Y-66620000D03*
X146000000Y-64080000D03*
X146000000Y-61540000D03*
D11*
X146000000Y-59000000D03*
%TD*%
%TO.C,AUX10*%
X142000000Y-59000000D03*
D10*
X142000000Y-61540000D03*
X142000000Y-64080000D03*
X142000000Y-66620000D03*
X142000000Y-69160000D03*
X142000000Y-71700000D03*
X142000000Y-74240000D03*
X142000000Y-76780000D03*
X142000000Y-79320000D03*
X142000000Y-81860000D03*
X142000000Y-84400000D03*
X142000000Y-86940000D03*
X142000000Y-89480000D03*
X142000000Y-92020000D03*
X142000000Y-94560000D03*
%TD*%
D11*
%TO.C,AUX9*%
X106000000Y-59000000D03*
D10*
X106000000Y-61540000D03*
X106000000Y-64080000D03*
X106000000Y-66620000D03*
X106000000Y-69160000D03*
X106000000Y-71700000D03*
X106000000Y-74240000D03*
X106000000Y-76780000D03*
X106000000Y-79320000D03*
X106000000Y-81860000D03*
X106000000Y-84400000D03*
X106000000Y-86940000D03*
X106000000Y-89480000D03*
X106000000Y-92020000D03*
X106000000Y-94560000D03*
%TD*%
D11*
%TO.C,AUX8*%
X102000000Y-59000000D03*
D10*
X102000000Y-61540000D03*
X102000000Y-64080000D03*
X102000000Y-66620000D03*
X102000000Y-69160000D03*
X102000000Y-71700000D03*
X102000000Y-74240000D03*
X102000000Y-76780000D03*
X102000000Y-79320000D03*
X102000000Y-81860000D03*
X102000000Y-84400000D03*
X102000000Y-86940000D03*
X102000000Y-89480000D03*
X102000000Y-92020000D03*
X102000000Y-94560000D03*
%TD*%
D11*
%TO.C,AUX7*%
X122000000Y-59000000D03*
D10*
X122000000Y-61540000D03*
X122000000Y-64080000D03*
X122000000Y-66620000D03*
X122000000Y-69160000D03*
X122000000Y-71700000D03*
X122000000Y-74240000D03*
X122000000Y-76780000D03*
X122000000Y-79320000D03*
X122000000Y-81860000D03*
X122000000Y-84400000D03*
X122000000Y-86940000D03*
X122000000Y-89480000D03*
X122000000Y-92020000D03*
X122000000Y-94560000D03*
%TD*%
%TO.C,AUX1*%
X110000000Y-94480000D03*
X110000000Y-91940000D03*
X110000000Y-89400000D03*
X110000000Y-86860000D03*
X110000000Y-84320000D03*
X110000000Y-81780000D03*
X110000000Y-79240000D03*
X110000000Y-76700000D03*
X110000000Y-74160000D03*
X110000000Y-71620000D03*
X110000000Y-69080000D03*
X110000000Y-66540000D03*
X110000000Y-64000000D03*
X110000000Y-61460000D03*
D11*
X110000000Y-58920000D03*
%TD*%
%TO.C,AUX6*%
X138000000Y-58940000D03*
D10*
X138000000Y-61480000D03*
X138000000Y-64020000D03*
X138000000Y-66560000D03*
X138000000Y-69100000D03*
X138000000Y-71640000D03*
X138000000Y-74180000D03*
X138000000Y-76720000D03*
X138000000Y-79260000D03*
X138000000Y-81800000D03*
X138000000Y-84340000D03*
X138000000Y-86880000D03*
X138000000Y-89420000D03*
X138000000Y-91960000D03*
X138000000Y-94500000D03*
%TD*%
D11*
%TO.C,AUX5*%
X134000000Y-59000000D03*
D10*
X134000000Y-61540000D03*
X134000000Y-64080000D03*
X134000000Y-66620000D03*
X134000000Y-69160000D03*
X134000000Y-71700000D03*
X134000000Y-74240000D03*
X134000000Y-76780000D03*
X134000000Y-79320000D03*
X134000000Y-81860000D03*
X134000000Y-84400000D03*
X134000000Y-86940000D03*
X134000000Y-89480000D03*
X134000000Y-92020000D03*
X134000000Y-94560000D03*
%TD*%
D11*
%TO.C,AUX4*%
X130000000Y-59000000D03*
D10*
X130000000Y-61540000D03*
X130000000Y-64080000D03*
X130000000Y-66620000D03*
X130000000Y-69160000D03*
X130000000Y-71700000D03*
X130000000Y-74240000D03*
X130000000Y-76780000D03*
X130000000Y-79320000D03*
X130000000Y-81860000D03*
X130000000Y-84400000D03*
X130000000Y-86940000D03*
X130000000Y-89480000D03*
X130000000Y-92020000D03*
X130000000Y-94560000D03*
%TD*%
%TO.C,AUX3*%
X118000000Y-94560000D03*
X118000000Y-92020000D03*
X118000000Y-89480000D03*
X118000000Y-86940000D03*
X118000000Y-84400000D03*
X118000000Y-81860000D03*
X118000000Y-79320000D03*
X118000000Y-76780000D03*
X118000000Y-74240000D03*
X118000000Y-71700000D03*
X118000000Y-69160000D03*
X118000000Y-66620000D03*
X118000000Y-64080000D03*
X118000000Y-61540000D03*
D11*
X118000000Y-59000000D03*
%TD*%
D10*
%TO.C,AUX2*%
X114000000Y-94560000D03*
X114000000Y-92020000D03*
X114000000Y-89480000D03*
X114000000Y-86940000D03*
X114000000Y-84400000D03*
X114000000Y-81860000D03*
X114000000Y-79320000D03*
X114000000Y-76780000D03*
X114000000Y-74240000D03*
X114000000Y-71700000D03*
X114000000Y-69160000D03*
X114000000Y-66620000D03*
X114000000Y-64080000D03*
X114000000Y-61540000D03*
D11*
X114000000Y-59000000D03*
%TD*%
%TO.C,AUX11*%
X126000000Y-59000000D03*
D10*
X126000000Y-61540000D03*
X126000000Y-64080000D03*
X126000000Y-66620000D03*
X126000000Y-69160000D03*
X126000000Y-71700000D03*
X126000000Y-74240000D03*
X126000000Y-76780000D03*
X126000000Y-79320000D03*
X126000000Y-81860000D03*
X126000000Y-84400000D03*
X126000000Y-86940000D03*
X126000000Y-89480000D03*
X126000000Y-92020000D03*
X126000000Y-94560000D03*
%TD*%
M02*
