%TF.GenerationSoftware,KiCad,Pcbnew,9.0.7*%
%TF.CreationDate,2026-03-12T20:37:54+01:00*%
%TF.ProjectId,caraccel_10x10,63617261-6363-4656-9c5f-31307831302e,rev?*%
%TF.SameCoordinates,Original*%
%TF.FileFunction,Drillmap*%
%TF.FilePolarity,Positive*%
%FSLAX45Y45*%
G04 Gerber Fmt 4.5, Leading zero omitted, Abs format (unit mm)*
G04 Created by KiCad (PCBNEW 9.0.7) date 2026-03-12 20:37:54*
%MOMM*%
%LPD*%
G01*
G04 APERTURE LIST*
%ADD10C,0.050000*%
%ADD11C,0.200000*%
%ADD12C,0.100000*%
G04 APERTURE END LIST*
D10*
X10950000Y-2850000D02*
X20950000Y-2850000D01*
X20950000Y-12850000D01*
X10950000Y-12850000D01*
X10950000Y-2850000D01*
D11*
D12*
X12396000Y-3650000D02*
X12496000Y-3750000D01*
X12496000Y-3650000D02*
X12396000Y-3750000D01*
X12400000Y-8200000D02*
X12500000Y-8300000D01*
X12500000Y-8200000D02*
X12400000Y-8300000D01*
X12400000Y-10509000D02*
X12500000Y-10609000D01*
X12500000Y-10509000D02*
X12400000Y-10609000D01*
X12406000Y-11250000D02*
X12506000Y-11350000D01*
X12506000Y-11250000D02*
X12406000Y-11350000D01*
X12650000Y-3650000D02*
X12750000Y-3750000D01*
X12750000Y-3650000D02*
X12650000Y-3750000D01*
X12654000Y-8200000D02*
X12754000Y-8300000D01*
X12754000Y-8200000D02*
X12654000Y-8300000D01*
X12654000Y-10509000D02*
X12754000Y-10609000D01*
X12754000Y-10509000D02*
X12654000Y-10609000D01*
X12660000Y-11250000D02*
X12760000Y-11350000D01*
X12760000Y-11250000D02*
X12660000Y-11350000D01*
X12904000Y-3650000D02*
X13004000Y-3750000D01*
X13004000Y-3650000D02*
X12904000Y-3750000D01*
X12908000Y-8200000D02*
X13008000Y-8300000D01*
X13008000Y-8200000D02*
X12908000Y-8300000D01*
X12908000Y-10509000D02*
X13008000Y-10609000D01*
X13008000Y-10509000D02*
X12908000Y-10609000D01*
X12914000Y-11250000D02*
X13014000Y-11350000D01*
X13014000Y-11250000D02*
X12914000Y-11350000D01*
X13158000Y-3650000D02*
X13258000Y-3750000D01*
X13258000Y-3650000D02*
X13158000Y-3750000D01*
X13162000Y-8200000D02*
X13262000Y-8300000D01*
X13262000Y-8200000D02*
X13162000Y-8300000D01*
X13162000Y-10509000D02*
X13262000Y-10609000D01*
X13262000Y-10509000D02*
X13162000Y-10609000D01*
X13168000Y-11250000D02*
X13268000Y-11350000D01*
X13268000Y-11250000D02*
X13168000Y-11350000D01*
X13412000Y-3650000D02*
X13512000Y-3750000D01*
X13512000Y-3650000D02*
X13412000Y-3750000D01*
X13416000Y-8200000D02*
X13516000Y-8300000D01*
X13516000Y-8200000D02*
X13416000Y-8300000D01*
X13416000Y-10509000D02*
X13516000Y-10609000D01*
X13516000Y-10509000D02*
X13416000Y-10609000D01*
X13422000Y-11250000D02*
X13522000Y-11350000D01*
X13522000Y-11250000D02*
X13422000Y-11350000D01*
X13666000Y-3650000D02*
X13766000Y-3750000D01*
X13766000Y-3650000D02*
X13666000Y-3750000D01*
X13670000Y-8200000D02*
X13770000Y-8300000D01*
X13770000Y-8200000D02*
X13670000Y-8300000D01*
X13670000Y-10509000D02*
X13770000Y-10609000D01*
X13770000Y-10509000D02*
X13670000Y-10609000D01*
X13676000Y-11250000D02*
X13776000Y-11350000D01*
X13776000Y-11250000D02*
X13676000Y-11350000D01*
X13920000Y-3650000D02*
X14020000Y-3750000D01*
X14020000Y-3650000D02*
X13920000Y-3750000D01*
X13924000Y-8200000D02*
X14024000Y-8300000D01*
X14024000Y-8200000D02*
X13924000Y-8300000D01*
X13924000Y-10509000D02*
X14024000Y-10609000D01*
X14024000Y-10509000D02*
X13924000Y-10609000D01*
X13930000Y-11250000D02*
X14030000Y-11350000D01*
X14030000Y-11250000D02*
X13930000Y-11350000D01*
X14174000Y-3650000D02*
X14274000Y-3750000D01*
X14274000Y-3650000D02*
X14174000Y-3750000D01*
X14178000Y-8200000D02*
X14278000Y-8300000D01*
X14278000Y-8200000D02*
X14178000Y-8300000D01*
X14178000Y-10509000D02*
X14278000Y-10609000D01*
X14278000Y-10509000D02*
X14178000Y-10609000D01*
X14184000Y-11250000D02*
X14284000Y-11350000D01*
X14284000Y-11250000D02*
X14184000Y-11350000D01*
X14428000Y-3650000D02*
X14528000Y-3750000D01*
X14528000Y-3650000D02*
X14428000Y-3750000D01*
X14432000Y-8200000D02*
X14532000Y-8300000D01*
X14532000Y-8200000D02*
X14432000Y-8300000D01*
X14432000Y-10509000D02*
X14532000Y-10609000D01*
X14532000Y-10509000D02*
X14432000Y-10609000D01*
X14438000Y-11250000D02*
X14538000Y-11350000D01*
X14538000Y-11250000D02*
X14438000Y-11350000D01*
X14599000Y-12100000D02*
X14699000Y-12200000D01*
X14699000Y-12100000D02*
X14599000Y-12200000D01*
X14682000Y-3650000D02*
X14782000Y-3750000D01*
X14782000Y-3650000D02*
X14682000Y-3750000D01*
X14686000Y-8200000D02*
X14786000Y-8300000D01*
X14786000Y-8200000D02*
X14686000Y-8300000D01*
X14686000Y-10509000D02*
X14786000Y-10609000D01*
X14786000Y-10509000D02*
X14686000Y-10609000D01*
X14692000Y-11250000D02*
X14792000Y-11350000D01*
X14792000Y-11250000D02*
X14692000Y-11350000D01*
X14853000Y-12100000D02*
X14953000Y-12200000D01*
X14953000Y-12100000D02*
X14853000Y-12200000D01*
X14936000Y-3650000D02*
X15036000Y-3750000D01*
X15036000Y-3650000D02*
X14936000Y-3750000D01*
X14940000Y-8200000D02*
X15040000Y-8300000D01*
X15040000Y-8200000D02*
X14940000Y-8300000D01*
X14940000Y-10509000D02*
X15040000Y-10609000D01*
X15040000Y-10509000D02*
X14940000Y-10609000D01*
X14946000Y-11250000D02*
X15046000Y-11350000D01*
X15046000Y-11250000D02*
X14946000Y-11350000D01*
X15107000Y-12100000D02*
X15207000Y-12200000D01*
X15207000Y-12100000D02*
X15107000Y-12200000D01*
X15190000Y-3650000D02*
X15290000Y-3750000D01*
X15290000Y-3650000D02*
X15190000Y-3750000D01*
X15194000Y-8200000D02*
X15294000Y-8300000D01*
X15294000Y-8200000D02*
X15194000Y-8300000D01*
X15194000Y-10509000D02*
X15294000Y-10609000D01*
X15294000Y-10509000D02*
X15194000Y-10609000D01*
X15200000Y-11250000D02*
X15300000Y-11350000D01*
X15300000Y-11250000D02*
X15200000Y-11350000D01*
X15361000Y-12100000D02*
X15461000Y-12200000D01*
X15461000Y-12100000D02*
X15361000Y-12200000D01*
X15444000Y-3650000D02*
X15544000Y-3750000D01*
X15544000Y-3650000D02*
X15444000Y-3750000D01*
X15448000Y-8200000D02*
X15548000Y-8300000D01*
X15548000Y-8200000D02*
X15448000Y-8300000D01*
X15448000Y-10509000D02*
X15548000Y-10609000D01*
X15548000Y-10509000D02*
X15448000Y-10609000D01*
X15454000Y-11250000D02*
X15554000Y-11350000D01*
X15554000Y-11250000D02*
X15454000Y-11350000D01*
X15615000Y-12100000D02*
X15715000Y-12200000D01*
X15715000Y-12100000D02*
X15615000Y-12200000D01*
X15698000Y-3650000D02*
X15798000Y-3750000D01*
X15798000Y-3650000D02*
X15698000Y-3750000D01*
X15702000Y-8200000D02*
X15802000Y-8300000D01*
X15802000Y-8200000D02*
X15702000Y-8300000D01*
X15702000Y-10509000D02*
X15802000Y-10609000D01*
X15802000Y-10509000D02*
X15702000Y-10609000D01*
X15708000Y-11250000D02*
X15808000Y-11350000D01*
X15808000Y-11250000D02*
X15708000Y-11350000D01*
X15869000Y-12100000D02*
X15969000Y-12200000D01*
X15969000Y-12100000D02*
X15869000Y-12200000D01*
X15952000Y-3650000D02*
X16052000Y-3750000D01*
X16052000Y-3650000D02*
X15952000Y-3750000D01*
X15956000Y-8200000D02*
X16056000Y-8300000D01*
X16056000Y-8200000D02*
X15956000Y-8300000D01*
X15956000Y-10509000D02*
X16056000Y-10609000D01*
X16056000Y-10509000D02*
X15956000Y-10609000D01*
X15962000Y-11250000D02*
X16062000Y-11350000D01*
X16062000Y-11250000D02*
X15962000Y-11350000D01*
X16123000Y-12100000D02*
X16223000Y-12200000D01*
X16223000Y-12100000D02*
X16123000Y-12200000D01*
X16377000Y-12100000D02*
X16477000Y-12200000D01*
X16477000Y-12100000D02*
X16377000Y-12200000D01*
X16631000Y-12100000D02*
X16731000Y-12200000D01*
X16731000Y-12100000D02*
X16631000Y-12200000D01*
X16885000Y-12100000D02*
X16985000Y-12200000D01*
X16985000Y-12100000D02*
X16885000Y-12200000D01*
X17139000Y-12100000D02*
X17239000Y-12200000D01*
X17239000Y-12100000D02*
X17139000Y-12200000D01*
X17393000Y-12100000D02*
X17493000Y-12200000D01*
X17493000Y-12100000D02*
X17393000Y-12200000D01*
X17647000Y-12100000D02*
X17747000Y-12200000D01*
X17747000Y-12100000D02*
X17647000Y-12200000D01*
X17901000Y-12100000D02*
X18001000Y-12200000D01*
X18001000Y-12100000D02*
X17901000Y-12200000D01*
X20250000Y-4546000D02*
X20350000Y-4646000D01*
X20350000Y-4546000D02*
X20250000Y-4646000D01*
X20250000Y-4800000D02*
X20350000Y-4900000D01*
X20350000Y-4800000D02*
X20250000Y-4900000D01*
X20250000Y-5054000D02*
X20350000Y-5154000D01*
X20350000Y-5054000D02*
X20250000Y-5154000D01*
X20250000Y-5308000D02*
X20350000Y-5408000D01*
X20350000Y-5308000D02*
X20250000Y-5408000D01*
X20350000Y-9546000D02*
X20450000Y-9646000D01*
X20450000Y-9546000D02*
X20350000Y-9646000D01*
X20350000Y-9800000D02*
X20450000Y-9900000D01*
X20450000Y-9800000D02*
X20350000Y-9900000D01*
X20350000Y-10054000D02*
X20450000Y-10154000D01*
X20450000Y-10054000D02*
X20350000Y-10154000D01*
X20350000Y-10308000D02*
X20450000Y-10408000D01*
X20450000Y-10308000D02*
X20350000Y-10408000D01*
X20350000Y-10562000D02*
X20450000Y-10662000D01*
X20450000Y-10562000D02*
X20350000Y-10662000D01*
X20350000Y-10816000D02*
X20450000Y-10916000D01*
X20450000Y-10816000D02*
X20350000Y-10916000D01*
X20350000Y-11070000D02*
X20450000Y-11170000D01*
X20450000Y-11070000D02*
X20350000Y-11170000D01*
X20350000Y-11324000D02*
X20450000Y-11424000D01*
X20450000Y-11324000D02*
X20350000Y-11424000D01*
X20350000Y-11578000D02*
X20450000Y-11678000D01*
X20450000Y-11578000D02*
X20350000Y-11678000D01*
X20350000Y-11832000D02*
X20450000Y-11932000D01*
X20450000Y-11832000D02*
X20350000Y-11932000D01*
D11*
X11208277Y-13163984D02*
X11208277Y-12963984D01*
X11208277Y-12963984D02*
X11255896Y-12963984D01*
X11255896Y-12963984D02*
X11284467Y-12973508D01*
X11284467Y-12973508D02*
X11303515Y-12992555D01*
X11303515Y-12992555D02*
X11313039Y-13011603D01*
X11313039Y-13011603D02*
X11322562Y-13049698D01*
X11322562Y-13049698D02*
X11322562Y-13078269D01*
X11322562Y-13078269D02*
X11313039Y-13116365D01*
X11313039Y-13116365D02*
X11303515Y-13135412D01*
X11303515Y-13135412D02*
X11284467Y-13154460D01*
X11284467Y-13154460D02*
X11255896Y-13163984D01*
X11255896Y-13163984D02*
X11208277Y-13163984D01*
X11408277Y-13163984D02*
X11408277Y-13030650D01*
X11408277Y-13068746D02*
X11417801Y-13049698D01*
X11417801Y-13049698D02*
X11427324Y-13040174D01*
X11427324Y-13040174D02*
X11446372Y-13030650D01*
X11446372Y-13030650D02*
X11465420Y-13030650D01*
X11532086Y-13163984D02*
X11532086Y-13030650D01*
X11532086Y-12963984D02*
X11522562Y-12973508D01*
X11522562Y-12973508D02*
X11532086Y-12983031D01*
X11532086Y-12983031D02*
X11541610Y-12973508D01*
X11541610Y-12973508D02*
X11532086Y-12963984D01*
X11532086Y-12963984D02*
X11532086Y-12983031D01*
X11655896Y-13163984D02*
X11636848Y-13154460D01*
X11636848Y-13154460D02*
X11627324Y-13135412D01*
X11627324Y-13135412D02*
X11627324Y-12963984D01*
X11760658Y-13163984D02*
X11741610Y-13154460D01*
X11741610Y-13154460D02*
X11732086Y-13135412D01*
X11732086Y-13135412D02*
X11732086Y-12963984D01*
X11989229Y-13163984D02*
X11989229Y-12963984D01*
X11989229Y-12963984D02*
X12055896Y-13106841D01*
X12055896Y-13106841D02*
X12122562Y-12963984D01*
X12122562Y-12963984D02*
X12122562Y-13163984D01*
X12303515Y-13163984D02*
X12303515Y-13059222D01*
X12303515Y-13059222D02*
X12293991Y-13040174D01*
X12293991Y-13040174D02*
X12274943Y-13030650D01*
X12274943Y-13030650D02*
X12236848Y-13030650D01*
X12236848Y-13030650D02*
X12217801Y-13040174D01*
X12303515Y-13154460D02*
X12284467Y-13163984D01*
X12284467Y-13163984D02*
X12236848Y-13163984D01*
X12236848Y-13163984D02*
X12217801Y-13154460D01*
X12217801Y-13154460D02*
X12208277Y-13135412D01*
X12208277Y-13135412D02*
X12208277Y-13116365D01*
X12208277Y-13116365D02*
X12217801Y-13097317D01*
X12217801Y-13097317D02*
X12236848Y-13087793D01*
X12236848Y-13087793D02*
X12284467Y-13087793D01*
X12284467Y-13087793D02*
X12303515Y-13078269D01*
X12398753Y-13030650D02*
X12398753Y-13230650D01*
X12398753Y-13040174D02*
X12417801Y-13030650D01*
X12417801Y-13030650D02*
X12455896Y-13030650D01*
X12455896Y-13030650D02*
X12474943Y-13040174D01*
X12474943Y-13040174D02*
X12484467Y-13049698D01*
X12484467Y-13049698D02*
X12493991Y-13068746D01*
X12493991Y-13068746D02*
X12493991Y-13125888D01*
X12493991Y-13125888D02*
X12484467Y-13144936D01*
X12484467Y-13144936D02*
X12474943Y-13154460D01*
X12474943Y-13154460D02*
X12455896Y-13163984D01*
X12455896Y-13163984D02*
X12417801Y-13163984D01*
X12417801Y-13163984D02*
X12398753Y-13154460D01*
X12579705Y-13144936D02*
X12589229Y-13154460D01*
X12589229Y-13154460D02*
X12579705Y-13163984D01*
X12579705Y-13163984D02*
X12570182Y-13154460D01*
X12570182Y-13154460D02*
X12579705Y-13144936D01*
X12579705Y-13144936D02*
X12579705Y-13163984D01*
X12579705Y-13040174D02*
X12589229Y-13049698D01*
X12589229Y-13049698D02*
X12579705Y-13059222D01*
X12579705Y-13059222D02*
X12570182Y-13049698D01*
X12570182Y-13049698D02*
X12579705Y-13040174D01*
X12579705Y-13040174D02*
X12579705Y-13059222D01*
D12*
X10847500Y-13442500D02*
X10947500Y-13542500D01*
X10947500Y-13442500D02*
X10847500Y-13542500D01*
D11*
X11313039Y-13583984D02*
X11198753Y-13583984D01*
X11255896Y-13583984D02*
X11255896Y-13383984D01*
X11255896Y-13383984D02*
X11236848Y-13412555D01*
X11236848Y-13412555D02*
X11217801Y-13431603D01*
X11217801Y-13431603D02*
X11198753Y-13441127D01*
X11398753Y-13564936D02*
X11408277Y-13574460D01*
X11408277Y-13574460D02*
X11398753Y-13583984D01*
X11398753Y-13583984D02*
X11389229Y-13574460D01*
X11389229Y-13574460D02*
X11398753Y-13564936D01*
X11398753Y-13564936D02*
X11398753Y-13583984D01*
X11532086Y-13383984D02*
X11551134Y-13383984D01*
X11551134Y-13383984D02*
X11570182Y-13393508D01*
X11570182Y-13393508D02*
X11579705Y-13403031D01*
X11579705Y-13403031D02*
X11589229Y-13422079D01*
X11589229Y-13422079D02*
X11598753Y-13460174D01*
X11598753Y-13460174D02*
X11598753Y-13507793D01*
X11598753Y-13507793D02*
X11589229Y-13545888D01*
X11589229Y-13545888D02*
X11579705Y-13564936D01*
X11579705Y-13564936D02*
X11570182Y-13574460D01*
X11570182Y-13574460D02*
X11551134Y-13583984D01*
X11551134Y-13583984D02*
X11532086Y-13583984D01*
X11532086Y-13583984D02*
X11513039Y-13574460D01*
X11513039Y-13574460D02*
X11503515Y-13564936D01*
X11503515Y-13564936D02*
X11493991Y-13545888D01*
X11493991Y-13545888D02*
X11484467Y-13507793D01*
X11484467Y-13507793D02*
X11484467Y-13460174D01*
X11484467Y-13460174D02*
X11493991Y-13422079D01*
X11493991Y-13422079D02*
X11503515Y-13403031D01*
X11503515Y-13403031D02*
X11513039Y-13393508D01*
X11513039Y-13393508D02*
X11532086Y-13383984D01*
X11722562Y-13383984D02*
X11741610Y-13383984D01*
X11741610Y-13383984D02*
X11760658Y-13393508D01*
X11760658Y-13393508D02*
X11770182Y-13403031D01*
X11770182Y-13403031D02*
X11779705Y-13422079D01*
X11779705Y-13422079D02*
X11789229Y-13460174D01*
X11789229Y-13460174D02*
X11789229Y-13507793D01*
X11789229Y-13507793D02*
X11779705Y-13545888D01*
X11779705Y-13545888D02*
X11770182Y-13564936D01*
X11770182Y-13564936D02*
X11760658Y-13574460D01*
X11760658Y-13574460D02*
X11741610Y-13583984D01*
X11741610Y-13583984D02*
X11722562Y-13583984D01*
X11722562Y-13583984D02*
X11703515Y-13574460D01*
X11703515Y-13574460D02*
X11693991Y-13564936D01*
X11693991Y-13564936D02*
X11684467Y-13545888D01*
X11684467Y-13545888D02*
X11674943Y-13507793D01*
X11674943Y-13507793D02*
X11674943Y-13460174D01*
X11674943Y-13460174D02*
X11684467Y-13422079D01*
X11684467Y-13422079D02*
X11693991Y-13403031D01*
X11693991Y-13403031D02*
X11703515Y-13393508D01*
X11703515Y-13393508D02*
X11722562Y-13383984D01*
X11913039Y-13383984D02*
X11932086Y-13383984D01*
X11932086Y-13383984D02*
X11951134Y-13393508D01*
X11951134Y-13393508D02*
X11960658Y-13403031D01*
X11960658Y-13403031D02*
X11970182Y-13422079D01*
X11970182Y-13422079D02*
X11979705Y-13460174D01*
X11979705Y-13460174D02*
X11979705Y-13507793D01*
X11979705Y-13507793D02*
X11970182Y-13545888D01*
X11970182Y-13545888D02*
X11960658Y-13564936D01*
X11960658Y-13564936D02*
X11951134Y-13574460D01*
X11951134Y-13574460D02*
X11932086Y-13583984D01*
X11932086Y-13583984D02*
X11913039Y-13583984D01*
X11913039Y-13583984D02*
X11893991Y-13574460D01*
X11893991Y-13574460D02*
X11884467Y-13564936D01*
X11884467Y-13564936D02*
X11874943Y-13545888D01*
X11874943Y-13545888D02*
X11865420Y-13507793D01*
X11865420Y-13507793D02*
X11865420Y-13460174D01*
X11865420Y-13460174D02*
X11874943Y-13422079D01*
X11874943Y-13422079D02*
X11884467Y-13403031D01*
X11884467Y-13403031D02*
X11893991Y-13393508D01*
X11893991Y-13393508D02*
X11913039Y-13383984D01*
X12065420Y-13583984D02*
X12065420Y-13450650D01*
X12065420Y-13469698D02*
X12074943Y-13460174D01*
X12074943Y-13460174D02*
X12093991Y-13450650D01*
X12093991Y-13450650D02*
X12122563Y-13450650D01*
X12122563Y-13450650D02*
X12141610Y-13460174D01*
X12141610Y-13460174D02*
X12151134Y-13479222D01*
X12151134Y-13479222D02*
X12151134Y-13583984D01*
X12151134Y-13479222D02*
X12160658Y-13460174D01*
X12160658Y-13460174D02*
X12179705Y-13450650D01*
X12179705Y-13450650D02*
X12208277Y-13450650D01*
X12208277Y-13450650D02*
X12227324Y-13460174D01*
X12227324Y-13460174D02*
X12236848Y-13479222D01*
X12236848Y-13479222D02*
X12236848Y-13583984D01*
X12332086Y-13583984D02*
X12332086Y-13450650D01*
X12332086Y-13469698D02*
X12341610Y-13460174D01*
X12341610Y-13460174D02*
X12360658Y-13450650D01*
X12360658Y-13450650D02*
X12389229Y-13450650D01*
X12389229Y-13450650D02*
X12408277Y-13460174D01*
X12408277Y-13460174D02*
X12417801Y-13479222D01*
X12417801Y-13479222D02*
X12417801Y-13583984D01*
X12417801Y-13479222D02*
X12427324Y-13460174D01*
X12427324Y-13460174D02*
X12446372Y-13450650D01*
X12446372Y-13450650D02*
X12474943Y-13450650D01*
X12474943Y-13450650D02*
X12493991Y-13460174D01*
X12493991Y-13460174D02*
X12503515Y-13479222D01*
X12503515Y-13479222D02*
X12503515Y-13583984D01*
X12893991Y-13374460D02*
X12722563Y-13631603D01*
X13151134Y-13383984D02*
X13170182Y-13383984D01*
X13170182Y-13383984D02*
X13189229Y-13393508D01*
X13189229Y-13393508D02*
X13198753Y-13403031D01*
X13198753Y-13403031D02*
X13208277Y-13422079D01*
X13208277Y-13422079D02*
X13217801Y-13460174D01*
X13217801Y-13460174D02*
X13217801Y-13507793D01*
X13217801Y-13507793D02*
X13208277Y-13545888D01*
X13208277Y-13545888D02*
X13198753Y-13564936D01*
X13198753Y-13564936D02*
X13189229Y-13574460D01*
X13189229Y-13574460D02*
X13170182Y-13583984D01*
X13170182Y-13583984D02*
X13151134Y-13583984D01*
X13151134Y-13583984D02*
X13132086Y-13574460D01*
X13132086Y-13574460D02*
X13122563Y-13564936D01*
X13122563Y-13564936D02*
X13113039Y-13545888D01*
X13113039Y-13545888D02*
X13103515Y-13507793D01*
X13103515Y-13507793D02*
X13103515Y-13460174D01*
X13103515Y-13460174D02*
X13113039Y-13422079D01*
X13113039Y-13422079D02*
X13122563Y-13403031D01*
X13122563Y-13403031D02*
X13132086Y-13393508D01*
X13132086Y-13393508D02*
X13151134Y-13383984D01*
X13303515Y-13564936D02*
X13313039Y-13574460D01*
X13313039Y-13574460D02*
X13303515Y-13583984D01*
X13303515Y-13583984D02*
X13293991Y-13574460D01*
X13293991Y-13574460D02*
X13303515Y-13564936D01*
X13303515Y-13564936D02*
X13303515Y-13583984D01*
X13436848Y-13383984D02*
X13455896Y-13383984D01*
X13455896Y-13383984D02*
X13474944Y-13393508D01*
X13474944Y-13393508D02*
X13484467Y-13403031D01*
X13484467Y-13403031D02*
X13493991Y-13422079D01*
X13493991Y-13422079D02*
X13503515Y-13460174D01*
X13503515Y-13460174D02*
X13503515Y-13507793D01*
X13503515Y-13507793D02*
X13493991Y-13545888D01*
X13493991Y-13545888D02*
X13484467Y-13564936D01*
X13484467Y-13564936D02*
X13474944Y-13574460D01*
X13474944Y-13574460D02*
X13455896Y-13583984D01*
X13455896Y-13583984D02*
X13436848Y-13583984D01*
X13436848Y-13583984D02*
X13417801Y-13574460D01*
X13417801Y-13574460D02*
X13408277Y-13564936D01*
X13408277Y-13564936D02*
X13398753Y-13545888D01*
X13398753Y-13545888D02*
X13389229Y-13507793D01*
X13389229Y-13507793D02*
X13389229Y-13460174D01*
X13389229Y-13460174D02*
X13398753Y-13422079D01*
X13398753Y-13422079D02*
X13408277Y-13403031D01*
X13408277Y-13403031D02*
X13417801Y-13393508D01*
X13417801Y-13393508D02*
X13436848Y-13383984D01*
X13570182Y-13383984D02*
X13693991Y-13383984D01*
X13693991Y-13383984D02*
X13627325Y-13460174D01*
X13627325Y-13460174D02*
X13655896Y-13460174D01*
X13655896Y-13460174D02*
X13674944Y-13469698D01*
X13674944Y-13469698D02*
X13684467Y-13479222D01*
X13684467Y-13479222D02*
X13693991Y-13498269D01*
X13693991Y-13498269D02*
X13693991Y-13545888D01*
X13693991Y-13545888D02*
X13684467Y-13564936D01*
X13684467Y-13564936D02*
X13674944Y-13574460D01*
X13674944Y-13574460D02*
X13655896Y-13583984D01*
X13655896Y-13583984D02*
X13598753Y-13583984D01*
X13598753Y-13583984D02*
X13579706Y-13574460D01*
X13579706Y-13574460D02*
X13570182Y-13564936D01*
X13789229Y-13583984D02*
X13827325Y-13583984D01*
X13827325Y-13583984D02*
X13846372Y-13574460D01*
X13846372Y-13574460D02*
X13855896Y-13564936D01*
X13855896Y-13564936D02*
X13874944Y-13536365D01*
X13874944Y-13536365D02*
X13884467Y-13498269D01*
X13884467Y-13498269D02*
X13884467Y-13422079D01*
X13884467Y-13422079D02*
X13874944Y-13403031D01*
X13874944Y-13403031D02*
X13865420Y-13393508D01*
X13865420Y-13393508D02*
X13846372Y-13383984D01*
X13846372Y-13383984D02*
X13808277Y-13383984D01*
X13808277Y-13383984D02*
X13789229Y-13393508D01*
X13789229Y-13393508D02*
X13779706Y-13403031D01*
X13779706Y-13403031D02*
X13770182Y-13422079D01*
X13770182Y-13422079D02*
X13770182Y-13469698D01*
X13770182Y-13469698D02*
X13779706Y-13488746D01*
X13779706Y-13488746D02*
X13789229Y-13498269D01*
X13789229Y-13498269D02*
X13808277Y-13507793D01*
X13808277Y-13507793D02*
X13846372Y-13507793D01*
X13846372Y-13507793D02*
X13865420Y-13498269D01*
X13865420Y-13498269D02*
X13874944Y-13488746D01*
X13874944Y-13488746D02*
X13884467Y-13469698D01*
X14055896Y-13450650D02*
X14055896Y-13583984D01*
X14008277Y-13374460D02*
X13960658Y-13517317D01*
X13960658Y-13517317D02*
X14084467Y-13517317D01*
X14151134Y-13383984D02*
X14151134Y-13422079D01*
X14227325Y-13383984D02*
X14227325Y-13422079D01*
X14522563Y-13660174D02*
X14513039Y-13650650D01*
X14513039Y-13650650D02*
X14493991Y-13622079D01*
X14493991Y-13622079D02*
X14484468Y-13603031D01*
X14484468Y-13603031D02*
X14474944Y-13574460D01*
X14474944Y-13574460D02*
X14465420Y-13526841D01*
X14465420Y-13526841D02*
X14465420Y-13488746D01*
X14465420Y-13488746D02*
X14474944Y-13441127D01*
X14474944Y-13441127D02*
X14484468Y-13412555D01*
X14484468Y-13412555D02*
X14493991Y-13393508D01*
X14493991Y-13393508D02*
X14513039Y-13364936D01*
X14513039Y-13364936D02*
X14522563Y-13355412D01*
X14627325Y-13469698D02*
X14608277Y-13460174D01*
X14608277Y-13460174D02*
X14598753Y-13450650D01*
X14598753Y-13450650D02*
X14589229Y-13431603D01*
X14589229Y-13431603D02*
X14589229Y-13422079D01*
X14589229Y-13422079D02*
X14598753Y-13403031D01*
X14598753Y-13403031D02*
X14608277Y-13393508D01*
X14608277Y-13393508D02*
X14627325Y-13383984D01*
X14627325Y-13383984D02*
X14665420Y-13383984D01*
X14665420Y-13383984D02*
X14684468Y-13393508D01*
X14684468Y-13393508D02*
X14693991Y-13403031D01*
X14693991Y-13403031D02*
X14703515Y-13422079D01*
X14703515Y-13422079D02*
X14703515Y-13431603D01*
X14703515Y-13431603D02*
X14693991Y-13450650D01*
X14693991Y-13450650D02*
X14684468Y-13460174D01*
X14684468Y-13460174D02*
X14665420Y-13469698D01*
X14665420Y-13469698D02*
X14627325Y-13469698D01*
X14627325Y-13469698D02*
X14608277Y-13479222D01*
X14608277Y-13479222D02*
X14598753Y-13488746D01*
X14598753Y-13488746D02*
X14589229Y-13507793D01*
X14589229Y-13507793D02*
X14589229Y-13545888D01*
X14589229Y-13545888D02*
X14598753Y-13564936D01*
X14598753Y-13564936D02*
X14608277Y-13574460D01*
X14608277Y-13574460D02*
X14627325Y-13583984D01*
X14627325Y-13583984D02*
X14665420Y-13583984D01*
X14665420Y-13583984D02*
X14684468Y-13574460D01*
X14684468Y-13574460D02*
X14693991Y-13564936D01*
X14693991Y-13564936D02*
X14703515Y-13545888D01*
X14703515Y-13545888D02*
X14703515Y-13507793D01*
X14703515Y-13507793D02*
X14693991Y-13488746D01*
X14693991Y-13488746D02*
X14684468Y-13479222D01*
X14684468Y-13479222D02*
X14665420Y-13469698D01*
X14817801Y-13469698D02*
X14798753Y-13460174D01*
X14798753Y-13460174D02*
X14789229Y-13450650D01*
X14789229Y-13450650D02*
X14779706Y-13431603D01*
X14779706Y-13431603D02*
X14779706Y-13422079D01*
X14779706Y-13422079D02*
X14789229Y-13403031D01*
X14789229Y-13403031D02*
X14798753Y-13393508D01*
X14798753Y-13393508D02*
X14817801Y-13383984D01*
X14817801Y-13383984D02*
X14855896Y-13383984D01*
X14855896Y-13383984D02*
X14874944Y-13393508D01*
X14874944Y-13393508D02*
X14884468Y-13403031D01*
X14884468Y-13403031D02*
X14893991Y-13422079D01*
X14893991Y-13422079D02*
X14893991Y-13431603D01*
X14893991Y-13431603D02*
X14884468Y-13450650D01*
X14884468Y-13450650D02*
X14874944Y-13460174D01*
X14874944Y-13460174D02*
X14855896Y-13469698D01*
X14855896Y-13469698D02*
X14817801Y-13469698D01*
X14817801Y-13469698D02*
X14798753Y-13479222D01*
X14798753Y-13479222D02*
X14789229Y-13488746D01*
X14789229Y-13488746D02*
X14779706Y-13507793D01*
X14779706Y-13507793D02*
X14779706Y-13545888D01*
X14779706Y-13545888D02*
X14789229Y-13564936D01*
X14789229Y-13564936D02*
X14798753Y-13574460D01*
X14798753Y-13574460D02*
X14817801Y-13583984D01*
X14817801Y-13583984D02*
X14855896Y-13583984D01*
X14855896Y-13583984D02*
X14874944Y-13574460D01*
X14874944Y-13574460D02*
X14884468Y-13564936D01*
X14884468Y-13564936D02*
X14893991Y-13545888D01*
X14893991Y-13545888D02*
X14893991Y-13507793D01*
X14893991Y-13507793D02*
X14884468Y-13488746D01*
X14884468Y-13488746D02*
X14874944Y-13479222D01*
X14874944Y-13479222D02*
X14855896Y-13469698D01*
X15132087Y-13583984D02*
X15132087Y-13383984D01*
X15217801Y-13583984D02*
X15217801Y-13479222D01*
X15217801Y-13479222D02*
X15208277Y-13460174D01*
X15208277Y-13460174D02*
X15189230Y-13450650D01*
X15189230Y-13450650D02*
X15160658Y-13450650D01*
X15160658Y-13450650D02*
X15141610Y-13460174D01*
X15141610Y-13460174D02*
X15132087Y-13469698D01*
X15341610Y-13583984D02*
X15322563Y-13574460D01*
X15322563Y-13574460D02*
X15313039Y-13564936D01*
X15313039Y-13564936D02*
X15303515Y-13545888D01*
X15303515Y-13545888D02*
X15303515Y-13488746D01*
X15303515Y-13488746D02*
X15313039Y-13469698D01*
X15313039Y-13469698D02*
X15322563Y-13460174D01*
X15322563Y-13460174D02*
X15341610Y-13450650D01*
X15341610Y-13450650D02*
X15370182Y-13450650D01*
X15370182Y-13450650D02*
X15389230Y-13460174D01*
X15389230Y-13460174D02*
X15398753Y-13469698D01*
X15398753Y-13469698D02*
X15408277Y-13488746D01*
X15408277Y-13488746D02*
X15408277Y-13545888D01*
X15408277Y-13545888D02*
X15398753Y-13564936D01*
X15398753Y-13564936D02*
X15389230Y-13574460D01*
X15389230Y-13574460D02*
X15370182Y-13583984D01*
X15370182Y-13583984D02*
X15341610Y-13583984D01*
X15522563Y-13583984D02*
X15503515Y-13574460D01*
X15503515Y-13574460D02*
X15493991Y-13555412D01*
X15493991Y-13555412D02*
X15493991Y-13383984D01*
X15674944Y-13574460D02*
X15655896Y-13583984D01*
X15655896Y-13583984D02*
X15617801Y-13583984D01*
X15617801Y-13583984D02*
X15598753Y-13574460D01*
X15598753Y-13574460D02*
X15589230Y-13555412D01*
X15589230Y-13555412D02*
X15589230Y-13479222D01*
X15589230Y-13479222D02*
X15598753Y-13460174D01*
X15598753Y-13460174D02*
X15617801Y-13450650D01*
X15617801Y-13450650D02*
X15655896Y-13450650D01*
X15655896Y-13450650D02*
X15674944Y-13460174D01*
X15674944Y-13460174D02*
X15684468Y-13479222D01*
X15684468Y-13479222D02*
X15684468Y-13498269D01*
X15684468Y-13498269D02*
X15589230Y-13517317D01*
X15760658Y-13574460D02*
X15779706Y-13583984D01*
X15779706Y-13583984D02*
X15817801Y-13583984D01*
X15817801Y-13583984D02*
X15836849Y-13574460D01*
X15836849Y-13574460D02*
X15846372Y-13555412D01*
X15846372Y-13555412D02*
X15846372Y-13545888D01*
X15846372Y-13545888D02*
X15836849Y-13526841D01*
X15836849Y-13526841D02*
X15817801Y-13517317D01*
X15817801Y-13517317D02*
X15789230Y-13517317D01*
X15789230Y-13517317D02*
X15770182Y-13507793D01*
X15770182Y-13507793D02*
X15760658Y-13488746D01*
X15760658Y-13488746D02*
X15760658Y-13479222D01*
X15760658Y-13479222D02*
X15770182Y-13460174D01*
X15770182Y-13460174D02*
X15789230Y-13450650D01*
X15789230Y-13450650D02*
X15817801Y-13450650D01*
X15817801Y-13450650D02*
X15836849Y-13460174D01*
X15913039Y-13660174D02*
X15922563Y-13650650D01*
X15922563Y-13650650D02*
X15941611Y-13622079D01*
X15941611Y-13622079D02*
X15951134Y-13603031D01*
X15951134Y-13603031D02*
X15960658Y-13574460D01*
X15960658Y-13574460D02*
X15970182Y-13526841D01*
X15970182Y-13526841D02*
X15970182Y-13488746D01*
X15970182Y-13488746D02*
X15960658Y-13441127D01*
X15960658Y-13441127D02*
X15951134Y-13412555D01*
X15951134Y-13412555D02*
X15941611Y-13393508D01*
X15941611Y-13393508D02*
X15922563Y-13364936D01*
X15922563Y-13364936D02*
X15913039Y-13355412D01*
M02*
