M48
; DRILL file {KiCad 9.0.7} date 2026-03-12T20:37:54+0100
; FORMAT={-:-/ absolute / metric / decimal}
; #@! TF.CreationDate,2026-03-12T20:37:54+01:00
; #@! TF.GenerationSoftware,Kicad,Pcbnew,9.0.7
; #@! TF.FileFunction,Plated,1,2,PTH
FMAT,2
METRIC
; #@! TA.AperFunction,Plated,PTH,ComponentDrill
T1C1.000
%
G90
G05
T1
X124.46Y-37.0
X124.5Y-82.5
X124.5Y-105.59
X124.56Y-113.0
X127.0Y-37.0
X127.04Y-82.5
X127.04Y-105.59
X127.1Y-113.0
X129.54Y-37.0
X129.58Y-82.5
X129.58Y-105.59
X129.64Y-113.0
X132.08Y-37.0
X132.12Y-82.5
X132.12Y-105.59
X132.18Y-113.0
X134.62Y-37.0
X134.66Y-82.5
X134.66Y-105.59
X134.72Y-113.0
X137.16Y-37.0
X137.2Y-82.5
X137.2Y-105.59
X137.26Y-113.0
X139.7Y-37.0
X139.74Y-82.5
X139.74Y-105.59
X139.8Y-113.0
X142.24Y-37.0
X142.28Y-82.5
X142.28Y-105.59
X142.34Y-113.0
X144.78Y-37.0
X144.82Y-82.5
X144.82Y-105.59
X144.88Y-113.0
X146.49Y-121.5
X147.32Y-37.0
X147.36Y-82.5
X147.36Y-105.59
X147.42Y-113.0
X149.03Y-121.5
X149.86Y-37.0
X149.9Y-82.5
X149.9Y-105.59
X149.96Y-113.0
X151.57Y-121.5
X152.4Y-37.0
X152.44Y-82.5
X152.44Y-105.59
X152.5Y-113.0
X154.11Y-121.5
X154.94Y-37.0
X154.98Y-82.5
X154.98Y-105.59
X155.04Y-113.0
X156.65Y-121.5
X157.48Y-37.0
X157.52Y-82.5
X157.52Y-105.59
X157.58Y-113.0
X159.19Y-121.5
X160.02Y-37.0
X160.06Y-82.5
X160.06Y-105.59
X160.12Y-113.0
X161.73Y-121.5
X164.27Y-121.5
X166.81Y-121.5
X169.35Y-121.5
X171.89Y-121.5
X174.43Y-121.5
X176.97Y-121.5
X179.51Y-121.5
X203.0Y-45.96
X203.0Y-48.5
X203.0Y-51.04
X203.0Y-53.58
X204.0Y-95.96
X204.0Y-98.5
X204.0Y-101.04
X204.0Y-103.58
X204.0Y-106.12
X204.0Y-108.66
X204.0Y-111.2
X204.0Y-113.74
X204.0Y-116.28
X204.0Y-118.82
M30
