%TF.GenerationSoftware,KiCad,Pcbnew,9.0.7*%
%TF.CreationDate,2026-03-12T20:36:41+01:00*%
%TF.ProjectId,caraccel,63617261-6363-4656-9c2e-6b696361645f,rev?*%
%TF.SameCoordinates,Original*%
%TF.FileFunction,Drillmap*%
%TF.FilePolarity,Positive*%
%FSLAX45Y45*%
G04 Gerber Fmt 4.5, Leading zero omitted, Abs format (unit mm)*
G04 Created by KiCad (PCBNEW 9.0.7) date 2026-03-12 20:36:41*
%MOMM*%
%LPD*%
G01*
G04 APERTURE LIST*
%ADD10C,0.050000*%
%ADD11C,0.200000*%
%ADD12C,0.100000*%
G04 APERTURE END LIST*
D10*
X10950000Y-2850000D02*
X15950000Y-2850000D01*
X15950000Y-7850000D01*
X10950000Y-7850000D01*
X10950000Y-2850000D01*
D11*
D12*
X11096000Y-7600000D02*
X11196000Y-7700000D01*
X11196000Y-7600000D02*
X11096000Y-7700000D01*
X11100000Y-3050000D02*
X11200000Y-3150000D01*
X11200000Y-3050000D02*
X11100000Y-3150000D01*
X11350000Y-7600000D02*
X11450000Y-7700000D01*
X11450000Y-7600000D02*
X11350000Y-7700000D01*
X11354000Y-3050000D02*
X11454000Y-3150000D01*
X11454000Y-3050000D02*
X11354000Y-3150000D01*
X11604000Y-7600000D02*
X11704000Y-7700000D01*
X11704000Y-7600000D02*
X11604000Y-7700000D01*
X11608000Y-3050000D02*
X11708000Y-3150000D01*
X11708000Y-3050000D02*
X11608000Y-3150000D01*
X11858000Y-7600000D02*
X11958000Y-7700000D01*
X11958000Y-7600000D02*
X11858000Y-7700000D01*
X11862000Y-3050000D02*
X11962000Y-3150000D01*
X11962000Y-3050000D02*
X11862000Y-3150000D01*
X12034000Y-3600000D02*
X12134000Y-3700000D01*
X12134000Y-3600000D02*
X12034000Y-3700000D01*
X12050000Y-4500000D02*
X12150000Y-4600000D01*
X12150000Y-4500000D02*
X12050000Y-4600000D01*
X12050000Y-6300000D02*
X12150000Y-6400000D01*
X12150000Y-6300000D02*
X12050000Y-6400000D01*
X12050000Y-6809000D02*
X12150000Y-6909000D01*
X12150000Y-6809000D02*
X12050000Y-6909000D01*
X12116000Y-3050000D02*
X12216000Y-3150000D01*
X12216000Y-3050000D02*
X12116000Y-3150000D01*
X12288000Y-3600000D02*
X12388000Y-3700000D01*
X12388000Y-3600000D02*
X12288000Y-3700000D01*
X12304000Y-4500000D02*
X12404000Y-4600000D01*
X12404000Y-4500000D02*
X12304000Y-4600000D01*
X12304000Y-6300000D02*
X12404000Y-6400000D01*
X12404000Y-6300000D02*
X12304000Y-6400000D01*
X12304000Y-6809000D02*
X12404000Y-6909000D01*
X12404000Y-6809000D02*
X12304000Y-6909000D01*
X12310000Y-7600000D02*
X12410000Y-7700000D01*
X12410000Y-7600000D02*
X12310000Y-7700000D01*
X12370000Y-3050000D02*
X12470000Y-3150000D01*
X12470000Y-3050000D02*
X12370000Y-3150000D01*
X12542000Y-3600000D02*
X12642000Y-3700000D01*
X12642000Y-3600000D02*
X12542000Y-3700000D01*
X12558000Y-4500000D02*
X12658000Y-4600000D01*
X12658000Y-4500000D02*
X12558000Y-4600000D01*
X12558000Y-6300000D02*
X12658000Y-6400000D01*
X12658000Y-6300000D02*
X12558000Y-6400000D01*
X12558000Y-6809000D02*
X12658000Y-6909000D01*
X12658000Y-6809000D02*
X12558000Y-6909000D01*
X12564000Y-7600000D02*
X12664000Y-7700000D01*
X12664000Y-7600000D02*
X12564000Y-7700000D01*
X12624000Y-3050000D02*
X12724000Y-3150000D01*
X12724000Y-3050000D02*
X12624000Y-3150000D01*
X12796000Y-3600000D02*
X12896000Y-3700000D01*
X12896000Y-3600000D02*
X12796000Y-3700000D01*
X12812000Y-4500000D02*
X12912000Y-4600000D01*
X12912000Y-4500000D02*
X12812000Y-4600000D01*
X12812000Y-6300000D02*
X12912000Y-6400000D01*
X12912000Y-6300000D02*
X12812000Y-6400000D01*
X12812000Y-6809000D02*
X12912000Y-6909000D01*
X12912000Y-6809000D02*
X12812000Y-6909000D01*
X12818000Y-7600000D02*
X12918000Y-7700000D01*
X12918000Y-7600000D02*
X12818000Y-7700000D01*
X12878000Y-3050000D02*
X12978000Y-3150000D01*
X12978000Y-3050000D02*
X12878000Y-3150000D01*
X13050000Y-3600000D02*
X13150000Y-3700000D01*
X13150000Y-3600000D02*
X13050000Y-3700000D01*
X13066000Y-4500000D02*
X13166000Y-4600000D01*
X13166000Y-4500000D02*
X13066000Y-4600000D01*
X13066000Y-6300000D02*
X13166000Y-6400000D01*
X13166000Y-6300000D02*
X13066000Y-6400000D01*
X13066000Y-6809000D02*
X13166000Y-6909000D01*
X13166000Y-6809000D02*
X13066000Y-6909000D01*
X13072000Y-7600000D02*
X13172000Y-7700000D01*
X13172000Y-7600000D02*
X13072000Y-7700000D01*
X13132000Y-3050000D02*
X13232000Y-3150000D01*
X13232000Y-3050000D02*
X13132000Y-3150000D01*
X13304000Y-3600000D02*
X13404000Y-3700000D01*
X13404000Y-3600000D02*
X13304000Y-3700000D01*
X13320000Y-4500000D02*
X13420000Y-4600000D01*
X13420000Y-4500000D02*
X13320000Y-4600000D01*
X13320000Y-6300000D02*
X13420000Y-6400000D01*
X13420000Y-6300000D02*
X13320000Y-6400000D01*
X13320000Y-6809000D02*
X13420000Y-6909000D01*
X13420000Y-6809000D02*
X13320000Y-6909000D01*
X13326000Y-7600000D02*
X13426000Y-7700000D01*
X13426000Y-7600000D02*
X13326000Y-7700000D01*
X13386000Y-3050000D02*
X13486000Y-3150000D01*
X13486000Y-3050000D02*
X13386000Y-3150000D01*
X13558000Y-3600000D02*
X13658000Y-3700000D01*
X13658000Y-3600000D02*
X13558000Y-3700000D01*
X13574000Y-4500000D02*
X13674000Y-4600000D01*
X13674000Y-4500000D02*
X13574000Y-4600000D01*
X13574000Y-6300000D02*
X13674000Y-6400000D01*
X13674000Y-6300000D02*
X13574000Y-6400000D01*
X13574000Y-6809000D02*
X13674000Y-6909000D01*
X13674000Y-6809000D02*
X13574000Y-6909000D01*
X13580000Y-7600000D02*
X13680000Y-7700000D01*
X13680000Y-7600000D02*
X13580000Y-7700000D01*
X13812000Y-3600000D02*
X13912000Y-3700000D01*
X13912000Y-3600000D02*
X13812000Y-3700000D01*
X13828000Y-4500000D02*
X13928000Y-4600000D01*
X13928000Y-4500000D02*
X13828000Y-4600000D01*
X13828000Y-6300000D02*
X13928000Y-6400000D01*
X13928000Y-6300000D02*
X13828000Y-6400000D01*
X13828000Y-6809000D02*
X13928000Y-6909000D01*
X13928000Y-6809000D02*
X13828000Y-6909000D01*
X13834000Y-7600000D02*
X13934000Y-7700000D01*
X13934000Y-7600000D02*
X13834000Y-7700000D01*
X14066000Y-3600000D02*
X14166000Y-3700000D01*
X14166000Y-3600000D02*
X14066000Y-3700000D01*
X14082000Y-4500000D02*
X14182000Y-4600000D01*
X14182000Y-4500000D02*
X14082000Y-4600000D01*
X14082000Y-6300000D02*
X14182000Y-6400000D01*
X14182000Y-6300000D02*
X14082000Y-6400000D01*
X14082000Y-6809000D02*
X14182000Y-6909000D01*
X14182000Y-6809000D02*
X14082000Y-6909000D01*
X14088000Y-7600000D02*
X14188000Y-7700000D01*
X14188000Y-7600000D02*
X14088000Y-7700000D01*
X14320000Y-3600000D02*
X14420000Y-3700000D01*
X14420000Y-3600000D02*
X14320000Y-3700000D01*
X14336000Y-4500000D02*
X14436000Y-4600000D01*
X14436000Y-4500000D02*
X14336000Y-4600000D01*
X14336000Y-6300000D02*
X14436000Y-6400000D01*
X14436000Y-6300000D02*
X14336000Y-6400000D01*
X14336000Y-6809000D02*
X14436000Y-6909000D01*
X14436000Y-6809000D02*
X14336000Y-6909000D01*
X14342000Y-7600000D02*
X14442000Y-7700000D01*
X14442000Y-7600000D02*
X14342000Y-7700000D01*
X14574000Y-3600000D02*
X14674000Y-3700000D01*
X14674000Y-3600000D02*
X14574000Y-3700000D01*
X14590000Y-4500000D02*
X14690000Y-4600000D01*
X14690000Y-4500000D02*
X14590000Y-4600000D01*
X14590000Y-6300000D02*
X14690000Y-6400000D01*
X14690000Y-6300000D02*
X14590000Y-6400000D01*
X14590000Y-6809000D02*
X14690000Y-6909000D01*
X14690000Y-6809000D02*
X14590000Y-6909000D01*
X14596000Y-7600000D02*
X14696000Y-7700000D01*
X14696000Y-7600000D02*
X14596000Y-7700000D01*
X14828000Y-3600000D02*
X14928000Y-3700000D01*
X14928000Y-3600000D02*
X14828000Y-3700000D01*
X14844000Y-4500000D02*
X14944000Y-4600000D01*
X14944000Y-4500000D02*
X14844000Y-4600000D01*
X14844000Y-6300000D02*
X14944000Y-6400000D01*
X14944000Y-6300000D02*
X14844000Y-6400000D01*
X14844000Y-6809000D02*
X14944000Y-6909000D01*
X14944000Y-6809000D02*
X14844000Y-6909000D01*
X14850000Y-7600000D02*
X14950000Y-7700000D01*
X14950000Y-7600000D02*
X14850000Y-7700000D01*
X15082000Y-3600000D02*
X15182000Y-3700000D01*
X15182000Y-3600000D02*
X15082000Y-3700000D01*
X15098000Y-4500000D02*
X15198000Y-4600000D01*
X15198000Y-4500000D02*
X15098000Y-4600000D01*
X15098000Y-6300000D02*
X15198000Y-6400000D01*
X15198000Y-6300000D02*
X15098000Y-6400000D01*
X15098000Y-6809000D02*
X15198000Y-6909000D01*
X15198000Y-6809000D02*
X15098000Y-6909000D01*
X15104000Y-7600000D02*
X15204000Y-7700000D01*
X15204000Y-7600000D02*
X15104000Y-7700000D01*
X15336000Y-3600000D02*
X15436000Y-3700000D01*
X15436000Y-3600000D02*
X15336000Y-3700000D01*
X15352000Y-4500000D02*
X15452000Y-4600000D01*
X15452000Y-4500000D02*
X15352000Y-4600000D01*
X15352000Y-6300000D02*
X15452000Y-6400000D01*
X15452000Y-6300000D02*
X15352000Y-6400000D01*
X15352000Y-6809000D02*
X15452000Y-6909000D01*
X15452000Y-6809000D02*
X15352000Y-6909000D01*
X15358000Y-7600000D02*
X15458000Y-7700000D01*
X15458000Y-7600000D02*
X15358000Y-7700000D01*
X15590000Y-3600000D02*
X15690000Y-3700000D01*
X15690000Y-3600000D02*
X15590000Y-3700000D01*
X15606000Y-4500000D02*
X15706000Y-4600000D01*
X15706000Y-4500000D02*
X15606000Y-4600000D01*
X15606000Y-6300000D02*
X15706000Y-6400000D01*
X15706000Y-6300000D02*
X15606000Y-6400000D01*
X15606000Y-6809000D02*
X15706000Y-6909000D01*
X15706000Y-6809000D02*
X15606000Y-6909000D01*
X15612000Y-7600000D02*
X15712000Y-7700000D01*
X15712000Y-7600000D02*
X15612000Y-7700000D01*
D11*
X11208277Y-8163984D02*
X11208277Y-7963984D01*
X11208277Y-7963984D02*
X11255896Y-7963984D01*
X11255896Y-7963984D02*
X11284467Y-7973508D01*
X11284467Y-7973508D02*
X11303515Y-7992555D01*
X11303515Y-7992555D02*
X11313039Y-8011603D01*
X11313039Y-8011603D02*
X11322562Y-8049698D01*
X11322562Y-8049698D02*
X11322562Y-8078269D01*
X11322562Y-8078269D02*
X11313039Y-8116365D01*
X11313039Y-8116365D02*
X11303515Y-8135412D01*
X11303515Y-8135412D02*
X11284467Y-8154460D01*
X11284467Y-8154460D02*
X11255896Y-8163984D01*
X11255896Y-8163984D02*
X11208277Y-8163984D01*
X11408277Y-8163984D02*
X11408277Y-8030650D01*
X11408277Y-8068746D02*
X11417801Y-8049698D01*
X11417801Y-8049698D02*
X11427324Y-8040174D01*
X11427324Y-8040174D02*
X11446372Y-8030650D01*
X11446372Y-8030650D02*
X11465420Y-8030650D01*
X11532086Y-8163984D02*
X11532086Y-8030650D01*
X11532086Y-7963984D02*
X11522562Y-7973508D01*
X11522562Y-7973508D02*
X11532086Y-7983031D01*
X11532086Y-7983031D02*
X11541610Y-7973508D01*
X11541610Y-7973508D02*
X11532086Y-7963984D01*
X11532086Y-7963984D02*
X11532086Y-7983031D01*
X11655896Y-8163984D02*
X11636848Y-8154460D01*
X11636848Y-8154460D02*
X11627324Y-8135412D01*
X11627324Y-8135412D02*
X11627324Y-7963984D01*
X11760658Y-8163984D02*
X11741610Y-8154460D01*
X11741610Y-8154460D02*
X11732086Y-8135412D01*
X11732086Y-8135412D02*
X11732086Y-7963984D01*
X11989229Y-8163984D02*
X11989229Y-7963984D01*
X11989229Y-7963984D02*
X12055896Y-8106841D01*
X12055896Y-8106841D02*
X12122562Y-7963984D01*
X12122562Y-7963984D02*
X12122562Y-8163984D01*
X12303515Y-8163984D02*
X12303515Y-8059222D01*
X12303515Y-8059222D02*
X12293991Y-8040174D01*
X12293991Y-8040174D02*
X12274943Y-8030650D01*
X12274943Y-8030650D02*
X12236848Y-8030650D01*
X12236848Y-8030650D02*
X12217801Y-8040174D01*
X12303515Y-8154460D02*
X12284467Y-8163984D01*
X12284467Y-8163984D02*
X12236848Y-8163984D01*
X12236848Y-8163984D02*
X12217801Y-8154460D01*
X12217801Y-8154460D02*
X12208277Y-8135412D01*
X12208277Y-8135412D02*
X12208277Y-8116365D01*
X12208277Y-8116365D02*
X12217801Y-8097317D01*
X12217801Y-8097317D02*
X12236848Y-8087793D01*
X12236848Y-8087793D02*
X12284467Y-8087793D01*
X12284467Y-8087793D02*
X12303515Y-8078269D01*
X12398753Y-8030650D02*
X12398753Y-8230650D01*
X12398753Y-8040174D02*
X12417801Y-8030650D01*
X12417801Y-8030650D02*
X12455896Y-8030650D01*
X12455896Y-8030650D02*
X12474943Y-8040174D01*
X12474943Y-8040174D02*
X12484467Y-8049698D01*
X12484467Y-8049698D02*
X12493991Y-8068746D01*
X12493991Y-8068746D02*
X12493991Y-8125888D01*
X12493991Y-8125888D02*
X12484467Y-8144936D01*
X12484467Y-8144936D02*
X12474943Y-8154460D01*
X12474943Y-8154460D02*
X12455896Y-8163984D01*
X12455896Y-8163984D02*
X12417801Y-8163984D01*
X12417801Y-8163984D02*
X12398753Y-8154460D01*
X12579705Y-8144936D02*
X12589229Y-8154460D01*
X12589229Y-8154460D02*
X12579705Y-8163984D01*
X12579705Y-8163984D02*
X12570182Y-8154460D01*
X12570182Y-8154460D02*
X12579705Y-8144936D01*
X12579705Y-8144936D02*
X12579705Y-8163984D01*
X12579705Y-8040174D02*
X12589229Y-8049698D01*
X12589229Y-8049698D02*
X12579705Y-8059222D01*
X12579705Y-8059222D02*
X12570182Y-8049698D01*
X12570182Y-8049698D02*
X12579705Y-8040174D01*
X12579705Y-8040174D02*
X12579705Y-8059222D01*
D12*
X10847500Y-8442500D02*
X10947500Y-8542500D01*
X10947500Y-8442500D02*
X10847500Y-8542500D01*
D11*
X11313039Y-8583984D02*
X11198753Y-8583984D01*
X11255896Y-8583984D02*
X11255896Y-8383984D01*
X11255896Y-8383984D02*
X11236848Y-8412555D01*
X11236848Y-8412555D02*
X11217801Y-8431603D01*
X11217801Y-8431603D02*
X11198753Y-8441127D01*
X11398753Y-8564936D02*
X11408277Y-8574460D01*
X11408277Y-8574460D02*
X11398753Y-8583984D01*
X11398753Y-8583984D02*
X11389229Y-8574460D01*
X11389229Y-8574460D02*
X11398753Y-8564936D01*
X11398753Y-8564936D02*
X11398753Y-8583984D01*
X11532086Y-8383984D02*
X11551134Y-8383984D01*
X11551134Y-8383984D02*
X11570182Y-8393508D01*
X11570182Y-8393508D02*
X11579705Y-8403031D01*
X11579705Y-8403031D02*
X11589229Y-8422079D01*
X11589229Y-8422079D02*
X11598753Y-8460174D01*
X11598753Y-8460174D02*
X11598753Y-8507793D01*
X11598753Y-8507793D02*
X11589229Y-8545889D01*
X11589229Y-8545889D02*
X11579705Y-8564936D01*
X11579705Y-8564936D02*
X11570182Y-8574460D01*
X11570182Y-8574460D02*
X11551134Y-8583984D01*
X11551134Y-8583984D02*
X11532086Y-8583984D01*
X11532086Y-8583984D02*
X11513039Y-8574460D01*
X11513039Y-8574460D02*
X11503515Y-8564936D01*
X11503515Y-8564936D02*
X11493991Y-8545889D01*
X11493991Y-8545889D02*
X11484467Y-8507793D01*
X11484467Y-8507793D02*
X11484467Y-8460174D01*
X11484467Y-8460174D02*
X11493991Y-8422079D01*
X11493991Y-8422079D02*
X11503515Y-8403031D01*
X11503515Y-8403031D02*
X11513039Y-8393508D01*
X11513039Y-8393508D02*
X11532086Y-8383984D01*
X11722562Y-8383984D02*
X11741610Y-8383984D01*
X11741610Y-8383984D02*
X11760658Y-8393508D01*
X11760658Y-8393508D02*
X11770182Y-8403031D01*
X11770182Y-8403031D02*
X11779705Y-8422079D01*
X11779705Y-8422079D02*
X11789229Y-8460174D01*
X11789229Y-8460174D02*
X11789229Y-8507793D01*
X11789229Y-8507793D02*
X11779705Y-8545889D01*
X11779705Y-8545889D02*
X11770182Y-8564936D01*
X11770182Y-8564936D02*
X11760658Y-8574460D01*
X11760658Y-8574460D02*
X11741610Y-8583984D01*
X11741610Y-8583984D02*
X11722562Y-8583984D01*
X11722562Y-8583984D02*
X11703515Y-8574460D01*
X11703515Y-8574460D02*
X11693991Y-8564936D01*
X11693991Y-8564936D02*
X11684467Y-8545889D01*
X11684467Y-8545889D02*
X11674943Y-8507793D01*
X11674943Y-8507793D02*
X11674943Y-8460174D01*
X11674943Y-8460174D02*
X11684467Y-8422079D01*
X11684467Y-8422079D02*
X11693991Y-8403031D01*
X11693991Y-8403031D02*
X11703515Y-8393508D01*
X11703515Y-8393508D02*
X11722562Y-8383984D01*
X11913039Y-8383984D02*
X11932086Y-8383984D01*
X11932086Y-8383984D02*
X11951134Y-8393508D01*
X11951134Y-8393508D02*
X11960658Y-8403031D01*
X11960658Y-8403031D02*
X11970182Y-8422079D01*
X11970182Y-8422079D02*
X11979705Y-8460174D01*
X11979705Y-8460174D02*
X11979705Y-8507793D01*
X11979705Y-8507793D02*
X11970182Y-8545889D01*
X11970182Y-8545889D02*
X11960658Y-8564936D01*
X11960658Y-8564936D02*
X11951134Y-8574460D01*
X11951134Y-8574460D02*
X11932086Y-8583984D01*
X11932086Y-8583984D02*
X11913039Y-8583984D01*
X11913039Y-8583984D02*
X11893991Y-8574460D01*
X11893991Y-8574460D02*
X11884467Y-8564936D01*
X11884467Y-8564936D02*
X11874943Y-8545889D01*
X11874943Y-8545889D02*
X11865420Y-8507793D01*
X11865420Y-8507793D02*
X11865420Y-8460174D01*
X11865420Y-8460174D02*
X11874943Y-8422079D01*
X11874943Y-8422079D02*
X11884467Y-8403031D01*
X11884467Y-8403031D02*
X11893991Y-8393508D01*
X11893991Y-8393508D02*
X11913039Y-8383984D01*
X12065420Y-8583984D02*
X12065420Y-8450650D01*
X12065420Y-8469698D02*
X12074943Y-8460174D01*
X12074943Y-8460174D02*
X12093991Y-8450650D01*
X12093991Y-8450650D02*
X12122563Y-8450650D01*
X12122563Y-8450650D02*
X12141610Y-8460174D01*
X12141610Y-8460174D02*
X12151134Y-8479222D01*
X12151134Y-8479222D02*
X12151134Y-8583984D01*
X12151134Y-8479222D02*
X12160658Y-8460174D01*
X12160658Y-8460174D02*
X12179705Y-8450650D01*
X12179705Y-8450650D02*
X12208277Y-8450650D01*
X12208277Y-8450650D02*
X12227324Y-8460174D01*
X12227324Y-8460174D02*
X12236848Y-8479222D01*
X12236848Y-8479222D02*
X12236848Y-8583984D01*
X12332086Y-8583984D02*
X12332086Y-8450650D01*
X12332086Y-8469698D02*
X12341610Y-8460174D01*
X12341610Y-8460174D02*
X12360658Y-8450650D01*
X12360658Y-8450650D02*
X12389229Y-8450650D01*
X12389229Y-8450650D02*
X12408277Y-8460174D01*
X12408277Y-8460174D02*
X12417801Y-8479222D01*
X12417801Y-8479222D02*
X12417801Y-8583984D01*
X12417801Y-8479222D02*
X12427324Y-8460174D01*
X12427324Y-8460174D02*
X12446372Y-8450650D01*
X12446372Y-8450650D02*
X12474943Y-8450650D01*
X12474943Y-8450650D02*
X12493991Y-8460174D01*
X12493991Y-8460174D02*
X12503515Y-8479222D01*
X12503515Y-8479222D02*
X12503515Y-8583984D01*
X12893991Y-8374460D02*
X12722563Y-8631603D01*
X13151134Y-8383984D02*
X13170182Y-8383984D01*
X13170182Y-8383984D02*
X13189229Y-8393508D01*
X13189229Y-8393508D02*
X13198753Y-8403031D01*
X13198753Y-8403031D02*
X13208277Y-8422079D01*
X13208277Y-8422079D02*
X13217801Y-8460174D01*
X13217801Y-8460174D02*
X13217801Y-8507793D01*
X13217801Y-8507793D02*
X13208277Y-8545889D01*
X13208277Y-8545889D02*
X13198753Y-8564936D01*
X13198753Y-8564936D02*
X13189229Y-8574460D01*
X13189229Y-8574460D02*
X13170182Y-8583984D01*
X13170182Y-8583984D02*
X13151134Y-8583984D01*
X13151134Y-8583984D02*
X13132086Y-8574460D01*
X13132086Y-8574460D02*
X13122563Y-8564936D01*
X13122563Y-8564936D02*
X13113039Y-8545889D01*
X13113039Y-8545889D02*
X13103515Y-8507793D01*
X13103515Y-8507793D02*
X13103515Y-8460174D01*
X13103515Y-8460174D02*
X13113039Y-8422079D01*
X13113039Y-8422079D02*
X13122563Y-8403031D01*
X13122563Y-8403031D02*
X13132086Y-8393508D01*
X13132086Y-8393508D02*
X13151134Y-8383984D01*
X13303515Y-8564936D02*
X13313039Y-8574460D01*
X13313039Y-8574460D02*
X13303515Y-8583984D01*
X13303515Y-8583984D02*
X13293991Y-8574460D01*
X13293991Y-8574460D02*
X13303515Y-8564936D01*
X13303515Y-8564936D02*
X13303515Y-8583984D01*
X13436848Y-8383984D02*
X13455896Y-8383984D01*
X13455896Y-8383984D02*
X13474944Y-8393508D01*
X13474944Y-8393508D02*
X13484467Y-8403031D01*
X13484467Y-8403031D02*
X13493991Y-8422079D01*
X13493991Y-8422079D02*
X13503515Y-8460174D01*
X13503515Y-8460174D02*
X13503515Y-8507793D01*
X13503515Y-8507793D02*
X13493991Y-8545889D01*
X13493991Y-8545889D02*
X13484467Y-8564936D01*
X13484467Y-8564936D02*
X13474944Y-8574460D01*
X13474944Y-8574460D02*
X13455896Y-8583984D01*
X13455896Y-8583984D02*
X13436848Y-8583984D01*
X13436848Y-8583984D02*
X13417801Y-8574460D01*
X13417801Y-8574460D02*
X13408277Y-8564936D01*
X13408277Y-8564936D02*
X13398753Y-8545889D01*
X13398753Y-8545889D02*
X13389229Y-8507793D01*
X13389229Y-8507793D02*
X13389229Y-8460174D01*
X13389229Y-8460174D02*
X13398753Y-8422079D01*
X13398753Y-8422079D02*
X13408277Y-8403031D01*
X13408277Y-8403031D02*
X13417801Y-8393508D01*
X13417801Y-8393508D02*
X13436848Y-8383984D01*
X13570182Y-8383984D02*
X13693991Y-8383984D01*
X13693991Y-8383984D02*
X13627325Y-8460174D01*
X13627325Y-8460174D02*
X13655896Y-8460174D01*
X13655896Y-8460174D02*
X13674944Y-8469698D01*
X13674944Y-8469698D02*
X13684467Y-8479222D01*
X13684467Y-8479222D02*
X13693991Y-8498270D01*
X13693991Y-8498270D02*
X13693991Y-8545889D01*
X13693991Y-8545889D02*
X13684467Y-8564936D01*
X13684467Y-8564936D02*
X13674944Y-8574460D01*
X13674944Y-8574460D02*
X13655896Y-8583984D01*
X13655896Y-8583984D02*
X13598753Y-8583984D01*
X13598753Y-8583984D02*
X13579706Y-8574460D01*
X13579706Y-8574460D02*
X13570182Y-8564936D01*
X13789229Y-8583984D02*
X13827325Y-8583984D01*
X13827325Y-8583984D02*
X13846372Y-8574460D01*
X13846372Y-8574460D02*
X13855896Y-8564936D01*
X13855896Y-8564936D02*
X13874944Y-8536365D01*
X13874944Y-8536365D02*
X13884467Y-8498270D01*
X13884467Y-8498270D02*
X13884467Y-8422079D01*
X13884467Y-8422079D02*
X13874944Y-8403031D01*
X13874944Y-8403031D02*
X13865420Y-8393508D01*
X13865420Y-8393508D02*
X13846372Y-8383984D01*
X13846372Y-8383984D02*
X13808277Y-8383984D01*
X13808277Y-8383984D02*
X13789229Y-8393508D01*
X13789229Y-8393508D02*
X13779706Y-8403031D01*
X13779706Y-8403031D02*
X13770182Y-8422079D01*
X13770182Y-8422079D02*
X13770182Y-8469698D01*
X13770182Y-8469698D02*
X13779706Y-8488746D01*
X13779706Y-8488746D02*
X13789229Y-8498270D01*
X13789229Y-8498270D02*
X13808277Y-8507793D01*
X13808277Y-8507793D02*
X13846372Y-8507793D01*
X13846372Y-8507793D02*
X13865420Y-8498270D01*
X13865420Y-8498270D02*
X13874944Y-8488746D01*
X13874944Y-8488746D02*
X13884467Y-8469698D01*
X14055896Y-8450650D02*
X14055896Y-8583984D01*
X14008277Y-8374460D02*
X13960658Y-8517317D01*
X13960658Y-8517317D02*
X14084467Y-8517317D01*
X14151134Y-8383984D02*
X14151134Y-8422079D01*
X14227325Y-8383984D02*
X14227325Y-8422079D01*
X14522563Y-8660174D02*
X14513039Y-8650650D01*
X14513039Y-8650650D02*
X14493991Y-8622079D01*
X14493991Y-8622079D02*
X14484468Y-8603031D01*
X14484468Y-8603031D02*
X14474944Y-8574460D01*
X14474944Y-8574460D02*
X14465420Y-8526841D01*
X14465420Y-8526841D02*
X14465420Y-8488746D01*
X14465420Y-8488746D02*
X14474944Y-8441127D01*
X14474944Y-8441127D02*
X14484468Y-8412555D01*
X14484468Y-8412555D02*
X14493991Y-8393508D01*
X14493991Y-8393508D02*
X14513039Y-8364936D01*
X14513039Y-8364936D02*
X14522563Y-8355412D01*
X14627325Y-8469698D02*
X14608277Y-8460174D01*
X14608277Y-8460174D02*
X14598753Y-8450650D01*
X14598753Y-8450650D02*
X14589229Y-8431603D01*
X14589229Y-8431603D02*
X14589229Y-8422079D01*
X14589229Y-8422079D02*
X14598753Y-8403031D01*
X14598753Y-8403031D02*
X14608277Y-8393508D01*
X14608277Y-8393508D02*
X14627325Y-8383984D01*
X14627325Y-8383984D02*
X14665420Y-8383984D01*
X14665420Y-8383984D02*
X14684468Y-8393508D01*
X14684468Y-8393508D02*
X14693991Y-8403031D01*
X14693991Y-8403031D02*
X14703515Y-8422079D01*
X14703515Y-8422079D02*
X14703515Y-8431603D01*
X14703515Y-8431603D02*
X14693991Y-8450650D01*
X14693991Y-8450650D02*
X14684468Y-8460174D01*
X14684468Y-8460174D02*
X14665420Y-8469698D01*
X14665420Y-8469698D02*
X14627325Y-8469698D01*
X14627325Y-8469698D02*
X14608277Y-8479222D01*
X14608277Y-8479222D02*
X14598753Y-8488746D01*
X14598753Y-8488746D02*
X14589229Y-8507793D01*
X14589229Y-8507793D02*
X14589229Y-8545889D01*
X14589229Y-8545889D02*
X14598753Y-8564936D01*
X14598753Y-8564936D02*
X14608277Y-8574460D01*
X14608277Y-8574460D02*
X14627325Y-8583984D01*
X14627325Y-8583984D02*
X14665420Y-8583984D01*
X14665420Y-8583984D02*
X14684468Y-8574460D01*
X14684468Y-8574460D02*
X14693991Y-8564936D01*
X14693991Y-8564936D02*
X14703515Y-8545889D01*
X14703515Y-8545889D02*
X14703515Y-8507793D01*
X14703515Y-8507793D02*
X14693991Y-8488746D01*
X14693991Y-8488746D02*
X14684468Y-8479222D01*
X14684468Y-8479222D02*
X14665420Y-8469698D01*
X14817801Y-8469698D02*
X14798753Y-8460174D01*
X14798753Y-8460174D02*
X14789229Y-8450650D01*
X14789229Y-8450650D02*
X14779706Y-8431603D01*
X14779706Y-8431603D02*
X14779706Y-8422079D01*
X14779706Y-8422079D02*
X14789229Y-8403031D01*
X14789229Y-8403031D02*
X14798753Y-8393508D01*
X14798753Y-8393508D02*
X14817801Y-8383984D01*
X14817801Y-8383984D02*
X14855896Y-8383984D01*
X14855896Y-8383984D02*
X14874944Y-8393508D01*
X14874944Y-8393508D02*
X14884468Y-8403031D01*
X14884468Y-8403031D02*
X14893991Y-8422079D01*
X14893991Y-8422079D02*
X14893991Y-8431603D01*
X14893991Y-8431603D02*
X14884468Y-8450650D01*
X14884468Y-8450650D02*
X14874944Y-8460174D01*
X14874944Y-8460174D02*
X14855896Y-8469698D01*
X14855896Y-8469698D02*
X14817801Y-8469698D01*
X14817801Y-8469698D02*
X14798753Y-8479222D01*
X14798753Y-8479222D02*
X14789229Y-8488746D01*
X14789229Y-8488746D02*
X14779706Y-8507793D01*
X14779706Y-8507793D02*
X14779706Y-8545889D01*
X14779706Y-8545889D02*
X14789229Y-8564936D01*
X14789229Y-8564936D02*
X14798753Y-8574460D01*
X14798753Y-8574460D02*
X14817801Y-8583984D01*
X14817801Y-8583984D02*
X14855896Y-8583984D01*
X14855896Y-8583984D02*
X14874944Y-8574460D01*
X14874944Y-8574460D02*
X14884468Y-8564936D01*
X14884468Y-8564936D02*
X14893991Y-8545889D01*
X14893991Y-8545889D02*
X14893991Y-8507793D01*
X14893991Y-8507793D02*
X14884468Y-8488746D01*
X14884468Y-8488746D02*
X14874944Y-8479222D01*
X14874944Y-8479222D02*
X14855896Y-8469698D01*
X15132087Y-8583984D02*
X15132087Y-8383984D01*
X15217801Y-8583984D02*
X15217801Y-8479222D01*
X15217801Y-8479222D02*
X15208277Y-8460174D01*
X15208277Y-8460174D02*
X15189230Y-8450650D01*
X15189230Y-8450650D02*
X15160658Y-8450650D01*
X15160658Y-8450650D02*
X15141610Y-8460174D01*
X15141610Y-8460174D02*
X15132087Y-8469698D01*
X15341610Y-8583984D02*
X15322563Y-8574460D01*
X15322563Y-8574460D02*
X15313039Y-8564936D01*
X15313039Y-8564936D02*
X15303515Y-8545889D01*
X15303515Y-8545889D02*
X15303515Y-8488746D01*
X15303515Y-8488746D02*
X15313039Y-8469698D01*
X15313039Y-8469698D02*
X15322563Y-8460174D01*
X15322563Y-8460174D02*
X15341610Y-8450650D01*
X15341610Y-8450650D02*
X15370182Y-8450650D01*
X15370182Y-8450650D02*
X15389230Y-8460174D01*
X15389230Y-8460174D02*
X15398753Y-8469698D01*
X15398753Y-8469698D02*
X15408277Y-8488746D01*
X15408277Y-8488746D02*
X15408277Y-8545889D01*
X15408277Y-8545889D02*
X15398753Y-8564936D01*
X15398753Y-8564936D02*
X15389230Y-8574460D01*
X15389230Y-8574460D02*
X15370182Y-8583984D01*
X15370182Y-8583984D02*
X15341610Y-8583984D01*
X15522563Y-8583984D02*
X15503515Y-8574460D01*
X15503515Y-8574460D02*
X15493991Y-8555412D01*
X15493991Y-8555412D02*
X15493991Y-8383984D01*
X15674944Y-8574460D02*
X15655896Y-8583984D01*
X15655896Y-8583984D02*
X15617801Y-8583984D01*
X15617801Y-8583984D02*
X15598753Y-8574460D01*
X15598753Y-8574460D02*
X15589230Y-8555412D01*
X15589230Y-8555412D02*
X15589230Y-8479222D01*
X15589230Y-8479222D02*
X15598753Y-8460174D01*
X15598753Y-8460174D02*
X15617801Y-8450650D01*
X15617801Y-8450650D02*
X15655896Y-8450650D01*
X15655896Y-8450650D02*
X15674944Y-8460174D01*
X15674944Y-8460174D02*
X15684468Y-8479222D01*
X15684468Y-8479222D02*
X15684468Y-8498270D01*
X15684468Y-8498270D02*
X15589230Y-8517317D01*
X15760658Y-8574460D02*
X15779706Y-8583984D01*
X15779706Y-8583984D02*
X15817801Y-8583984D01*
X15817801Y-8583984D02*
X15836849Y-8574460D01*
X15836849Y-8574460D02*
X15846372Y-8555412D01*
X15846372Y-8555412D02*
X15846372Y-8545889D01*
X15846372Y-8545889D02*
X15836849Y-8526841D01*
X15836849Y-8526841D02*
X15817801Y-8517317D01*
X15817801Y-8517317D02*
X15789230Y-8517317D01*
X15789230Y-8517317D02*
X15770182Y-8507793D01*
X15770182Y-8507793D02*
X15760658Y-8488746D01*
X15760658Y-8488746D02*
X15760658Y-8479222D01*
X15760658Y-8479222D02*
X15770182Y-8460174D01*
X15770182Y-8460174D02*
X15789230Y-8450650D01*
X15789230Y-8450650D02*
X15817801Y-8450650D01*
X15817801Y-8450650D02*
X15836849Y-8460174D01*
X15913039Y-8660174D02*
X15922563Y-8650650D01*
X15922563Y-8650650D02*
X15941611Y-8622079D01*
X15941611Y-8622079D02*
X15951134Y-8603031D01*
X15951134Y-8603031D02*
X15960658Y-8574460D01*
X15960658Y-8574460D02*
X15970182Y-8526841D01*
X15970182Y-8526841D02*
X15970182Y-8488746D01*
X15970182Y-8488746D02*
X15960658Y-8441127D01*
X15960658Y-8441127D02*
X15951134Y-8412555D01*
X15951134Y-8412555D02*
X15941611Y-8393508D01*
X15941611Y-8393508D02*
X15922563Y-8364936D01*
X15922563Y-8364936D02*
X15913039Y-8355412D01*
M02*
