M48
; DRILL file {KiCad 9.0.7} date 2026-03-12T20:36:41+0100
; FORMAT={-:-/ absolute / metric / decimal}
; #@! TF.CreationDate,2026-03-12T20:36:41+01:00
; #@! TF.GenerationSoftware,Kicad,Pcbnew,9.0.7
; #@! TF.FileFunction,Plated,1,2,PTH
FMAT,2
METRIC
; #@! TA.AperFunction,Plated,PTH,ComponentDrill
T1C1.000
%
G90
G05
T1
X111.46Y-76.5
X111.5Y-31.0
X114.0Y-76.5
X114.04Y-31.0
X116.54Y-76.5
X116.58Y-31.0
X119.08Y-76.5
X119.12Y-31.0
X120.84Y-36.5
X121.0Y-45.5
X121.0Y-63.5
X121.0Y-68.59
X121.66Y-31.0
X123.38Y-36.5
X123.54Y-45.5
X123.54Y-63.5
X123.54Y-68.59
X123.6Y-76.5
X124.2Y-31.0
X125.92Y-36.5
X126.08Y-45.5
X126.08Y-63.5
X126.08Y-68.59
X126.14Y-76.5
X126.74Y-31.0
X128.46Y-36.5
X128.62Y-45.5
X128.62Y-63.5
X128.62Y-68.59
X128.68Y-76.5
X129.28Y-31.0
X131.0Y-36.5
X131.16Y-45.5
X131.16Y-63.5
X131.16Y-68.59
X131.22Y-76.5
X131.82Y-31.0
X133.54Y-36.5
X133.7Y-45.5
X133.7Y-63.5
X133.7Y-68.59
X133.76Y-76.5
X134.36Y-31.0
X136.08Y-36.5
X136.24Y-45.5
X136.24Y-63.5
X136.24Y-68.59
X136.3Y-76.5
X138.62Y-36.5
X138.78Y-45.5
X138.78Y-63.5
X138.78Y-68.59
X138.84Y-76.5
X141.16Y-36.5
X141.32Y-45.5
X141.32Y-63.5
X141.32Y-68.59
X141.38Y-76.5
X143.7Y-36.5
X143.86Y-45.5
X143.86Y-63.5
X143.86Y-68.59
X143.92Y-76.5
X146.24Y-36.5
X146.4Y-45.5
X146.4Y-63.5
X146.4Y-68.59
X146.46Y-76.5
X148.78Y-36.5
X148.94Y-45.5
X148.94Y-63.5
X148.94Y-68.59
X149.0Y-76.5
X151.32Y-36.5
X151.48Y-45.5
X151.48Y-63.5
X151.48Y-68.59
X151.54Y-76.5
X153.86Y-36.5
X154.02Y-45.5
X154.02Y-63.5
X154.02Y-68.59
X154.08Y-76.5
X156.4Y-36.5
X156.56Y-45.5
X156.56Y-63.5
X156.56Y-68.59
X156.62Y-76.5
M30
