%TF.GenerationSoftware,KiCad,Pcbnew,9.0.7*%
%TF.CreationDate,2026-03-12T20:36:41+01:00*%
%TF.ProjectId,caraccel,63617261-6363-4656-9c2e-6b696361645f,rev?*%
%TF.SameCoordinates,Original*%
%TF.FileFunction,Drillmap*%
%TF.FilePolarity,Positive*%
%FSLAX45Y45*%
G04 Gerber Fmt 4.5, Leading zero omitted, Abs format (unit mm)*
G04 Created by KiCad (PCBNEW 9.0.7) date 2026-03-12 20:36:41*
%MOMM*%
%LPD*%
G01*
G04 APERTURE LIST*
%ADD10C,0.050000*%
%ADD11C,0.200000*%
G04 APERTURE END LIST*
D10*
X10950000Y-2850000D02*
X15950000Y-2850000D01*
X15950000Y-7850000D01*
X10950000Y-7850000D01*
X10950000Y-2850000D01*
D11*
X11208277Y-8163984D02*
X11208277Y-7963984D01*
X11208277Y-7963984D02*
X11255896Y-7963984D01*
X11255896Y-7963984D02*
X11284467Y-7973508D01*
X11284467Y-7973508D02*
X11303515Y-7992555D01*
X11303515Y-7992555D02*
X11313039Y-8011603D01*
X11313039Y-8011603D02*
X11322562Y-8049698D01*
X11322562Y-8049698D02*
X11322562Y-8078269D01*
X11322562Y-8078269D02*
X11313039Y-8116365D01*
X11313039Y-8116365D02*
X11303515Y-8135412D01*
X11303515Y-8135412D02*
X11284467Y-8154460D01*
X11284467Y-8154460D02*
X11255896Y-8163984D01*
X11255896Y-8163984D02*
X11208277Y-8163984D01*
X11408277Y-8163984D02*
X11408277Y-8030650D01*
X11408277Y-8068746D02*
X11417801Y-8049698D01*
X11417801Y-8049698D02*
X11427324Y-8040174D01*
X11427324Y-8040174D02*
X11446372Y-8030650D01*
X11446372Y-8030650D02*
X11465420Y-8030650D01*
X11532086Y-8163984D02*
X11532086Y-8030650D01*
X11532086Y-7963984D02*
X11522562Y-7973508D01*
X11522562Y-7973508D02*
X11532086Y-7983031D01*
X11532086Y-7983031D02*
X11541610Y-7973508D01*
X11541610Y-7973508D02*
X11532086Y-7963984D01*
X11532086Y-7963984D02*
X11532086Y-7983031D01*
X11655896Y-8163984D02*
X11636848Y-8154460D01*
X11636848Y-8154460D02*
X11627324Y-8135412D01*
X11627324Y-8135412D02*
X11627324Y-7963984D01*
X11760658Y-8163984D02*
X11741610Y-8154460D01*
X11741610Y-8154460D02*
X11732086Y-8135412D01*
X11732086Y-8135412D02*
X11732086Y-7963984D01*
X11989229Y-8163984D02*
X11989229Y-7963984D01*
X11989229Y-7963984D02*
X12055896Y-8106841D01*
X12055896Y-8106841D02*
X12122562Y-7963984D01*
X12122562Y-7963984D02*
X12122562Y-8163984D01*
X12303515Y-8163984D02*
X12303515Y-8059222D01*
X12303515Y-8059222D02*
X12293991Y-8040174D01*
X12293991Y-8040174D02*
X12274943Y-8030650D01*
X12274943Y-8030650D02*
X12236848Y-8030650D01*
X12236848Y-8030650D02*
X12217801Y-8040174D01*
X12303515Y-8154460D02*
X12284467Y-8163984D01*
X12284467Y-8163984D02*
X12236848Y-8163984D01*
X12236848Y-8163984D02*
X12217801Y-8154460D01*
X12217801Y-8154460D02*
X12208277Y-8135412D01*
X12208277Y-8135412D02*
X12208277Y-8116365D01*
X12208277Y-8116365D02*
X12217801Y-8097317D01*
X12217801Y-8097317D02*
X12236848Y-8087793D01*
X12236848Y-8087793D02*
X12284467Y-8087793D01*
X12284467Y-8087793D02*
X12303515Y-8078269D01*
X12398753Y-8030650D02*
X12398753Y-8230650D01*
X12398753Y-8040174D02*
X12417801Y-8030650D01*
X12417801Y-8030650D02*
X12455896Y-8030650D01*
X12455896Y-8030650D02*
X12474943Y-8040174D01*
X12474943Y-8040174D02*
X12484467Y-8049698D01*
X12484467Y-8049698D02*
X12493991Y-8068746D01*
X12493991Y-8068746D02*
X12493991Y-8125888D01*
X12493991Y-8125888D02*
X12484467Y-8144936D01*
X12484467Y-8144936D02*
X12474943Y-8154460D01*
X12474943Y-8154460D02*
X12455896Y-8163984D01*
X12455896Y-8163984D02*
X12417801Y-8163984D01*
X12417801Y-8163984D02*
X12398753Y-8154460D01*
X12579705Y-8144936D02*
X12589229Y-8154460D01*
X12589229Y-8154460D02*
X12579705Y-8163984D01*
X12579705Y-8163984D02*
X12570182Y-8154460D01*
X12570182Y-8154460D02*
X12579705Y-8144936D01*
X12579705Y-8144936D02*
X12579705Y-8163984D01*
X12579705Y-8040174D02*
X12589229Y-8049698D01*
X12589229Y-8049698D02*
X12579705Y-8059222D01*
X12579705Y-8059222D02*
X12570182Y-8049698D01*
X12570182Y-8049698D02*
X12579705Y-8040174D01*
X12579705Y-8040174D02*
X12579705Y-8059222D01*
M02*
